{
copyright = "This work is licensed under the Creative Commons Attribution 3.0 Unported License. To view a copy of this license, visit http://creativecommons.org/licenses/by/3.0/.";
date = "2013-06-18 01:35:54 +0000";
designer = "Ali Mihandoost";
designerURL = "http://ali.md/";
familyName = "Encrypted Persian";
fontMaster = (
{
ascender = 1000;
capHeight = 700;
customParameters = (
{
name = "typoAscender";
value = "1000";
},
{
name = "typoDescender";
value = "0";
},
{
name = "typoLineGap";
value = "90";
}
);
descender = "-250";
id = "3D323242-F336-407C-B164-DE86AA499667";
weightValue = 500;
widthValue = 5;
xHeight = 500;
}
);
glyphs = (
{
glyphname = "alef-ar";
lastChange = "2013-06-18 02:44:01 +0330";
layers = (
{
layerId = "3D323242-F336-407C-B164-DE86AA499667";
name = "Regular";
paths = (
{
closed = 1;
nodes = (
"217 417 LINE SMOOTH",
"220 314 OFFCURVE",
"251 186 OFFCURVE",
"278 178 CURVE",
"306 183 OFFCURVE",
"336 314 OFFCURVE",
"339 418 CURVE SMOOTH",
"339 424 LINE SMOOTH",
"339 595 OFFCURVE",
"303 857 OFFCURVE",
"278 934 CURVE",
"253 857 OFFCURVE",
"217 593 OFFCURVE",
"217 424 CURVE SMOOTH"
);
},
{
closed = 1;
nodes = (
"140 40 LINE",
"155 40 LINE",
"204 40 LINE SMOOTH",
"237 41 OFFCURVE",
"302 41 OFFCURVE",
"401 41 CURVE SMOOTH",
"417 41 LINE",
"417 114 LINE",
"390 104 OFFCURVE",
"367 95 OFFCURVE",
"348 87 CURVE SMOOTH",
"329 79 OFFCURVE",
"317 74 OFFCURVE",
"312 72 CURVE",
"302 67 OFFCURVE",
"293 64 OFFCURVE",
"276 64 CURVE",
"253 65 OFFCURVE",
"225 74 OFFCURVE",
"194 89 CURVE SMOOTH",
"162 104 OFFCURVE",
"144 113 OFFCURVE",
"140 114 CURVE"
);
},
{
closed = 1;
nodes = (
"212 178 OFFCURVE",
"180 308 OFFCURVE",
"177 417 CURVE",
"177 424 LINE SMOOTH",
"177 613 OFFCURVE",
"220 909 OFFCURVE",
"247 964 CURVE",
"255 985 OFFCURVE",
"266 996 OFFCURVE",
"281 996 CURVE SMOOTH",
"295 996 OFFCURVE",
"304 986 OFFCURVE",
"309 965 CURVE",
"336 910 OFFCURVE",
"379 615 OFFCURVE",
"379 424 CURVE SMOOTH",
"379 418 LINE SMOOTH",
"376 307 OFFCURVE",
"345 181 OFFCURVE",
"310 153 CURVE SMOOTH",
"298 143 OFFCURVE",
"287 138 OFFCURVE",
"277 138 CURVE SMOOTH",
"269 138 OFFCURVE",
"259 142 OFFCURVE",
"248 150 CURVE SMOOTH"
);
},
{
closed = 1;
nodes = (
"155 0 LINE",
"119 0 LINE",
"106 1 OFFCURVE",
"100 8 OFFCURVE",
"100 20 CURVE SMOOTH",
"100 142 LINE SMOOTH",
"100 157 OFFCURVE",
"111 162 OFFCURVE",
"119 162 CURVE SMOOTH",
"122 162 OFFCURVE",
"125 162 OFFCURVE",
"127 161 CURVE",
"130 160 OFFCURVE",
"151 150 OFFCURVE",
"189 133 CURVE SMOOTH",
"226 115 OFFCURVE",
"256 106 OFFCURVE",
"277 105 CURVE",
"298 107 OFFCURVE",
"327 116 OFFCURVE",
"364 133 CURVE SMOOTH",
"401 149 OFFCURVE",
"423 158 OFFCURVE",
"430 161 CURVE",
"433 162 OFFCURVE",
"435 163 OFFCURVE",
"437 163 CURVE SMOOTH",
"445 163 OFFCURVE",
"456 158 OFFCURVE",
"456 143 CURVE SMOOTH",
"456 21 LINE SMOOTH",
"456 10 OFFCURVE",
"448 1 OFFCURVE",
"437 1 CURVE SMOOTH",
"401 1 LINE SMOOTH",
"302 1 OFFCURVE",
"237 1 OFFCURVE",
"204 0 CURVE SMOOTH"
);
}
);
width = 556;
}
);
unicode = 0627;
},
{
glyphname = "alefHamzaabove-ar";
lastChange = "2013-06-18 02:44:19 +0330";
layers = (
{
layerId = "3D323242-F336-407C-B164-DE86AA499667";
name = "Regular";
paths = (
{
closed = 1;
nodes = (
"217 417 LINE SMOOTH",
"220 314 OFFCURVE",
"251 186 OFFCURVE",
"278 178 CURVE",
"306 183 OFFCURVE",
"336 314 OFFCURVE",
"339 418 CURVE SMOOTH",
"339 424 LINE SMOOTH",
"339 595 OFFCURVE",
"303 857 OFFCURVE",
"278 934 CURVE",
"253 857 OFFCURVE",
"217 593 OFFCURVE",
"217 424 CURVE SMOOTH"
);
},
{
closed = 1;
nodes = (
"140 40 LINE",
"155 40 LINE",
"204 40 LINE SMOOTH",
"237 41 OFFCURVE",
"302 41 OFFCURVE",
"401 41 CURVE SMOOTH",
"417 41 LINE",
"417 114 LINE",
"390 104 OFFCURVE",
"367 95 OFFCURVE",
"348 87 CURVE SMOOTH",
"329 79 OFFCURVE",
"317 74 OFFCURVE",
"312 72 CURVE",
"302 67 OFFCURVE",
"293 64 OFFCURVE",
"276 64 CURVE",
"253 65 OFFCURVE",
"225 74 OFFCURVE",
"194 89 CURVE SMOOTH",
"162 104 OFFCURVE",
"144 113 OFFCURVE",
"140 114 CURVE"
);
},
{
closed = 1;
nodes = (
"212 178 OFFCURVE",
"180 308 OFFCURVE",
"177 417 CURVE",
"177 424 LINE SMOOTH",
"177 613 OFFCURVE",
"220 909 OFFCURVE",
"247 964 CURVE",
"255 985 OFFCURVE",
"266 996 OFFCURVE",
"281 996 CURVE SMOOTH",
"295 996 OFFCURVE",
"304 986 OFFCURVE",
"309 965 CURVE",
"336 910 OFFCURVE",
"379 615 OFFCURVE",
"379 424 CURVE SMOOTH",
"379 418 LINE SMOOTH",
"376 307 OFFCURVE",
"345 181 OFFCURVE",
"310 153 CURVE SMOOTH",
"298 143 OFFCURVE",
"287 138 OFFCURVE",
"277 138 CURVE SMOOTH",
"269 138 OFFCURVE",
"259 142 OFFCURVE",
"248 150 CURVE SMOOTH"
);
},
{
closed = 1;
nodes = (
"155 0 LINE",
"119 0 LINE",
"106 1 OFFCURVE",
"100 8 OFFCURVE",
"100 20 CURVE SMOOTH",
"100 142 LINE SMOOTH",
"100 157 OFFCURVE",
"111 162 OFFCURVE",
"119 162 CURVE SMOOTH",
"122 162 OFFCURVE",
"125 162 OFFCURVE",
"127 161 CURVE",
"130 160 OFFCURVE",
"151 150 OFFCURVE",
"189 133 CURVE SMOOTH",
"226 115 OFFCURVE",
"256 106 OFFCURVE",
"277 105 CURVE",
"298 107 OFFCURVE",
"327 116 OFFCURVE",
"364 133 CURVE SMOOTH",
"401 149 OFFCURVE",
"423 158 OFFCURVE",
"430 161 CURVE",
"433 162 OFFCURVE",
"435 163 OFFCURVE",
"437 163 CURVE SMOOTH",
"445 163 OFFCURVE",
"456 158 OFFCURVE",
"456 143 CURVE SMOOTH",
"456 21 LINE SMOOTH",
"456 10 OFFCURVE",
"448 1 OFFCURVE",
"437 1 CURVE SMOOTH",
"401 1 LINE SMOOTH",
"302 1 OFFCURVE",
"237 1 OFFCURVE",
"204 0 CURVE SMOOTH"
);
}
);
width = 556;
}
);
unicode = 0623;
},
{
glyphname = "alefHamzaabove-ar.fina";
lastChange = "2013-06-18 02:52:33 +0330";
layers = (
{
layerId = "3D323242-F336-407C-B164-DE86AA499667";
name = "Regular";
paths = (
{
closed = 1;
nodes = (
"217 417 LINE SMOOTH",
"220 314 OFFCURVE",
"251 186 OFFCURVE",
"278 178 CURVE",
"306 183 OFFCURVE",
"336 314 OFFCURVE",
"339 418 CURVE SMOOTH",
"339 424 LINE SMOOTH",
"339 595 OFFCURVE",
"303 857 OFFCURVE",
"278 934 CURVE",
"253 857 OFFCURVE",
"217 593 OFFCURVE",
"217 424 CURVE SMOOTH"
);
},
{
closed = 1;
nodes = (
"140 40 LINE",
"155 40 LINE",
"204 40 LINE SMOOTH",
"237 41 OFFCURVE",
"302 41 OFFCURVE",
"401 41 CURVE SMOOTH",
"417 41 LINE",
"417 114 LINE",
"390 104 OFFCURVE",
"367 95 OFFCURVE",
"348 87 CURVE SMOOTH",
"329 79 OFFCURVE",
"317 74 OFFCURVE",
"312 72 CURVE",
"302 67 OFFCURVE",
"293 64 OFFCURVE",
"276 64 CURVE",
"253 65 OFFCURVE",
"225 74 OFFCURVE",
"194 89 CURVE SMOOTH",
"162 104 OFFCURVE",
"144 113 OFFCURVE",
"140 114 CURVE"
);
},
{
closed = 1;
nodes = (
"212 178 OFFCURVE",
"180 308 OFFCURVE",
"177 417 CURVE",
"177 424 LINE SMOOTH",
"177 613 OFFCURVE",
"220 909 OFFCURVE",
"247 964 CURVE",
"255 985 OFFCURVE",
"266 996 OFFCURVE",
"281 996 CURVE SMOOTH",
"295 996 OFFCURVE",
"304 986 OFFCURVE",
"309 965 CURVE",
"336 910 OFFCURVE",
"379 615 OFFCURVE",
"379 424 CURVE SMOOTH",
"379 418 LINE SMOOTH",
"376 307 OFFCURVE",
"345 181 OFFCURVE",
"310 153 CURVE SMOOTH",
"298 143 OFFCURVE",
"287 138 OFFCURVE",
"277 138 CURVE SMOOTH",
"269 138 OFFCURVE",
"259 142 OFFCURVE",
"248 150 CURVE SMOOTH"
);
},
{
closed = 1;
nodes = (
"155 0 LINE",
"119 0 LINE",
"106 1 OFFCURVE",
"100 8 OFFCURVE",
"100 20 CURVE SMOOTH",
"100 142 LINE SMOOTH",
"100 157 OFFCURVE",
"111 162 OFFCURVE",
"119 162 CURVE SMOOTH",
"122 162 OFFCURVE",
"125 162 OFFCURVE",
"127 161 CURVE",
"130 160 OFFCURVE",
"151 150 OFFCURVE",
"189 133 CURVE SMOOTH",
"226 115 OFFCURVE",
"256 106 OFFCURVE",
"277 105 CURVE",
"298 107 OFFCURVE",
"327 116 OFFCURVE",
"364 133 CURVE SMOOTH",
"401 149 OFFCURVE",
"423 158 OFFCURVE",
"430 161 CURVE",
"433 162 OFFCURVE",
"435 163 OFFCURVE",
"437 163 CURVE SMOOTH",
"445 163 OFFCURVE",
"456 158 OFFCURVE",
"456 143 CURVE SMOOTH",
"456 21 LINE SMOOTH",
"456 10 OFFCURVE",
"448 1 OFFCURVE",
"437 1 CURVE SMOOTH",
"401 1 LINE SMOOTH",
"302 1 OFFCURVE",
"237 1 OFFCURVE",
"204 0 CURVE SMOOTH"
);
}
);
width = 556;
}
);
unicode = FE84;
},
{
glyphname = "alefHamzabelow-ar";
lastChange = "2013-06-18 02:44:25 +0330";
layers = (
{
layerId = "3D323242-F336-407C-B164-DE86AA499667";
name = "Regular";
paths = (
{
closed = 1;
nodes = (
"217 417 LINE SMOOTH",
"220 314 OFFCURVE",
"251 186 OFFCURVE",
"278 178 CURVE",
"306 183 OFFCURVE",
"336 314 OFFCURVE",
"339 418 CURVE SMOOTH",
"339 424 LINE SMOOTH",
"339 595 OFFCURVE",
"303 857 OFFCURVE",
"278 934 CURVE",
"253 857 OFFCURVE",
"217 593 OFFCURVE",
"217 424 CURVE SMOOTH"
);
},
{
closed = 1;
nodes = (
"140 40 LINE",
"155 40 LINE",
"204 40 LINE SMOOTH",
"237 41 OFFCURVE",
"302 41 OFFCURVE",
"401 41 CURVE SMOOTH",
"417 41 LINE",
"417 114 LINE",
"390 104 OFFCURVE",
"367 95 OFFCURVE",
"348 87 CURVE SMOOTH",
"329 79 OFFCURVE",
"317 74 OFFCURVE",
"312 72 CURVE",
"302 67 OFFCURVE",
"293 64 OFFCURVE",
"276 64 CURVE",
"253 65 OFFCURVE",
"225 74 OFFCURVE",
"194 89 CURVE SMOOTH",
"162 104 OFFCURVE",
"144 113 OFFCURVE",
"140 114 CURVE"
);
},
{
closed = 1;
nodes = (
"212 178 OFFCURVE",
"180 308 OFFCURVE",
"177 417 CURVE",
"177 424 LINE SMOOTH",
"177 613 OFFCURVE",
"220 909 OFFCURVE",
"247 964 CURVE",
"255 985 OFFCURVE",
"266 996 OFFCURVE",
"281 996 CURVE SMOOTH",
"295 996 OFFCURVE",
"304 986 OFFCURVE",
"309 965 CURVE",
"336 910 OFFCURVE",
"379 615 OFFCURVE",
"379 424 CURVE SMOOTH",
"379 418 LINE SMOOTH",
"376 307 OFFCURVE",
"345 181 OFFCURVE",
"310 153 CURVE SMOOTH",
"298 143 OFFCURVE",
"287 138 OFFCURVE",
"277 138 CURVE SMOOTH",
"269 138 OFFCURVE",
"259 142 OFFCURVE",
"248 150 CURVE SMOOTH"
);
},
{
closed = 1;
nodes = (
"155 0 LINE",
"119 0 LINE",
"106 1 OFFCURVE",
"100 8 OFFCURVE",
"100 20 CURVE SMOOTH",
"100 142 LINE SMOOTH",
"100 157 OFFCURVE",
"111 162 OFFCURVE",
"119 162 CURVE SMOOTH",
"122 162 OFFCURVE",
"125 162 OFFCURVE",
"127 161 CURVE",
"130 160 OFFCURVE",
"151 150 OFFCURVE",
"189 133 CURVE SMOOTH",
"226 115 OFFCURVE",
"256 106 OFFCURVE",
"277 105 CURVE",
"298 107 OFFCURVE",
"327 116 OFFCURVE",
"364 133 CURVE SMOOTH",
"401 149 OFFCURVE",
"423 158 OFFCURVE",
"430 161 CURVE",
"433 162 OFFCURVE",
"435 163 OFFCURVE",
"437 163 CURVE SMOOTH",
"445 163 OFFCURVE",
"456 158 OFFCURVE",
"456 143 CURVE SMOOTH",
"456 21 LINE SMOOTH",
"456 10 OFFCURVE",
"448 1 OFFCURVE",
"437 1 CURVE SMOOTH",
"401 1 LINE SMOOTH",
"302 1 OFFCURVE",
"237 1 OFFCURVE",
"204 0 CURVE SMOOTH"
);
}
);
width = 556;
}
);
unicode = 0625;
},
{
glyphname = "alefMadda-ar";
lastChange = "2013-06-18 02:44:32 +0330";
layers = (
{
layerId = "3D323242-F336-407C-B164-DE86AA499667";
name = "Regular";
paths = (
{
closed = 1;
nodes = (
"217 417 LINE SMOOTH",
"220 314 OFFCURVE",
"251 186 OFFCURVE",
"278 178 CURVE",
"306 183 OFFCURVE",
"336 314 OFFCURVE",
"339 418 CURVE SMOOTH",
"339 424 LINE SMOOTH",
"339 595 OFFCURVE",
"303 857 OFFCURVE",
"278 934 CURVE",
"253 857 OFFCURVE",
"217 593 OFFCURVE",
"217 424 CURVE SMOOTH"
);
},
{
closed = 1;
nodes = (
"140 40 LINE",
"155 40 LINE",
"204 40 LINE SMOOTH",
"237 41 OFFCURVE",
"302 41 OFFCURVE",
"401 41 CURVE SMOOTH",
"417 41 LINE",
"417 114 LINE",
"390 104 OFFCURVE",
"367 95 OFFCURVE",
"348 87 CURVE SMOOTH",
"329 79 OFFCURVE",
"317 74 OFFCURVE",
"312 72 CURVE",
"302 67 OFFCURVE",
"293 64 OFFCURVE",
"276 64 CURVE",
"253 65 OFFCURVE",
"225 74 OFFCURVE",
"194 89 CURVE SMOOTH",
"162 104 OFFCURVE",
"144 113 OFFCURVE",
"140 114 CURVE"
);
},
{
closed = 1;
nodes = (
"212 178 OFFCURVE",
"180 308 OFFCURVE",
"177 417 CURVE",
"177 424 LINE SMOOTH",
"177 613 OFFCURVE",
"220 909 OFFCURVE",
"247 964 CURVE",
"255 985 OFFCURVE",
"266 996 OFFCURVE",
"281 996 CURVE SMOOTH",
"295 996 OFFCURVE",
"304 986 OFFCURVE",
"309 965 CURVE",
"336 910 OFFCURVE",
"379 615 OFFCURVE",
"379 424 CURVE SMOOTH",
"379 418 LINE SMOOTH",
"376 307 OFFCURVE",
"345 181 OFFCURVE",
"310 153 CURVE SMOOTH",
"298 143 OFFCURVE",
"287 138 OFFCURVE",
"277 138 CURVE SMOOTH",
"269 138 OFFCURVE",
"259 142 OFFCURVE",
"248 150 CURVE SMOOTH"
);
},
{
closed = 1;
nodes = (
"155 0 LINE",
"119 0 LINE",
"106 1 OFFCURVE",
"100 8 OFFCURVE",
"100 20 CURVE SMOOTH",
"100 142 LINE SMOOTH",
"100 157 OFFCURVE",
"111 162 OFFCURVE",
"119 162 CURVE SMOOTH",
"122 162 OFFCURVE",
"125 162 OFFCURVE",
"127 161 CURVE",
"130 160 OFFCURVE",
"151 150 OFFCURVE",
"189 133 CURVE SMOOTH",
"226 115 OFFCURVE",
"256 106 OFFCURVE",
"277 105 CURVE",
"298 107 OFFCURVE",
"327 116 OFFCURVE",
"364 133 CURVE SMOOTH",
"401 149 OFFCURVE",
"423 158 OFFCURVE",
"430 161 CURVE",
"433 162 OFFCURVE",
"435 163 OFFCURVE",
"437 163 CURVE SMOOTH",
"445 163 OFFCURVE",
"456 158 OFFCURVE",
"456 143 CURVE SMOOTH",
"456 21 LINE SMOOTH",
"456 10 OFFCURVE",
"448 1 OFFCURVE",
"437 1 CURVE SMOOTH",
"401 1 LINE SMOOTH",
"302 1 OFFCURVE",
"237 1 OFFCURVE",
"204 0 CURVE SMOOTH"
);
}
);
width = 556;
}
);
unicode = 0622;
},
{
glyphname = "beh-ar";
lastChange = "2013-06-18 02:59:21 +0330";
layers = (
{
layerId = "3D323242-F336-407C-B164-DE86AA499667";
name = "Regular";
paths = (
{
closed = 1;
nodes = (
"362 460 OFFCURVE",
"374 445 OFFCURVE",
"374 428 CURVE SMOOTH",
"374 412 OFFCURVE",
"361 399 OFFCURVE",
"344 399 CURVE SMOOTH",
"327 399 OFFCURVE",
"312 411 OFFCURVE",
"312 427 CURVE SMOOTH",
"312 446 OFFCURVE",
"326 460 OFFCURVE",
"345 460 CURVE SMOOTH"
);
},
{
closed = 1;
nodes = (
"366 102 LINE",
"347 123 OFFCURVE",
"330 144 OFFCURVE",
"315 163 CURVE SMOOTH",
"306 175 OFFCURVE",
"299 188 OFFCURVE",
"292 203 CURVE",
"288 210 OFFCURVE",
"285 216 OFFCURVE",
"282 219 CURVE SMOOTH",
"281 220 OFFCURVE",
"280 222 OFFCURVE",
"280 223 CURVE",
"279 226 OFFCURVE",
"277 231 OFFCURVE",
"272 239 CURVE",
"270 245 OFFCURVE",
"268 251 OFFCURVE",
"267 257 CURVE",
"267 258 OFFCURVE",
"267 259 OFFCURVE",
"267 262 CURVE",
"266 265 OFFCURVE",
"266 267 OFFCURVE",
"266 269 CURVE SMOOTH",
"266 276 OFFCURVE",
"266 282 OFFCURVE",
"267 287 CURVE",
"267 288 OFFCURVE",
"267 289 OFFCURVE",
"268 290 CURVE",
"268 291 OFFCURVE",
"268 291 OFFCURVE",
"268 292 CURVE",
"273 304 OFFCURVE",
"280 314 OFFCURVE",
"289 321 CURVE",
"285 336 OFFCURVE",
"281 348 OFFCURVE",
"270 353 CURVE",
"270 353 OFFCURVE",
"270 353 OFFCURVE",
"269 354 CURVE",
"268 354 OFFCURVE",
"268 354 OFFCURVE",
"267 354 CURVE SMOOTH",
"265 354 OFFCURVE",
"264 354 OFFCURVE",
"263 353 CURVE",
"262 353 OFFCURVE",
"262 353 OFFCURVE",
"261 352 CURVE",
"258 351 OFFCURVE",
"246 344 OFFCURVE",
"239 343 CURVE",
"236 333 LINE",
"234 324 OFFCURVE",
"228 319 OFFCURVE",
"217 319 CURVE SMOOTH",
"215 319 LINE",
"204 320 OFFCURVE",
"198 327 OFFCURVE",
"197 338 CURVE",
"197 341 OFFCURVE",
"197 345 OFFCURVE",
"196 351 CURVE SMOOTH",
"195 356 OFFCURVE",
"194 361 OFFCURVE",
"194 365 CURVE SMOOTH",
"194 371 OFFCURVE",
"195 376 OFFCURVE",
"196 381 CURVE",
"200 393 OFFCURVE",
"204 404 OFFCURVE",
"207 413 CURVE SMOOTH",
"213 432 OFFCURVE",
"224 454 OFFCURVE",
"240 474 CURVE",
"261 497 OFFCURVE",
"288 512 OFFCURVE",
"321 520 CURVE",
"336 523 OFFCURVE",
"347 524 OFFCURVE",
"354 524 CURVE SMOOTH",
"386 524 OFFCURVE",
"423 504 OFFCURVE",
"442 489 CURVE",
"451 481 OFFCURVE",
"462 471 OFFCURVE",
"473 459 CURVE",
"484 446 OFFCURVE",
"491 438 OFFCURVE",
"496 433 CURVE",
"508 422 OFFCURVE",
"524 404 OFFCURVE",
"545 380 CURVE SMOOTH",
"585 331 OFFCURVE",
"623 306 OFFCURVE",
"660 284 CURVE SMOOTH",
"679 273 OFFCURVE",
"701 260 OFFCURVE",
"728 246 CURVE SMOOTH",
"754 232 OFFCURVE",
"775 220 OFFCURVE",
"791 211 CURVE SMOOTH",
"956 119 LINE SMOOTH",
"969 112 OFFCURVE",
"990 109 OFFCURVE",
"1019 109 CURVE SMOOTH",
"1047 109 OFFCURVE",
"1069 106 OFFCURVE",
"1086 100 CURVE",
"1095 98 OFFCURVE",
"1099 92 OFFCURVE",
"1100 83 CURVE",
"1100 21 LINE SMOOTH",
"1100 20 OFFCURVE",
"1100 18 OFFCURVE",
"1101 17 CURVE",
"1101 15 OFFCURVE",
"1101 14 OFFCURVE",
"1101 13 CURVE SMOOTH",
"1101 10 OFFCURVE",
"1100 7 OFFCURVE",
"1098 6 CURVE",
"1094 2 OFFCURVE",
"1089 0 OFFCURVE",
"1084 0 CURVE SMOOTH",
"117 0 LINE SMOOTH",
"116 0 OFFCURVE",
"115 0 OFFCURVE",
"113 0 CURVE SMOOTH",
"111 0 OFFCURVE",
"110 0 OFFCURVE",
"109 0 CURVE SMOOTH",
"104 0 OFFCURVE",
"100 4 OFFCURVE",
"100 8 CURVE SMOOTH",
"100 9 OFFCURVE",
"100 12 OFFCURVE",
"101 17 CURVE",
"101 83 LINE SMOOTH",
"101 94 OFFCURVE",
"110 102 OFFCURVE",
"121 102 CURVE SMOOTH"
);
},
{
closed = 1;
nodes = (
"139 62 LINE",
"139 40 LINE",
"1061 40 LINE",
"1061 66 LINE",
"1053 68 OFFCURVE",
"1034 70 OFFCURVE",
"1005 71 CURVE SMOOTH",
"975 72 OFFCURVE",
"953 77 OFFCURVE",
"938 84 CURVE",
"772 176 LINE SMOOTH",
"758 184 OFFCURVE",
"737 195 OFFCURVE",
"710 210 CURVE SMOOTH",
"654 239 OFFCURVE",
"621 259 OFFCURVE",
"578 291 CURVE SMOOTH",
"559 306 OFFCURVE",
"538 326 OFFCURVE",
"515 353 CURVE SMOOTH",
"492 379 OFFCURVE",
"477 396 OFFCURVE",
"468 404 CURVE",
"462 410 OFFCURVE",
"455 417 OFFCURVE",
"448 426 CURVE",
"432 443 OFFCURVE",
"427 449 OFFCURVE",
"413 461 CURVE",
"399 472 OFFCURVE",
"379 484 OFFCURVE",
"354 484 CURVE SMOOTH",
"347 484 OFFCURVE",
"339 483 OFFCURVE",
"329 481 CURVE",
"280 469 OFFCURVE",
"256 438 OFFCURVE",
"240 387 CURVE",
"243 388 OFFCURVE",
"245 389 OFFCURVE",
"247 390 CURVE SMOOTH",
"249 391 OFFCURVE",
"250 391 OFFCURVE",
"251 391 CURVE",
"257 393 OFFCURVE",
"262 394 OFFCURVE",
"267 394 CURVE SMOOTH",
"270 394 OFFCURVE",
"271 394 OFFCURVE",
"272 393 CURVE",
"277 393 OFFCURVE",
"282 391 OFFCURVE",
"288 388 CURVE",
"308 379 OFFCURVE",
"317 363 OFFCURVE",
"325 343 CURVE",
"328 333 OFFCURVE",
"331 326 OFFCURVE",
"334 322 CURVE",
"336 318 OFFCURVE",
"337 314 OFFCURVE",
"337 311 CURVE SMOOTH",
"337 308 OFFCURVE",
"336 306 OFFCURVE",
"335 303 CURVE",
"332 296 OFFCURVE",
"327 292 OFFCURVE",
"320 291 CURVE",
"308 290 OFFCURVE",
"306 277 OFFCURVE",
"306 269 CURVE SMOOTH",
"306 263 LINE",
"307 262 OFFCURVE",
"308 259 OFFCURVE",
"308 258 CURVE",
"314 246 OFFCURVE",
"317 239 OFFCURVE",
"317 238 CURVE",
"320 234 OFFCURVE",
"323 229 OFFCURVE",
"327 222 CURVE SMOOTH",
"334 209 OFFCURVE",
"340 198 OFFCURVE",
"347 187 CURVE",
"364 166 OFFCURVE",
"379 148 OFFCURVE",
"400 125 CURVE SMOOTH",
"410 114 OFFCURVE",
"419 103 OFFCURVE",
"426 94 CURVE",
"429 91 OFFCURVE",
"431 87 OFFCURVE",
"431 82 CURVE SMOOTH",
"431 80 OFFCURVE",
"430 77 OFFCURVE",
"429 73 CURVE",
"425 66 OFFCURVE",
"419 62 OFFCURVE",
"410 62 CURVE SMOOTH"
);
}
);
width = 1201;
}
);
unicode = 0628;
},
{
glyphname = "beh-ar.fina";
lastChange = "2013-06-18 02:59:50 +0330";
layers = (
{
layerId = "3D323242-F336-407C-B164-DE86AA499667";
name = "Regular";
paths = (
{
closed = 1;
nodes = (
"362 460 OFFCURVE",
"374 445 OFFCURVE",
"374 428 CURVE SMOOTH",
"374 412 OFFCURVE",
"361 399 OFFCURVE",
"344 399 CURVE SMOOTH",
"327 399 OFFCURVE",
"312 411 OFFCURVE",
"312 427 CURVE SMOOTH",
"312 446 OFFCURVE",
"326 460 OFFCURVE",
"345 460 CURVE SMOOTH"
);
},
{
closed = 1;
nodes = (
"366 102 LINE",
"347 123 OFFCURVE",
"330 144 OFFCURVE",
"315 163 CURVE SMOOTH",
"306 175 OFFCURVE",
"299 188 OFFCURVE",
"292 203 CURVE",
"288 210 OFFCURVE",
"285 216 OFFCURVE",
"282 219 CURVE SMOOTH",
"281 220 OFFCURVE",
"280 222 OFFCURVE",
"280 223 CURVE",
"279 226 OFFCURVE",
"277 231 OFFCURVE",
"272 239 CURVE",
"270 245 OFFCURVE",
"268 251 OFFCURVE",
"267 257 CURVE",
"267 258 OFFCURVE",
"267 259 OFFCURVE",
"267 262 CURVE",
"266 265 OFFCURVE",
"266 267 OFFCURVE",
"266 269 CURVE SMOOTH",
"266 276 OFFCURVE",
"266 282 OFFCURVE",
"267 287 CURVE",
"267 288 OFFCURVE",
"267 289 OFFCURVE",
"268 290 CURVE",
"268 291 OFFCURVE",
"268 291 OFFCURVE",
"268 292 CURVE",
"273 304 OFFCURVE",
"280 314 OFFCURVE",
"289 321 CURVE",
"285 336 OFFCURVE",
"281 348 OFFCURVE",
"270 353 CURVE",
"270 353 OFFCURVE",
"270 353 OFFCURVE",
"269 354 CURVE",
"268 354 OFFCURVE",
"268 354 OFFCURVE",
"267 354 CURVE SMOOTH",
"265 354 OFFCURVE",
"264 354 OFFCURVE",
"263 353 CURVE",
"262 353 OFFCURVE",
"262 353 OFFCURVE",
"261 352 CURVE",
"258 351 OFFCURVE",
"246 344 OFFCURVE",
"239 343 CURVE",
"236 333 LINE",
"234 324 OFFCURVE",
"228 319 OFFCURVE",
"217 319 CURVE SMOOTH",
"215 319 LINE",
"204 320 OFFCURVE",
"198 327 OFFCURVE",
"197 338 CURVE",
"197 341 OFFCURVE",
"197 345 OFFCURVE",
"196 351 CURVE SMOOTH",
"195 356 OFFCURVE",
"194 361 OFFCURVE",
"194 365 CURVE SMOOTH",
"194 371 OFFCURVE",
"195 376 OFFCURVE",
"196 381 CURVE",
"200 393 OFFCURVE",
"204 404 OFFCURVE",
"207 413 CURVE SMOOTH",
"213 432 OFFCURVE",
"224 454 OFFCURVE",
"240 474 CURVE",
"261 497 OFFCURVE",
"288 512 OFFCURVE",
"321 520 CURVE",
"336 523 OFFCURVE",
"347 524 OFFCURVE",
"354 524 CURVE SMOOTH",
"386 524 OFFCURVE",
"423 504 OFFCURVE",
"442 489 CURVE",
"451 481 OFFCURVE",
"462 471 OFFCURVE",
"473 459 CURVE",
"484 446 OFFCURVE",
"491 438 OFFCURVE",
"496 433 CURVE",
"508 422 OFFCURVE",
"524 404 OFFCURVE",
"545 380 CURVE SMOOTH",
"585 331 OFFCURVE",
"623 306 OFFCURVE",
"660 284 CURVE SMOOTH",
"679 273 OFFCURVE",
"701 260 OFFCURVE",
"728 246 CURVE SMOOTH",
"754 232 OFFCURVE",
"775 220 OFFCURVE",
"791 211 CURVE SMOOTH",
"956 119 LINE SMOOTH",
"969 112 OFFCURVE",
"990 109 OFFCURVE",
"1019 109 CURVE SMOOTH",
"1047 109 OFFCURVE",
"1069 106 OFFCURVE",
"1086 100 CURVE",
"1095 98 OFFCURVE",
"1099 92 OFFCURVE",
"1100 83 CURVE",
"1100 21 LINE SMOOTH",
"1100 20 OFFCURVE",
"1100 18 OFFCURVE",
"1101 17 CURVE",
"1101 15 OFFCURVE",
"1101 14 OFFCURVE",
"1101 13 CURVE SMOOTH",
"1101 10 OFFCURVE",
"1100 7 OFFCURVE",
"1098 6 CURVE",
"1094 2 OFFCURVE",
"1089 0 OFFCURVE",
"1084 0 CURVE SMOOTH",
"117 0 LINE SMOOTH",
"116 0 OFFCURVE",
"115 0 OFFCURVE",
"113 0 CURVE SMOOTH",
"111 0 OFFCURVE",
"110 0 OFFCURVE",
"109 0 CURVE SMOOTH",
"104 0 OFFCURVE",
"100 4 OFFCURVE",
"100 8 CURVE SMOOTH",
"100 9 OFFCURVE",
"100 12 OFFCURVE",
"101 17 CURVE",
"101 83 LINE SMOOTH",
"101 94 OFFCURVE",
"110 102 OFFCURVE",
"121 102 CURVE SMOOTH"
);
},
{
closed = 1;
nodes = (
"139 62 LINE",
"139 40 LINE",
"1061 40 LINE",
"1061 66 LINE",
"1053 68 OFFCURVE",
"1034 70 OFFCURVE",
"1005 71 CURVE SMOOTH",
"975 72 OFFCURVE",
"953 77 OFFCURVE",
"938 84 CURVE",
"772 176 LINE SMOOTH",
"758 184 OFFCURVE",
"737 195 OFFCURVE",
"710 210 CURVE SMOOTH",
"654 239 OFFCURVE",
"621 259 OFFCURVE",
"578 291 CURVE SMOOTH",
"559 306 OFFCURVE",
"538 326 OFFCURVE",
"515 353 CURVE SMOOTH",
"492 379 OFFCURVE",
"477 396 OFFCURVE",
"468 404 CURVE",
"462 410 OFFCURVE",
"455 417 OFFCURVE",
"448 426 CURVE",
"432 443 OFFCURVE",
"427 449 OFFCURVE",
"413 461 CURVE",
"399 472 OFFCURVE",
"379 484 OFFCURVE",
"354 484 CURVE SMOOTH",
"347 484 OFFCURVE",
"339 483 OFFCURVE",
"329 481 CURVE",
"280 469 OFFCURVE",
"256 438 OFFCURVE",
"240 387 CURVE",
"243 388 OFFCURVE",
"245 389 OFFCURVE",
"247 390 CURVE SMOOTH",
"249 391 OFFCURVE",
"250 391 OFFCURVE",
"251 391 CURVE",
"257 393 OFFCURVE",
"262 394 OFFCURVE",
"267 394 CURVE SMOOTH",
"270 394 OFFCURVE",
"271 394 OFFCURVE",
"272 393 CURVE",
"277 393 OFFCURVE",
"282 391 OFFCURVE",
"288 388 CURVE",
"308 379 OFFCURVE",
"317 363 OFFCURVE",
"325 343 CURVE",
"328 333 OFFCURVE",
"331 326 OFFCURVE",
"334 322 CURVE",
"336 318 OFFCURVE",
"337 314 OFFCURVE",
"337 311 CURVE SMOOTH",
"337 308 OFFCURVE",
"336 306 OFFCURVE",
"335 303 CURVE",
"332 296 OFFCURVE",
"327 292 OFFCURVE",
"320 291 CURVE",
"308 290 OFFCURVE",
"306 277 OFFCURVE",
"306 269 CURVE SMOOTH",
"306 263 LINE",
"307 262 OFFCURVE",
"308 259 OFFCURVE",
"308 258 CURVE",
"314 246 OFFCURVE",
"317 239 OFFCURVE",
"317 238 CURVE",
"320 234 OFFCURVE",
"323 229 OFFCURVE",
"327 222 CURVE SMOOTH",
"334 209 OFFCURVE",
"340 198 OFFCURVE",
"347 187 CURVE",
"364 166 OFFCURVE",
"379 148 OFFCURVE",
"400 125 CURVE SMOOTH",
"410 114 OFFCURVE",
"419 103 OFFCURVE",
"426 94 CURVE",
"429 91 OFFCURVE",
"431 87 OFFCURVE",
"431 82 CURVE SMOOTH",
"431 80 OFFCURVE",
"430 77 OFFCURVE",
"429 73 CURVE",
"425 66 OFFCURVE",
"419 62 OFFCURVE",
"410 62 CURVE SMOOTH"
);
}
);
width = 1201;
}
);
unicode = FE90;
},
{
glyphname = "beh-ar.init";
lastChange = "2013-06-18 02:59:54 +0330";
layers = (
{
layerId = "3D323242-F336-407C-B164-DE86AA499667";
name = "Regular";
paths = (
{
closed = 1;
nodes = (
"362 460 OFFCURVE",
"374 445 OFFCURVE",
"374 428 CURVE SMOOTH",
"374 412 OFFCURVE",
"361 399 OFFCURVE",
"344 399 CURVE SMOOTH",
"327 399 OFFCURVE",
"312 411 OFFCURVE",
"312 427 CURVE SMOOTH",
"312 446 OFFCURVE",
"326 460 OFFCURVE",
"345 460 CURVE SMOOTH"
);
},
{
closed = 1;
nodes = (
"366 102 LINE",
"347 123 OFFCURVE",
"330 144 OFFCURVE",
"315 163 CURVE SMOOTH",
"306 175 OFFCURVE",
"299 188 OFFCURVE",
"292 203 CURVE",
"288 210 OFFCURVE",
"285 216 OFFCURVE",
"282 219 CURVE SMOOTH",
"281 220 OFFCURVE",
"280 222 OFFCURVE",
"280 223 CURVE",
"279 226 OFFCURVE",
"277 231 OFFCURVE",
"272 239 CURVE",
"270 245 OFFCURVE",
"268 251 OFFCURVE",
"267 257 CURVE",
"267 258 OFFCURVE",
"267 259 OFFCURVE",
"267 262 CURVE",
"266 265 OFFCURVE",
"266 267 OFFCURVE",
"266 269 CURVE SMOOTH",
"266 276 OFFCURVE",
"266 282 OFFCURVE",
"267 287 CURVE",
"267 288 OFFCURVE",
"267 289 OFFCURVE",
"268 290 CURVE",
"268 291 OFFCURVE",
"268 291 OFFCURVE",
"268 292 CURVE",
"273 304 OFFCURVE",
"280 314 OFFCURVE",
"289 321 CURVE",
"285 336 OFFCURVE",
"281 348 OFFCURVE",
"270 353 CURVE",
"270 353 OFFCURVE",
"270 353 OFFCURVE",
"269 354 CURVE",
"268 354 OFFCURVE",
"268 354 OFFCURVE",
"267 354 CURVE SMOOTH",
"265 354 OFFCURVE",
"264 354 OFFCURVE",
"263 353 CURVE",
"262 353 OFFCURVE",
"262 353 OFFCURVE",
"261 352 CURVE",
"258 351 OFFCURVE",
"246 344 OFFCURVE",
"239 343 CURVE",
"236 333 LINE",
"234 324 OFFCURVE",
"228 319 OFFCURVE",
"217 319 CURVE SMOOTH",
"215 319 LINE",
"204 320 OFFCURVE",
"198 327 OFFCURVE",
"197 338 CURVE",
"197 341 OFFCURVE",
"197 345 OFFCURVE",
"196 351 CURVE SMOOTH",
"195 356 OFFCURVE",
"194 361 OFFCURVE",
"194 365 CURVE SMOOTH",
"194 371 OFFCURVE",
"195 376 OFFCURVE",
"196 381 CURVE",
"200 393 OFFCURVE",
"204 404 OFFCURVE",
"207 413 CURVE SMOOTH",
"213 432 OFFCURVE",
"224 454 OFFCURVE",
"240 474 CURVE",
"261 497 OFFCURVE",
"288 512 OFFCURVE",
"321 520 CURVE",
"336 523 OFFCURVE",
"347 524 OFFCURVE",
"354 524 CURVE SMOOTH",
"386 524 OFFCURVE",
"423 504 OFFCURVE",
"442 489 CURVE",
"451 481 OFFCURVE",
"462 471 OFFCURVE",
"473 459 CURVE",
"484 446 OFFCURVE",
"491 438 OFFCURVE",
"496 433 CURVE",
"508 422 OFFCURVE",
"524 404 OFFCURVE",
"545 380 CURVE SMOOTH",
"585 331 OFFCURVE",
"623 306 OFFCURVE",
"660 284 CURVE SMOOTH",
"679 273 OFFCURVE",
"701 260 OFFCURVE",
"728 246 CURVE SMOOTH",
"754 232 OFFCURVE",
"775 220 OFFCURVE",
"791 211 CURVE SMOOTH",
"956 119 LINE SMOOTH",
"969 112 OFFCURVE",
"990 109 OFFCURVE",
"1019 109 CURVE SMOOTH",
"1047 109 OFFCURVE",
"1069 106 OFFCURVE",
"1086 100 CURVE",
"1095 98 OFFCURVE",
"1099 92 OFFCURVE",
"1100 83 CURVE",
"1100 21 LINE SMOOTH",
"1100 20 OFFCURVE",
"1100 18 OFFCURVE",
"1101 17 CURVE",
"1101 15 OFFCURVE",
"1101 14 OFFCURVE",
"1101 13 CURVE SMOOTH",
"1101 10 OFFCURVE",
"1100 7 OFFCURVE",
"1098 6 CURVE",
"1094 2 OFFCURVE",
"1089 0 OFFCURVE",
"1084 0 CURVE SMOOTH",
"117 0 LINE SMOOTH",
"116 0 OFFCURVE",
"115 0 OFFCURVE",
"113 0 CURVE SMOOTH",
"111 0 OFFCURVE",
"110 0 OFFCURVE",
"109 0 CURVE SMOOTH",
"104 0 OFFCURVE",
"100 4 OFFCURVE",
"100 8 CURVE SMOOTH",
"100 9 OFFCURVE",
"100 12 OFFCURVE",
"101 17 CURVE",
"101 83 LINE SMOOTH",
"101 94 OFFCURVE",
"110 102 OFFCURVE",
"121 102 CURVE SMOOTH"
);
},
{
closed = 1;
nodes = (
"139 62 LINE",
"139 40 LINE",
"1061 40 LINE",
"1061 66 LINE",
"1053 68 OFFCURVE",
"1034 70 OFFCURVE",
"1005 71 CURVE SMOOTH",
"975 72 OFFCURVE",
"953 77 OFFCURVE",
"938 84 CURVE",
"772 176 LINE SMOOTH",
"758 184 OFFCURVE",
"737 195 OFFCURVE",
"710 210 CURVE SMOOTH",
"654 239 OFFCURVE",
"621 259 OFFCURVE",
"578 291 CURVE SMOOTH",
"559 306 OFFCURVE",
"538 326 OFFCURVE",
"515 353 CURVE SMOOTH",
"492 379 OFFCURVE",
"477 396 OFFCURVE",
"468 404 CURVE",
"462 410 OFFCURVE",
"455 417 OFFCURVE",
"448 426 CURVE",
"432 443 OFFCURVE",
"427 449 OFFCURVE",
"413 461 CURVE",
"399 472 OFFCURVE",
"379 484 OFFCURVE",
"354 484 CURVE SMOOTH",
"347 484 OFFCURVE",
"339 483 OFFCURVE",
"329 481 CURVE",
"280 469 OFFCURVE",
"256 438 OFFCURVE",
"240 387 CURVE",
"243 388 OFFCURVE",
"245 389 OFFCURVE",
"247 390 CURVE SMOOTH",
"249 391 OFFCURVE",
"250 391 OFFCURVE",
"251 391 CURVE",
"257 393 OFFCURVE",
"262 394 OFFCURVE",
"267 394 CURVE SMOOTH",
"270 394 OFFCURVE",
"271 394 OFFCURVE",
"272 393 CURVE",
"277 393 OFFCURVE",
"282 391 OFFCURVE",
"288 388 CURVE",
"308 379 OFFCURVE",
"317 363 OFFCURVE",
"325 343 CURVE",
"328 333 OFFCURVE",
"331 326 OFFCURVE",
"334 322 CURVE",
"336 318 OFFCURVE",
"337 314 OFFCURVE",
"337 311 CURVE SMOOTH",
"337 308 OFFCURVE",
"336 306 OFFCURVE",
"335 303 CURVE",
"332 296 OFFCURVE",
"327 292 OFFCURVE",
"320 291 CURVE",
"308 290 OFFCURVE",
"306 277 OFFCURVE",
"306 269 CURVE SMOOTH",
"306 263 LINE",
"307 262 OFFCURVE",
"308 259 OFFCURVE",
"308 258 CURVE",
"314 246 OFFCURVE",
"317 239 OFFCURVE",
"317 238 CURVE",
"320 234 OFFCURVE",
"323 229 OFFCURVE",
"327 222 CURVE SMOOTH",
"334 209 OFFCURVE",
"340 198 OFFCURVE",
"347 187 CURVE",
"364 166 OFFCURVE",
"379 148 OFFCURVE",
"400 125 CURVE SMOOTH",
"410 114 OFFCURVE",
"419 103 OFFCURVE",
"426 94 CURVE",
"429 91 OFFCURVE",
"431 87 OFFCURVE",
"431 82 CURVE SMOOTH",
"431 80 OFFCURVE",
"430 77 OFFCURVE",
"429 73 CURVE",
"425 66 OFFCURVE",
"419 62 OFFCURVE",
"410 62 CURVE SMOOTH"
);
}
);
width = 1201;
}
);
unicode = FE91;
},
{
glyphname = "beh-ar.medi";
lastChange = "2013-06-18 02:59:57 +0330";
layers = (
{
layerId = "3D323242-F336-407C-B164-DE86AA499667";
name = "Regular";
paths = (
{
closed = 1;
nodes = (
"362 460 OFFCURVE",
"374 445 OFFCURVE",
"374 428 CURVE SMOOTH",
"374 412 OFFCURVE",
"361 399 OFFCURVE",
"344 399 CURVE SMOOTH",
"327 399 OFFCURVE",
"312 411 OFFCURVE",
"312 427 CURVE SMOOTH",
"312 446 OFFCURVE",
"326 460 OFFCURVE",
"345 460 CURVE SMOOTH"
);
},
{
closed = 1;
nodes = (
"366 102 LINE",
"347 123 OFFCURVE",
"330 144 OFFCURVE",
"315 163 CURVE SMOOTH",
"306 175 OFFCURVE",
"299 188 OFFCURVE",
"292 203 CURVE",
"288 210 OFFCURVE",
"285 216 OFFCURVE",
"282 219 CURVE SMOOTH",
"281 220 OFFCURVE",
"280 222 OFFCURVE",
"280 223 CURVE",
"279 226 OFFCURVE",
"277 231 OFFCURVE",
"272 239 CURVE",
"270 245 OFFCURVE",
"268 251 OFFCURVE",
"267 257 CURVE",
"267 258 OFFCURVE",
"267 259 OFFCURVE",
"267 262 CURVE",
"266 265 OFFCURVE",
"266 267 OFFCURVE",
"266 269 CURVE SMOOTH",
"266 276 OFFCURVE",
"266 282 OFFCURVE",
"267 287 CURVE",
"267 288 OFFCURVE",
"267 289 OFFCURVE",
"268 290 CURVE",
"268 291 OFFCURVE",
"268 291 OFFCURVE",
"268 292 CURVE",
"273 304 OFFCURVE",
"280 314 OFFCURVE",
"289 321 CURVE",
"285 336 OFFCURVE",
"281 348 OFFCURVE",
"270 353 CURVE",
"270 353 OFFCURVE",
"270 353 OFFCURVE",
"269 354 CURVE",
"268 354 OFFCURVE",
"268 354 OFFCURVE",
"267 354 CURVE SMOOTH",
"265 354 OFFCURVE",
"264 354 OFFCURVE",
"263 353 CURVE",
"262 353 OFFCURVE",
"262 353 OFFCURVE",
"261 352 CURVE",
"258 351 OFFCURVE",
"246 344 OFFCURVE",
"239 343 CURVE",
"236 333 LINE",
"234 324 OFFCURVE",
"228 319 OFFCURVE",
"217 319 CURVE SMOOTH",
"215 319 LINE",
"204 320 OFFCURVE",
"198 327 OFFCURVE",
"197 338 CURVE",
"197 341 OFFCURVE",
"197 345 OFFCURVE",
"196 351 CURVE SMOOTH",
"195 356 OFFCURVE",
"194 361 OFFCURVE",
"194 365 CURVE SMOOTH",
"194 371 OFFCURVE",
"195 376 OFFCURVE",
"196 381 CURVE",
"200 393 OFFCURVE",
"204 404 OFFCURVE",
"207 413 CURVE SMOOTH",
"213 432 OFFCURVE",
"224 454 OFFCURVE",
"240 474 CURVE",
"261 497 OFFCURVE",
"288 512 OFFCURVE",
"321 520 CURVE",
"336 523 OFFCURVE",
"347 524 OFFCURVE",
"354 524 CURVE SMOOTH",
"386 524 OFFCURVE",
"423 504 OFFCURVE",
"442 489 CURVE",
"451 481 OFFCURVE",
"462 471 OFFCURVE",
"473 459 CURVE",
"484 446 OFFCURVE",
"491 438 OFFCURVE",
"496 433 CURVE",
"508 422 OFFCURVE",
"524 404 OFFCURVE",
"545 380 CURVE SMOOTH",
"585 331 OFFCURVE",
"623 306 OFFCURVE",
"660 284 CURVE SMOOTH",
"679 273 OFFCURVE",
"701 260 OFFCURVE",
"728 246 CURVE SMOOTH",
"754 232 OFFCURVE",
"775 220 OFFCURVE",
"791 211 CURVE SMOOTH",
"956 119 LINE SMOOTH",
"969 112 OFFCURVE",
"990 109 OFFCURVE",
"1019 109 CURVE SMOOTH",
"1047 109 OFFCURVE",
"1069 106 OFFCURVE",
"1086 100 CURVE",
"1095 98 OFFCURVE",
"1099 92 OFFCURVE",
"1100 83 CURVE",
"1100 21 LINE SMOOTH",
"1100 20 OFFCURVE",
"1100 18 OFFCURVE",
"1101 17 CURVE",
"1101 15 OFFCURVE",
"1101 14 OFFCURVE",
"1101 13 CURVE SMOOTH",
"1101 10 OFFCURVE",
"1100 7 OFFCURVE",
"1098 6 CURVE",
"1094 2 OFFCURVE",
"1089 0 OFFCURVE",
"1084 0 CURVE SMOOTH",
"117 0 LINE SMOOTH",
"116 0 OFFCURVE",
"115 0 OFFCURVE",
"113 0 CURVE SMOOTH",
"111 0 OFFCURVE",
"110 0 OFFCURVE",
"109 0 CURVE SMOOTH",
"104 0 OFFCURVE",
"100 4 OFFCURVE",
"100 8 CURVE SMOOTH",
"100 9 OFFCURVE",
"100 12 OFFCURVE",
"101 17 CURVE",
"101 83 LINE SMOOTH",
"101 94 OFFCURVE",
"110 102 OFFCURVE",
"121 102 CURVE SMOOTH"
);
},
{
closed = 1;
nodes = (
"139 62 LINE",
"139 40 LINE",
"1061 40 LINE",
"1061 66 LINE",
"1053 68 OFFCURVE",
"1034 70 OFFCURVE",
"1005 71 CURVE SMOOTH",
"975 72 OFFCURVE",
"953 77 OFFCURVE",
"938 84 CURVE",
"772 176 LINE SMOOTH",
"758 184 OFFCURVE",
"737 195 OFFCURVE",
"710 210 CURVE SMOOTH",
"654 239 OFFCURVE",
"621 259 OFFCURVE",
"578 291 CURVE SMOOTH",
"559 306 OFFCURVE",
"538 326 OFFCURVE",
"515 353 CURVE SMOOTH",
"492 379 OFFCURVE",
"477 396 OFFCURVE",
"468 404 CURVE",
"462 410 OFFCURVE",
"455 417 OFFCURVE",
"448 426 CURVE",
"432 443 OFFCURVE",
"427 449 OFFCURVE",
"413 461 CURVE",
"399 472 OFFCURVE",
"379 484 OFFCURVE",
"354 484 CURVE SMOOTH",
"347 484 OFFCURVE",
"339 483 OFFCURVE",
"329 481 CURVE",
"280 469 OFFCURVE",
"256 438 OFFCURVE",
"240 387 CURVE",
"243 388 OFFCURVE",
"245 389 OFFCURVE",
"247 390 CURVE SMOOTH",
"249 391 OFFCURVE",
"250 391 OFFCURVE",
"251 391 CURVE",
"257 393 OFFCURVE",
"262 394 OFFCURVE",
"267 394 CURVE SMOOTH",
"270 394 OFFCURVE",
"271 394 OFFCURVE",
"272 393 CURVE",
"277 393 OFFCURVE",
"282 391 OFFCURVE",
"288 388 CURVE",
"308 379 OFFCURVE",
"317 363 OFFCURVE",
"325 343 CURVE",
"328 333 OFFCURVE",
"331 326 OFFCURVE",
"334 322 CURVE",
"336 318 OFFCURVE",
"337 314 OFFCURVE",
"337 311 CURVE SMOOTH",
"337 308 OFFCURVE",
"336 306 OFFCURVE",
"335 303 CURVE",
"332 296 OFFCURVE",
"327 292 OFFCURVE",
"320 291 CURVE",
"308 290 OFFCURVE",
"306 277 OFFCURVE",
"306 269 CURVE SMOOTH",
"306 263 LINE",
"307 262 OFFCURVE",
"308 259 OFFCURVE",
"308 258 CURVE",
"314 246 OFFCURVE",
"317 239 OFFCURVE",
"317 238 CURVE",
"320 234 OFFCURVE",
"323 229 OFFCURVE",
"327 222 CURVE SMOOTH",
"334 209 OFFCURVE",
"340 198 OFFCURVE",
"347 187 CURVE",
"364 166 OFFCURVE",
"379 148 OFFCURVE",
"400 125 CURVE SMOOTH",
"410 114 OFFCURVE",
"419 103 OFFCURVE",
"426 94 CURVE",
"429 91 OFFCURVE",
"431 87 OFFCURVE",
"431 82 CURVE SMOOTH",
"431 80 OFFCURVE",
"430 77 OFFCURVE",
"429 73 CURVE",
"425 66 OFFCURVE",
"419 62 OFFCURVE",
"410 62 CURVE SMOOTH"
);
}
);
width = 1201;
}
);
unicode = FE92;
},
{
glyphname = "peh-ar";
lastChange = "2013-06-18 03:00:46 +0330";
layers = (
{
layerId = "3D323242-F336-407C-B164-DE86AA499667";
name = "Regular";
paths = (
{
closed = 1;
nodes = (
"373 176 LINE",
"357 193 OFFCURVE",
"340 214 OFFCURVE",
"322 238 CURVE SMOOTH",
"310 254 OFFCURVE",
"290 290 OFFCURVE",
"289 293 CURVE SMOOTH",
"288 296 OFFCURVE",
"287 297 OFFCURVE",
"287 298 CURVE",
"279 314 LINE",
"276 321 OFFCURVE",
"275 327 OFFCURVE",
"274 332 CURVE",
"274 333 OFFCURVE",
"274 334 OFFCURVE",
"274 337 CURVE",
"273 339 OFFCURVE",
"273 341 OFFCURVE",
"273 343 CURVE SMOOTH",
"273 350 OFFCURVE",
"273 356 OFFCURVE",
"274 361 CURVE",
"274 362 OFFCURVE",
"274 363 OFFCURVE",
"275 364 CURVE",
"275 365 OFFCURVE",
"275 366 OFFCURVE",
"275 367 CURVE",
"282 380 OFFCURVE",
"289 390 OFFCURVE",
"297 395 CURVE",
"292 410 OFFCURVE",
"288 422 OFFCURVE",
"277 427 CURVE",
"276 428 OFFCURVE",
"275 428 OFFCURVE",
"274 428 CURVE SMOOTH",
"270 428 LINE",
"269 427 OFFCURVE",
"269 427 OFFCURVE",
"268 427 CURVE",
"264 426 OFFCURVE",
"251 420 OFFCURVE",
"246 417 CURVE",
"243 408 LINE",
"241 398 OFFCURVE",
"235 393 OFFCURVE",
"224 393 CURVE SMOOTH",
"222 393 LINE",
"211 395 OFFCURVE",
"205 401 OFFCURVE",
"204 412 CURVE",
"204 415 OFFCURVE",
"204 419 OFFCURVE",
"203 425 CURVE SMOOTH",
"202 430 OFFCURVE",
"201 435 OFFCURVE",
"201 439 CURVE SMOOTH",
"201 446 OFFCURVE",
"202 451 OFFCURVE",
"203 455 CURVE",
"207 467 OFFCURVE",
"211 478 OFFCURVE",
"214 488 CURVE SMOOTH",
"220 507 OFFCURVE",
"231 529 OFFCURVE",
"247 548 CURVE SMOOTH",
"268 572 OFFCURVE",
"295 587 OFFCURVE",
"328 594 CURVE",
"338 597 OFFCURVE",
"349 598 OFFCURVE",
"361 598 CURVE SMOOTH",
"396 598 OFFCURVE",
"430 579 OFFCURVE",
"448 564 CURVE SMOOTH",
"457 556 OFFCURVE",
"467 546 OFFCURVE",
"479 533 CURVE SMOOTH",
"491 520 OFFCURVE",
"499 511 OFFCURVE",
"503 507 CURVE SMOOTH",
"554 458 OFFCURVE",
"646 390 OFFCURVE",
"706 346 CURVE SMOOTH",
"735 324 OFFCURVE",
"766 304 OFFCURVE",
"798 285 CURVE SMOOTH",
"963 194 LINE SMOOTH",
"976 187 OFFCURVE",
"996 184 OFFCURVE",
"1023 184 CURVE SMOOTH",
"1026 184 LINE SMOOTH",
"1054 184 OFFCURVE",
"1076 181 OFFCURVE",
"1093 175 CURVE SMOOTH",
"1102 172 OFFCURVE",
"1106 166 OFFCURVE",
"1107 157 CURVE",
"1107 95 LINE SMOOTH",
"1107 94 OFFCURVE",
"1107 93 OFFCURVE",
"1108 92 CURVE",
"1108 90 OFFCURVE",
"1108 88 OFFCURVE",
"1108 87 CURVE SMOOTH",
"1108 84 OFFCURVE",
"1107 82 OFFCURVE",
"1105 80 CURVE SMOOTH",
"1101 76 OFFCURVE",
"1096 74 OFFCURVE",
"1091 74 CURVE SMOOTH",
"162 74 LINE",
"162 54 LINE",
"1075 54 LINE SMOOTH",
"1086 54 OFFCURVE",
"1095 45 OFFCURVE",
"1095 34 CURVE SMOOTH",
"1095 29 OFFCURVE",
"1092 25 OFFCURVE",
"1085 21 CURVE",
"1075 14 LINE",
"761 14 LINE",
"766 5 OFFCURVE",
"770 -2 OFFCURVE",
"775 -9 CURVE",
"783 -23 OFFCURVE",
"790 -43 OFFCURVE",
"790 -62 CURVE SMOOTH",
"790 -70 OFFCURVE",
"788 -92 OFFCURVE",
"777 -106 CURVE",
"765 -120 OFFCURVE",
"758 -122 OFFCURVE",
"735 -132 CURVE SMOOTH",
"723 -137 OFFCURVE",
"714 -141 OFFCURVE",
"708 -144 CURVE",
"700 -175 OFFCURVE",
"678 -196 OFFCURVE",
"651 -196 CURVE SMOOTH",
"647 -196 LINE",
"638 -195 OFFCURVE",
"630 -194 OFFCURVE",
"623 -193 CURVE",
"623 -250 LINE",
"569 -251 LINE",
"568 -170 LINE",
"557 -164 OFFCURVE",
"543 -153 OFFCURVE",
"524 -138 CURVE SMOOTH",
"505 -123 OFFCURVE",
"492 -113 OFFCURVE",
"487 -109 CURVE",
"452 -84 OFFCURVE",
"428 -60 OFFCURVE",
"395 -26 CURVE SMOOTH",
"378 -9 OFFCURVE",
"365 4 OFFCURVE",
"354 14 CURVE",
"162 14 LINE",
"162 9 LINE",
"159 6 OFFCURVE",
"157 0 OFFCURVE",
"155 -7 CURVE SMOOTH",
"150 -23 OFFCURVE",
"146 -32 OFFCURVE",
"135 -32 CURVE SMOOTH",
"134 -32 OFFCURVE",
"134 -32 OFFCURVE",
"133 -31 CURVE",
"121 -31 OFFCURVE",
"116 -20 OFFCURVE",
"112 -4 CURVE",
"109 4 OFFCURVE",
"107 10 OFFCURVE",
"104 14 CURVE",
"104 22 LINE",
"101 25 OFFCURVE",
"100 29 OFFCURVE",
"100 34 CURVE SMOOTH",
"100 39 OFFCURVE",
"101 43 OFFCURVE",
"104 46 CURVE",
"104 209 LINE",
"161 209 LINE",
"161 176 LINE"
);
},
{
closed = 1;
nodes = (
"368 535 OFFCURVE",
"381 519 OFFCURVE",
"381 502 CURVE SMOOTH",
"381 486 OFFCURVE",
"367 473 OFFCURVE",
"351 473 CURVE SMOOTH",
"334 473 OFFCURVE",
"319 485 OFFCURVE",
"319 501 CURVE SMOOTH",
"319 520 OFFCURVE",
"333 535 OFFCURVE",
"352 535 CURVE SMOOTH"
);
},
{
closed = 1;
nodes = (
"622 14 LINE",
"623 -162 LINE",
"629 -163 OFFCURVE",
"638 -165 OFFCURVE",
"649 -166 CURVE",
"651 -166 LINE SMOOTH",
"672 -166 OFFCURVE",
"683 -137 OFFCURVE",
"683 -114 CURVE SMOOTH",
"683 -113 LINE",
"683 -101 LINE",
"683 -90 LINE SMOOTH",
"683 -49 OFFCURVE",
"679 -34 OFFCURVE",
"647 14 CURVE"
);
},
{
closed = 1;
nodes = (
"567 14 LINE",
"397 14 LINE",
"446 -35 OFFCURVE",
"482 -68 OFFCURVE",
"505 -85 CURVE SMOOTH",
"513 -91 OFFCURVE",
"524 -99 OFFCURVE",
"538 -110 CURVE",
"551 -121 OFFCURVE",
"561 -129 OFFCURVE",
"568 -134 CURVE"
);
},
{
closed = 1;
nodes = (
"682 14 LINE",
"709 -29 OFFCURVE",
"713 -47 OFFCURVE",
"713 -86 CURVE SMOOTH",
"713 -108 LINE",
"713 -109 LINE",
"722 -105 OFFCURVE",
"729 -102 OFFCURVE",
"736 -100 CURVE",
"748 -96 OFFCURVE",
"756 -87 OFFCURVE",
"759 -74 CURVE",
"760 -71 OFFCURVE",
"760 -67 OFFCURVE",
"760 -62 CURVE SMOOTH",
"760 -46 OFFCURVE",
"754 -33 OFFCURVE",
"741 -10 CURVE",
"734 1 OFFCURVE",
"730 9 OFFCURVE",
"727 14 CURVE"
);
},
{
closed = 1;
nodes = (
"162 114 LINE",
"1068 114 LINE",
"1068 141 LINE",
"1060 143 OFFCURVE",
"1041 145 OFFCURVE",
"1012 146 CURVE SMOOTH",
"982 147 OFFCURVE",
"960 151 OFFCURVE",
"945 158 CURVE",
"779 250 LINE SMOOTH",
"716 286 OFFCURVE",
"656 332 OFFCURVE",
"595 380 CURVE SMOOTH",
"542 420 OFFCURVE",
"502 453 OFFCURVE",
"475 479 CURVE SMOOTH",
"469 485 OFFCURVE",
"461 494 OFFCURVE",
"450 506 CURVE SMOOTH",
"429 529 OFFCURVE",
"417 538 OFFCURVE",
"396 549 CURVE",
"384 556 OFFCURVE",
"372 559 OFFCURVE",
"361 559 CURVE SMOOTH",
"353 559 OFFCURVE",
"345 558 OFFCURVE",
"336 555 CURVE",
"287 546 OFFCURVE",
"263 514 OFFCURVE",
"247 461 CURVE",
"250 462 OFFCURVE",
"252 463 OFFCURVE",
"254 464 CURVE SMOOTH",
"256 465 OFFCURVE",
"257 465 OFFCURVE",
"258 466 CURVE",
"262 467 OFFCURVE",
"266 468 OFFCURVE",
"270 468 CURVE SMOOTH",
"271 468 OFFCURVE",
"272 468 OFFCURVE",
"273 468 CURVE SMOOTH",
"274 468 OFFCURVE",
"274 468 OFFCURVE",
"274 468 CURVE",
"279 468 LINE",
"284 467 OFFCURVE",
"289 466 OFFCURVE",
"295 463 CURVE",
"315 454 OFFCURVE",
"324 438 OFFCURVE",
"332 418 CURVE",
"335 407 OFFCURVE",
"338 400 OFFCURVE",
"341 396 CURVE",
"343 393 OFFCURVE",
"344 389 OFFCURVE",
"344 385 CURVE SMOOTH",
"344 384 OFFCURVE",
"343 381 OFFCURVE",
"342 377 CURVE",
"339 370 OFFCURVE",
"334 367 OFFCURVE",
"327 366 CURVE",
"315 363 OFFCURVE",
"313 352 OFFCURVE",
"313 343 CURVE SMOOTH",
"313 337 LINE",
"314 336 OFFCURVE",
"314 336 OFFCURVE",
"314 335 CURVE SMOOTH",
"314 334 OFFCURVE",
"314 333 OFFCURVE",
"315 332 CURVE",
"320 323 OFFCURVE",
"323 316 OFFCURVE",
"324 312 CURVE",
"342 281 OFFCURVE",
"352 264 OFFCURVE",
"354 262 CURVE",
"361 253 OFFCURVE",
"387 222 OFFCURVE",
"433 169 CURVE",
"436 164 OFFCURVE",
"438 160 OFFCURVE",
"438 156 CURVE SMOOTH",
"438 155 OFFCURVE",
"437 152 OFFCURVE",
"436 148 CURVE",
"432 140 OFFCURVE",
"426 136 OFFCURVE",
"417 136 CURVE SMOOTH",
"162 136 LINE"
);
}
);
width = 1208;
}
);
unicode = 067E;
},
{
glyphname = "peh-ar.fina";
lastChange = "2013-06-18 03:01:04 +0330";
layers = (
{
layerId = "3D323242-F336-407C-B164-DE86AA499667";
name = "Regular";
paths = (
{
closed = 1;
nodes = (
"373 176 LINE",
"357 193 OFFCURVE",
"340 214 OFFCURVE",
"322 238 CURVE SMOOTH",
"310 254 OFFCURVE",
"290 290 OFFCURVE",
"289 293 CURVE SMOOTH",
"288 296 OFFCURVE",
"287 297 OFFCURVE",
"287 298 CURVE",
"279 314 LINE",
"276 321 OFFCURVE",
"275 327 OFFCURVE",
"274 332 CURVE",
"274 333 OFFCURVE",
"274 334 OFFCURVE",
"274 337 CURVE",
"273 339 OFFCURVE",
"273 341 OFFCURVE",
"273 343 CURVE SMOOTH",
"273 350 OFFCURVE",
"273 356 OFFCURVE",
"274 361 CURVE",
"274 362 OFFCURVE",
"274 363 OFFCURVE",
"275 364 CURVE",
"275 365 OFFCURVE",
"275 366 OFFCURVE",
"275 367 CURVE",
"282 380 OFFCURVE",
"289 390 OFFCURVE",
"297 395 CURVE",
"292 410 OFFCURVE",
"288 422 OFFCURVE",
"277 427 CURVE",
"276 428 OFFCURVE",
"275 428 OFFCURVE",
"274 428 CURVE SMOOTH",
"270 428 LINE",
"269 427 OFFCURVE",
"269 427 OFFCURVE",
"268 427 CURVE",
"264 426 OFFCURVE",
"251 420 OFFCURVE",
"246 417 CURVE",
"243 408 LINE",
"241 398 OFFCURVE",
"235 393 OFFCURVE",
"224 393 CURVE SMOOTH",
"222 393 LINE",
"211 395 OFFCURVE",
"205 401 OFFCURVE",
"204 412 CURVE",
"204 415 OFFCURVE",
"204 419 OFFCURVE",
"203 425 CURVE SMOOTH",
"202 430 OFFCURVE",
"201 435 OFFCURVE",
"201 439 CURVE SMOOTH",
"201 446 OFFCURVE",
"202 451 OFFCURVE",
"203 455 CURVE",
"207 467 OFFCURVE",
"211 478 OFFCURVE",
"214 488 CURVE SMOOTH",
"220 507 OFFCURVE",
"231 529 OFFCURVE",
"247 548 CURVE SMOOTH",
"268 572 OFFCURVE",
"295 587 OFFCURVE",
"328 594 CURVE",
"338 597 OFFCURVE",
"349 598 OFFCURVE",
"361 598 CURVE SMOOTH",
"396 598 OFFCURVE",
"430 579 OFFCURVE",
"448 564 CURVE SMOOTH",
"457 556 OFFCURVE",
"467 546 OFFCURVE",
"479 533 CURVE SMOOTH",
"491 520 OFFCURVE",
"499 511 OFFCURVE",
"503 507 CURVE SMOOTH",
"554 458 OFFCURVE",
"646 390 OFFCURVE",
"706 346 CURVE SMOOTH",
"735 324 OFFCURVE",
"766 304 OFFCURVE",
"798 285 CURVE SMOOTH",
"963 194 LINE SMOOTH",
"976 187 OFFCURVE",
"996 184 OFFCURVE",
"1023 184 CURVE SMOOTH",
"1026 184 LINE SMOOTH",
"1054 184 OFFCURVE",
"1076 181 OFFCURVE",
"1093 175 CURVE SMOOTH",
"1102 172 OFFCURVE",
"1106 166 OFFCURVE",
"1107 157 CURVE",
"1107 95 LINE SMOOTH",
"1107 94 OFFCURVE",
"1107 93 OFFCURVE",
"1108 92 CURVE",
"1108 90 OFFCURVE",
"1108 88 OFFCURVE",
"1108 87 CURVE SMOOTH",
"1108 84 OFFCURVE",
"1107 82 OFFCURVE",
"1105 80 CURVE SMOOTH",
"1101 76 OFFCURVE",
"1096 74 OFFCURVE",
"1091 74 CURVE SMOOTH",
"162 74 LINE",
"162 54 LINE",
"1075 54 LINE SMOOTH",
"1086 54 OFFCURVE",
"1095 45 OFFCURVE",
"1095 34 CURVE SMOOTH",
"1095 29 OFFCURVE",
"1092 25 OFFCURVE",
"1085 21 CURVE",
"1075 14 LINE",
"761 14 LINE",
"766 5 OFFCURVE",
"770 -2 OFFCURVE",
"775 -9 CURVE",
"783 -23 OFFCURVE",
"790 -43 OFFCURVE",
"790 -62 CURVE SMOOTH",
"790 -70 OFFCURVE",
"788 -92 OFFCURVE",
"777 -106 CURVE",
"765 -120 OFFCURVE",
"758 -122 OFFCURVE",
"735 -132 CURVE SMOOTH",
"723 -137 OFFCURVE",
"714 -141 OFFCURVE",
"708 -144 CURVE",
"700 -175 OFFCURVE",
"678 -196 OFFCURVE",
"651 -196 CURVE SMOOTH",
"647 -196 LINE",
"638 -195 OFFCURVE",
"630 -194 OFFCURVE",
"623 -193 CURVE",
"623 -250 LINE",
"569 -251 LINE",
"568 -170 LINE",
"557 -164 OFFCURVE",
"543 -153 OFFCURVE",
"524 -138 CURVE SMOOTH",
"505 -123 OFFCURVE",
"492 -113 OFFCURVE",
"487 -109 CURVE",
"452 -84 OFFCURVE",
"428 -60 OFFCURVE",
"395 -26 CURVE SMOOTH",
"378 -9 OFFCURVE",
"365 4 OFFCURVE",
"354 14 CURVE",
"162 14 LINE",
"162 9 LINE",
"159 6 OFFCURVE",
"157 0 OFFCURVE",
"155 -7 CURVE SMOOTH",
"150 -23 OFFCURVE",
"146 -32 OFFCURVE",
"135 -32 CURVE SMOOTH",
"134 -32 OFFCURVE",
"134 -32 OFFCURVE",
"133 -31 CURVE",
"121 -31 OFFCURVE",
"116 -20 OFFCURVE",
"112 -4 CURVE",
"109 4 OFFCURVE",
"107 10 OFFCURVE",
"104 14 CURVE",
"104 22 LINE",
"101 25 OFFCURVE",
"100 29 OFFCURVE",
"100 34 CURVE SMOOTH",
"100 39 OFFCURVE",
"101 43 OFFCURVE",
"104 46 CURVE",
"104 209 LINE",
"161 209 LINE",
"161 176 LINE"
);
},
{
closed = 1;
nodes = (
"368 535 OFFCURVE",
"381 519 OFFCURVE",
"381 502 CURVE SMOOTH",
"381 486 OFFCURVE",
"367 473 OFFCURVE",
"351 473 CURVE SMOOTH",
"334 473 OFFCURVE",
"319 485 OFFCURVE",
"319 501 CURVE SMOOTH",
"319 520 OFFCURVE",
"333 535 OFFCURVE",
"352 535 CURVE SMOOTH"
);
},
{
closed = 1;
nodes = (
"622 14 LINE",
"623 -162 LINE",
"629 -163 OFFCURVE",
"638 -165 OFFCURVE",
"649 -166 CURVE",
"651 -166 LINE SMOOTH",
"672 -166 OFFCURVE",
"683 -137 OFFCURVE",
"683 -114 CURVE SMOOTH",
"683 -113 LINE",
"683 -101 LINE",
"683 -90 LINE SMOOTH",
"683 -49 OFFCURVE",
"679 -34 OFFCURVE",
"647 14 CURVE"
);
},
{
closed = 1;
nodes = (
"567 14 LINE",
"397 14 LINE",
"446 -35 OFFCURVE",
"482 -68 OFFCURVE",
"505 -85 CURVE SMOOTH",
"513 -91 OFFCURVE",
"524 -99 OFFCURVE",
"538 -110 CURVE",
"551 -121 OFFCURVE",
"561 -129 OFFCURVE",
"568 -134 CURVE"
);
},
{
closed = 1;
nodes = (
"682 14 LINE",
"709 -29 OFFCURVE",
"713 -47 OFFCURVE",
"713 -86 CURVE SMOOTH",
"713 -108 LINE",
"713 -109 LINE",
"722 -105 OFFCURVE",
"729 -102 OFFCURVE",
"736 -100 CURVE",
"748 -96 OFFCURVE",
"756 -87 OFFCURVE",
"759 -74 CURVE",
"760 -71 OFFCURVE",
"760 -67 OFFCURVE",
"760 -62 CURVE SMOOTH",
"760 -46 OFFCURVE",
"754 -33 OFFCURVE",
"741 -10 CURVE",
"734 1 OFFCURVE",
"730 9 OFFCURVE",
"727 14 CURVE"
);
},
{
closed = 1;
nodes = (
"162 114 LINE",
"1068 114 LINE",
"1068 141 LINE",
"1060 143 OFFCURVE",
"1041 145 OFFCURVE",
"1012 146 CURVE SMOOTH",
"982 147 OFFCURVE",
"960 151 OFFCURVE",
"945 158 CURVE",
"779 250 LINE SMOOTH",
"716 286 OFFCURVE",
"656 332 OFFCURVE",
"595 380 CURVE SMOOTH",
"542 420 OFFCURVE",
"502 453 OFFCURVE",
"475 479 CURVE SMOOTH",
"469 485 OFFCURVE",
"461 494 OFFCURVE",
"450 506 CURVE SMOOTH",
"429 529 OFFCURVE",
"417 538 OFFCURVE",
"396 549 CURVE",
"384 556 OFFCURVE",
"372 559 OFFCURVE",
"361 559 CURVE SMOOTH",
"353 559 OFFCURVE",
"345 558 OFFCURVE",
"336 555 CURVE",
"287 546 OFFCURVE",
"263 514 OFFCURVE",
"247 461 CURVE",
"250 462 OFFCURVE",
"252 463 OFFCURVE",
"254 464 CURVE SMOOTH",
"256 465 OFFCURVE",
"257 465 OFFCURVE",
"258 466 CURVE",
"262 467 OFFCURVE",
"266 468 OFFCURVE",
"270 468 CURVE SMOOTH",
"271 468 OFFCURVE",
"272 468 OFFCURVE",
"273 468 CURVE SMOOTH",
"274 468 OFFCURVE",
"274 468 OFFCURVE",
"274 468 CURVE",
"279 468 LINE",
"284 467 OFFCURVE",
"289 466 OFFCURVE",
"295 463 CURVE",
"315 454 OFFCURVE",
"324 438 OFFCURVE",
"332 418 CURVE",
"335 407 OFFCURVE",
"338 400 OFFCURVE",
"341 396 CURVE",
"343 393 OFFCURVE",
"344 389 OFFCURVE",
"344 385 CURVE SMOOTH",
"344 384 OFFCURVE",
"343 381 OFFCURVE",
"342 377 CURVE",
"339 370 OFFCURVE",
"334 367 OFFCURVE",
"327 366 CURVE",
"315 363 OFFCURVE",
"313 352 OFFCURVE",
"313 343 CURVE SMOOTH",
"313 337 LINE",
"314 336 OFFCURVE",
"314 336 OFFCURVE",
"314 335 CURVE SMOOTH",
"314 334 OFFCURVE",
"314 333 OFFCURVE",
"315 332 CURVE",
"320 323 OFFCURVE",
"323 316 OFFCURVE",
"324 312 CURVE",
"342 281 OFFCURVE",
"352 264 OFFCURVE",
"354 262 CURVE",
"361 253 OFFCURVE",
"387 222 OFFCURVE",
"433 169 CURVE",
"436 164 OFFCURVE",
"438 160 OFFCURVE",
"438 156 CURVE SMOOTH",
"438 155 OFFCURVE",
"437 152 OFFCURVE",
"436 148 CURVE",
"432 140 OFFCURVE",
"426 136 OFFCURVE",
"417 136 CURVE SMOOTH",
"162 136 LINE"
);
}
);
width = 1208;
}
);
unicode = FB57;
},
{
glyphname = "peh-ar.init";
lastChange = "2013-06-18 03:00:58 +0330";
layers = (
{
layerId = "3D323242-F336-407C-B164-DE86AA499667";
name = "Regular";
paths = (
{
closed = 1;
nodes = (
"373 176 LINE",
"357 193 OFFCURVE",
"340 214 OFFCURVE",
"322 238 CURVE SMOOTH",
"310 254 OFFCURVE",
"290 290 OFFCURVE",
"289 293 CURVE SMOOTH",
"288 296 OFFCURVE",
"287 297 OFFCURVE",
"287 298 CURVE",
"279 314 LINE",
"276 321 OFFCURVE",
"275 327 OFFCURVE",
"274 332 CURVE",
"274 333 OFFCURVE",
"274 334 OFFCURVE",
"274 337 CURVE",
"273 339 OFFCURVE",
"273 341 OFFCURVE",
"273 343 CURVE SMOOTH",
"273 350 OFFCURVE",
"273 356 OFFCURVE",
"274 361 CURVE",
"274 362 OFFCURVE",
"274 363 OFFCURVE",
"275 364 CURVE",
"275 365 OFFCURVE",
"275 366 OFFCURVE",
"275 367 CURVE",
"282 380 OFFCURVE",
"289 390 OFFCURVE",
"297 395 CURVE",
"292 410 OFFCURVE",
"288 422 OFFCURVE",
"277 427 CURVE",
"276 428 OFFCURVE",
"275 428 OFFCURVE",
"274 428 CURVE SMOOTH",
"270 428 LINE",
"269 427 OFFCURVE",
"269 427 OFFCURVE",
"268 427 CURVE",
"264 426 OFFCURVE",
"251 420 OFFCURVE",
"246 417 CURVE",
"243 408 LINE",
"241 398 OFFCURVE",
"235 393 OFFCURVE",
"224 393 CURVE SMOOTH",
"222 393 LINE",
"211 395 OFFCURVE",
"205 401 OFFCURVE",
"204 412 CURVE",
"204 415 OFFCURVE",
"204 419 OFFCURVE",
"203 425 CURVE SMOOTH",
"202 430 OFFCURVE",
"201 435 OFFCURVE",
"201 439 CURVE SMOOTH",
"201 446 OFFCURVE",
"202 451 OFFCURVE",
"203 455 CURVE",
"207 467 OFFCURVE",
"211 478 OFFCURVE",
"214 488 CURVE SMOOTH",
"220 507 OFFCURVE",
"231 529 OFFCURVE",
"247 548 CURVE SMOOTH",
"268 572 OFFCURVE",
"295 587 OFFCURVE",
"328 594 CURVE",
"338 597 OFFCURVE",
"349 598 OFFCURVE",
"361 598 CURVE SMOOTH",
"396 598 OFFCURVE",
"430 579 OFFCURVE",
"448 564 CURVE SMOOTH",
"457 556 OFFCURVE",
"467 546 OFFCURVE",
"479 533 CURVE SMOOTH",
"491 520 OFFCURVE",
"499 511 OFFCURVE",
"503 507 CURVE SMOOTH",
"554 458 OFFCURVE",
"646 390 OFFCURVE",
"706 346 CURVE SMOOTH",
"735 324 OFFCURVE",
"766 304 OFFCURVE",
"798 285 CURVE SMOOTH",
"963 194 LINE SMOOTH",
"976 187 OFFCURVE",
"996 184 OFFCURVE",
"1023 184 CURVE SMOOTH",
"1026 184 LINE SMOOTH",
"1054 184 OFFCURVE",
"1076 181 OFFCURVE",
"1093 175 CURVE SMOOTH",
"1102 172 OFFCURVE",
"1106 166 OFFCURVE",
"1107 157 CURVE",
"1107 95 LINE SMOOTH",
"1107 94 OFFCURVE",
"1107 93 OFFCURVE",
"1108 92 CURVE",
"1108 90 OFFCURVE",
"1108 88 OFFCURVE",
"1108 87 CURVE SMOOTH",
"1108 84 OFFCURVE",
"1107 82 OFFCURVE",
"1105 80 CURVE SMOOTH",
"1101 76 OFFCURVE",
"1096 74 OFFCURVE",
"1091 74 CURVE SMOOTH",
"162 74 LINE",
"162 54 LINE",
"1075 54 LINE SMOOTH",
"1086 54 OFFCURVE",
"1095 45 OFFCURVE",
"1095 34 CURVE SMOOTH",
"1095 29 OFFCURVE",
"1092 25 OFFCURVE",
"1085 21 CURVE",
"1075 14 LINE",
"761 14 LINE",
"766 5 OFFCURVE",
"770 -2 OFFCURVE",
"775 -9 CURVE",
"783 -23 OFFCURVE",
"790 -43 OFFCURVE",
"790 -62 CURVE SMOOTH",
"790 -70 OFFCURVE",
"788 -92 OFFCURVE",
"777 -106 CURVE",
"765 -120 OFFCURVE",
"758 -122 OFFCURVE",
"735 -132 CURVE SMOOTH",
"723 -137 OFFCURVE",
"714 -141 OFFCURVE",
"708 -144 CURVE",
"700 -175 OFFCURVE",
"678 -196 OFFCURVE",
"651 -196 CURVE SMOOTH",
"647 -196 LINE",
"638 -195 OFFCURVE",
"630 -194 OFFCURVE",
"623 -193 CURVE",
"623 -250 LINE",
"569 -251 LINE",
"568 -170 LINE",
"557 -164 OFFCURVE",
"543 -153 OFFCURVE",
"524 -138 CURVE SMOOTH",
"505 -123 OFFCURVE",
"492 -113 OFFCURVE",
"487 -109 CURVE",
"452 -84 OFFCURVE",
"428 -60 OFFCURVE",
"395 -26 CURVE SMOOTH",
"378 -9 OFFCURVE",
"365 4 OFFCURVE",
"354 14 CURVE",
"162 14 LINE",
"162 9 LINE",
"159 6 OFFCURVE",
"157 0 OFFCURVE",
"155 -7 CURVE SMOOTH",
"150 -23 OFFCURVE",
"146 -32 OFFCURVE",
"135 -32 CURVE SMOOTH",
"134 -32 OFFCURVE",
"134 -32 OFFCURVE",
"133 -31 CURVE",
"121 -31 OFFCURVE",
"116 -20 OFFCURVE",
"112 -4 CURVE",
"109 4 OFFCURVE",
"107 10 OFFCURVE",
"104 14 CURVE",
"104 22 LINE",
"101 25 OFFCURVE",
"100 29 OFFCURVE",
"100 34 CURVE SMOOTH",
"100 39 OFFCURVE",
"101 43 OFFCURVE",
"104 46 CURVE",
"104 209 LINE",
"161 209 LINE",
"161 176 LINE"
);
},
{
closed = 1;
nodes = (
"368 535 OFFCURVE",
"381 519 OFFCURVE",
"381 502 CURVE SMOOTH",
"381 486 OFFCURVE",
"367 473 OFFCURVE",
"351 473 CURVE SMOOTH",
"334 473 OFFCURVE",
"319 485 OFFCURVE",
"319 501 CURVE SMOOTH",
"319 520 OFFCURVE",
"333 535 OFFCURVE",
"352 535 CURVE SMOOTH"
);
},
{
closed = 1;
nodes = (
"622 14 LINE",
"623 -162 LINE",
"629 -163 OFFCURVE",
"638 -165 OFFCURVE",
"649 -166 CURVE",
"651 -166 LINE SMOOTH",
"672 -166 OFFCURVE",
"683 -137 OFFCURVE",
"683 -114 CURVE SMOOTH",
"683 -113 LINE",
"683 -101 LINE",
"683 -90 LINE SMOOTH",
"683 -49 OFFCURVE",
"679 -34 OFFCURVE",
"647 14 CURVE"
);
},
{
closed = 1;
nodes = (
"567 14 LINE",
"397 14 LINE",
"446 -35 OFFCURVE",
"482 -68 OFFCURVE",
"505 -85 CURVE SMOOTH",
"513 -91 OFFCURVE",
"524 -99 OFFCURVE",
"538 -110 CURVE",
"551 -121 OFFCURVE",
"561 -129 OFFCURVE",
"568 -134 CURVE"
);
},
{
closed = 1;
nodes = (
"682 14 LINE",
"709 -29 OFFCURVE",
"713 -47 OFFCURVE",
"713 -86 CURVE SMOOTH",
"713 -108 LINE",
"713 -109 LINE",
"722 -105 OFFCURVE",
"729 -102 OFFCURVE",
"736 -100 CURVE",
"748 -96 OFFCURVE",
"756 -87 OFFCURVE",
"759 -74 CURVE",
"760 -71 OFFCURVE",
"760 -67 OFFCURVE",
"760 -62 CURVE SMOOTH",
"760 -46 OFFCURVE",
"754 -33 OFFCURVE",
"741 -10 CURVE",
"734 1 OFFCURVE",
"730 9 OFFCURVE",
"727 14 CURVE"
);
},
{
closed = 1;
nodes = (
"162 114 LINE",
"1068 114 LINE",
"1068 141 LINE",
"1060 143 OFFCURVE",
"1041 145 OFFCURVE",
"1012 146 CURVE SMOOTH",
"982 147 OFFCURVE",
"960 151 OFFCURVE",
"945 158 CURVE",
"779 250 LINE SMOOTH",
"716 286 OFFCURVE",
"656 332 OFFCURVE",
"595 380 CURVE SMOOTH",
"542 420 OFFCURVE",
"502 453 OFFCURVE",
"475 479 CURVE SMOOTH",
"469 485 OFFCURVE",
"461 494 OFFCURVE",
"450 506 CURVE SMOOTH",
"429 529 OFFCURVE",
"417 538 OFFCURVE",
"396 549 CURVE",
"384 556 OFFCURVE",
"372 559 OFFCURVE",
"361 559 CURVE SMOOTH",
"353 559 OFFCURVE",
"345 558 OFFCURVE",
"336 555 CURVE",
"287 546 OFFCURVE",
"263 514 OFFCURVE",
"247 461 CURVE",
"250 462 OFFCURVE",
"252 463 OFFCURVE",
"254 464 CURVE SMOOTH",
"256 465 OFFCURVE",
"257 465 OFFCURVE",
"258 466 CURVE",
"262 467 OFFCURVE",
"266 468 OFFCURVE",
"270 468 CURVE SMOOTH",
"271 468 OFFCURVE",
"272 468 OFFCURVE",
"273 468 CURVE SMOOTH",
"274 468 OFFCURVE",
"274 468 OFFCURVE",
"274 468 CURVE",
"279 468 LINE",
"284 467 OFFCURVE",
"289 466 OFFCURVE",
"295 463 CURVE",
"315 454 OFFCURVE",
"324 438 OFFCURVE",
"332 418 CURVE",
"335 407 OFFCURVE",
"338 400 OFFCURVE",
"341 396 CURVE",
"343 393 OFFCURVE",
"344 389 OFFCURVE",
"344 385 CURVE SMOOTH",
"344 384 OFFCURVE",
"343 381 OFFCURVE",
"342 377 CURVE",
"339 370 OFFCURVE",
"334 367 OFFCURVE",
"327 366 CURVE",
"315 363 OFFCURVE",
"313 352 OFFCURVE",
"313 343 CURVE SMOOTH",
"313 337 LINE",
"314 336 OFFCURVE",
"314 336 OFFCURVE",
"314 335 CURVE SMOOTH",
"314 334 OFFCURVE",
"314 333 OFFCURVE",
"315 332 CURVE",
"320 323 OFFCURVE",
"323 316 OFFCURVE",
"324 312 CURVE",
"342 281 OFFCURVE",
"352 264 OFFCURVE",
"354 262 CURVE",
"361 253 OFFCURVE",
"387 222 OFFCURVE",
"433 169 CURVE",
"436 164 OFFCURVE",
"438 160 OFFCURVE",
"438 156 CURVE SMOOTH",
"438 155 OFFCURVE",
"437 152 OFFCURVE",
"436 148 CURVE",
"432 140 OFFCURVE",
"426 136 OFFCURVE",
"417 136 CURVE SMOOTH",
"162 136 LINE"
);
}
);
width = 1208;
}
);
unicode = FB58;
},
{
glyphname = "peh-ar.medi";
lastChange = "2013-06-18 03:01:01 +0330";
layers = (
{
layerId = "3D323242-F336-407C-B164-DE86AA499667";
name = "Regular";
paths = (
{
closed = 1;
nodes = (
"373 176 LINE",
"357 193 OFFCURVE",
"340 214 OFFCURVE",
"322 238 CURVE SMOOTH",
"310 254 OFFCURVE",
"290 290 OFFCURVE",
"289 293 CURVE SMOOTH",
"288 296 OFFCURVE",
"287 297 OFFCURVE",
"287 298 CURVE",
"279 314 LINE",
"276 321 OFFCURVE",
"275 327 OFFCURVE",
"274 332 CURVE",
"274 333 OFFCURVE",
"274 334 OFFCURVE",
"274 337 CURVE",
"273 339 OFFCURVE",
"273 341 OFFCURVE",
"273 343 CURVE SMOOTH",
"273 350 OFFCURVE",
"273 356 OFFCURVE",
"274 361 CURVE",
"274 362 OFFCURVE",
"274 363 OFFCURVE",
"275 364 CURVE",
"275 365 OFFCURVE",
"275 366 OFFCURVE",
"275 367 CURVE",
"282 380 OFFCURVE",
"289 390 OFFCURVE",
"297 395 CURVE",
"292 410 OFFCURVE",
"288 422 OFFCURVE",
"277 427 CURVE",
"276 428 OFFCURVE",
"275 428 OFFCURVE",
"274 428 CURVE SMOOTH",
"270 428 LINE",
"269 427 OFFCURVE",
"269 427 OFFCURVE",
"268 427 CURVE",
"264 426 OFFCURVE",
"251 420 OFFCURVE",
"246 417 CURVE",
"243 408 LINE",
"241 398 OFFCURVE",
"235 393 OFFCURVE",
"224 393 CURVE SMOOTH",
"222 393 LINE",
"211 395 OFFCURVE",
"205 401 OFFCURVE",
"204 412 CURVE",
"204 415 OFFCURVE",
"204 419 OFFCURVE",
"203 425 CURVE SMOOTH",
"202 430 OFFCURVE",
"201 435 OFFCURVE",
"201 439 CURVE SMOOTH",
"201 446 OFFCURVE",
"202 451 OFFCURVE",
"203 455 CURVE",
"207 467 OFFCURVE",
"211 478 OFFCURVE",
"214 488 CURVE SMOOTH",
"220 507 OFFCURVE",
"231 529 OFFCURVE",
"247 548 CURVE SMOOTH",
"268 572 OFFCURVE",
"295 587 OFFCURVE",
"328 594 CURVE",
"338 597 OFFCURVE",
"349 598 OFFCURVE",
"361 598 CURVE SMOOTH",
"396 598 OFFCURVE",
"430 579 OFFCURVE",
"448 564 CURVE SMOOTH",
"457 556 OFFCURVE",
"467 546 OFFCURVE",
"479 533 CURVE SMOOTH",
"491 520 OFFCURVE",
"499 511 OFFCURVE",
"503 507 CURVE SMOOTH",
"554 458 OFFCURVE",
"646 390 OFFCURVE",
"706 346 CURVE SMOOTH",
"735 324 OFFCURVE",
"766 304 OFFCURVE",
"798 285 CURVE SMOOTH",
"963 194 LINE SMOOTH",
"976 187 OFFCURVE",
"996 184 OFFCURVE",
"1023 184 CURVE SMOOTH",
"1026 184 LINE SMOOTH",
"1054 184 OFFCURVE",
"1076 181 OFFCURVE",
"1093 175 CURVE SMOOTH",
"1102 172 OFFCURVE",
"1106 166 OFFCURVE",
"1107 157 CURVE",
"1107 95 LINE SMOOTH",
"1107 94 OFFCURVE",
"1107 93 OFFCURVE",
"1108 92 CURVE",
"1108 90 OFFCURVE",
"1108 88 OFFCURVE",
"1108 87 CURVE SMOOTH",
"1108 84 OFFCURVE",
"1107 82 OFFCURVE",
"1105 80 CURVE SMOOTH",
"1101 76 OFFCURVE",
"1096 74 OFFCURVE",
"1091 74 CURVE SMOOTH",
"162 74 LINE",
"162 54 LINE",
"1075 54 LINE SMOOTH",
"1086 54 OFFCURVE",
"1095 45 OFFCURVE",
"1095 34 CURVE SMOOTH",
"1095 29 OFFCURVE",
"1092 25 OFFCURVE",
"1085 21 CURVE",
"1075 14 LINE",
"761 14 LINE",
"766 5 OFFCURVE",
"770 -2 OFFCURVE",
"775 -9 CURVE",
"783 -23 OFFCURVE",
"790 -43 OFFCURVE",
"790 -62 CURVE SMOOTH",
"790 -70 OFFCURVE",
"788 -92 OFFCURVE",
"777 -106 CURVE",
"765 -120 OFFCURVE",
"758 -122 OFFCURVE",
"735 -132 CURVE SMOOTH",
"723 -137 OFFCURVE",
"714 -141 OFFCURVE",
"708 -144 CURVE",
"700 -175 OFFCURVE",
"678 -196 OFFCURVE",
"651 -196 CURVE SMOOTH",
"647 -196 LINE",
"638 -195 OFFCURVE",
"630 -194 OFFCURVE",
"623 -193 CURVE",
"623 -250 LINE",
"569 -251 LINE",
"568 -170 LINE",
"557 -164 OFFCURVE",
"543 -153 OFFCURVE",
"524 -138 CURVE SMOOTH",
"505 -123 OFFCURVE",
"492 -113 OFFCURVE",
"487 -109 CURVE",
"452 -84 OFFCURVE",
"428 -60 OFFCURVE",
"395 -26 CURVE SMOOTH",
"378 -9 OFFCURVE",
"365 4 OFFCURVE",
"354 14 CURVE",
"162 14 LINE",
"162 9 LINE",
"159 6 OFFCURVE",
"157 0 OFFCURVE",
"155 -7 CURVE SMOOTH",
"150 -23 OFFCURVE",
"146 -32 OFFCURVE",
"135 -32 CURVE SMOOTH",
"134 -32 OFFCURVE",
"134 -32 OFFCURVE",
"133 -31 CURVE",
"121 -31 OFFCURVE",
"116 -20 OFFCURVE",
"112 -4 CURVE",
"109 4 OFFCURVE",
"107 10 OFFCURVE",
"104 14 CURVE",
"104 22 LINE",
"101 25 OFFCURVE",
"100 29 OFFCURVE",
"100 34 CURVE SMOOTH",
"100 39 OFFCURVE",
"101 43 OFFCURVE",
"104 46 CURVE",
"104 209 LINE",
"161 209 LINE",
"161 176 LINE"
);
},
{
closed = 1;
nodes = (
"368 535 OFFCURVE",
"381 519 OFFCURVE",
"381 502 CURVE SMOOTH",
"381 486 OFFCURVE",
"367 473 OFFCURVE",
"351 473 CURVE SMOOTH",
"334 473 OFFCURVE",
"319 485 OFFCURVE",
"319 501 CURVE SMOOTH",
"319 520 OFFCURVE",
"333 535 OFFCURVE",
"352 535 CURVE SMOOTH"
);
},
{
closed = 1;
nodes = (
"622 14 LINE",
"623 -162 LINE",
"629 -163 OFFCURVE",
"638 -165 OFFCURVE",
"649 -166 CURVE",
"651 -166 LINE SMOOTH",
"672 -166 OFFCURVE",
"683 -137 OFFCURVE",
"683 -114 CURVE SMOOTH",
"683 -113 LINE",
"683 -101 LINE",
"683 -90 LINE SMOOTH",
"683 -49 OFFCURVE",
"679 -34 OFFCURVE",
"647 14 CURVE"
);
},
{
closed = 1;
nodes = (
"567 14 LINE",
"397 14 LINE",
"446 -35 OFFCURVE",
"482 -68 OFFCURVE",
"505 -85 CURVE SMOOTH",
"513 -91 OFFCURVE",
"524 -99 OFFCURVE",
"538 -110 CURVE",
"551 -121 OFFCURVE",
"561 -129 OFFCURVE",
"568 -134 CURVE"
);
},
{
closed = 1;
nodes = (
"682 14 LINE",
"709 -29 OFFCURVE",
"713 -47 OFFCURVE",
"713 -86 CURVE SMOOTH",
"713 -108 LINE",
"713 -109 LINE",
"722 -105 OFFCURVE",
"729 -102 OFFCURVE",
"736 -100 CURVE",
"748 -96 OFFCURVE",
"756 -87 OFFCURVE",
"759 -74 CURVE",
"760 -71 OFFCURVE",
"760 -67 OFFCURVE",
"760 -62 CURVE SMOOTH",
"760 -46 OFFCURVE",
"754 -33 OFFCURVE",
"741 -10 CURVE",
"734 1 OFFCURVE",
"730 9 OFFCURVE",
"727 14 CURVE"
);
},
{
closed = 1;
nodes = (
"162 114 LINE",
"1068 114 LINE",
"1068 141 LINE",
"1060 143 OFFCURVE",
"1041 145 OFFCURVE",
"1012 146 CURVE SMOOTH",
"982 147 OFFCURVE",
"960 151 OFFCURVE",
"945 158 CURVE",
"779 250 LINE SMOOTH",
"716 286 OFFCURVE",
"656 332 OFFCURVE",
"595 380 CURVE SMOOTH",
"542 420 OFFCURVE",
"502 453 OFFCURVE",
"475 479 CURVE SMOOTH",
"469 485 OFFCURVE",
"461 494 OFFCURVE",
"450 506 CURVE SMOOTH",
"429 529 OFFCURVE",
"417 538 OFFCURVE",
"396 549 CURVE",
"384 556 OFFCURVE",
"372 559 OFFCURVE",
"361 559 CURVE SMOOTH",
"353 559 OFFCURVE",
"345 558 OFFCURVE",
"336 555 CURVE",
"287 546 OFFCURVE",
"263 514 OFFCURVE",
"247 461 CURVE",
"250 462 OFFCURVE",
"252 463 OFFCURVE",
"254 464 CURVE SMOOTH",
"256 465 OFFCURVE",
"257 465 OFFCURVE",
"258 466 CURVE",
"262 467 OFFCURVE",
"266 468 OFFCURVE",
"270 468 CURVE SMOOTH",
"271 468 OFFCURVE",
"272 468 OFFCURVE",
"273 468 CURVE SMOOTH",
"274 468 OFFCURVE",
"274 468 OFFCURVE",
"274 468 CURVE",
"279 468 LINE",
"284 467 OFFCURVE",
"289 466 OFFCURVE",
"295 463 CURVE",
"315 454 OFFCURVE",
"324 438 OFFCURVE",
"332 418 CURVE",
"335 407 OFFCURVE",
"338 400 OFFCURVE",
"341 396 CURVE",
"343 393 OFFCURVE",
"344 389 OFFCURVE",
"344 385 CURVE SMOOTH",
"344 384 OFFCURVE",
"343 381 OFFCURVE",
"342 377 CURVE",
"339 370 OFFCURVE",
"334 367 OFFCURVE",
"327 366 CURVE",
"315 363 OFFCURVE",
"313 352 OFFCURVE",
"313 343 CURVE SMOOTH",
"313 337 LINE",
"314 336 OFFCURVE",
"314 336 OFFCURVE",
"314 335 CURVE SMOOTH",
"314 334 OFFCURVE",
"314 333 OFFCURVE",
"315 332 CURVE",
"320 323 OFFCURVE",
"323 316 OFFCURVE",
"324 312 CURVE",
"342 281 OFFCURVE",
"352 264 OFFCURVE",
"354 262 CURVE",
"361 253 OFFCURVE",
"387 222 OFFCURVE",
"433 169 CURVE",
"436 164 OFFCURVE",
"438 160 OFFCURVE",
"438 156 CURVE SMOOTH",
"438 155 OFFCURVE",
"437 152 OFFCURVE",
"436 148 CURVE",
"432 140 OFFCURVE",
"426 136 OFFCURVE",
"417 136 CURVE SMOOTH",
"162 136 LINE"
);
}
);
width = 1208;
}
);
unicode = FB59;
},
{
glyphname = "teh-ar";
lastChange = "2013-06-18 03:06:08 +0330";
layers = (
{
layerId = "3D323242-F336-407C-B164-DE86AA499667";
name = "Regular";
paths = (
{
closed = 1;
nodes = (
"139 62 LINE",
"139 40 LINE",
"1061 40 LINE",
"1061 67 LINE",
"1052 69 OFFCURVE",
"1033 71 OFFCURVE",
"1004 72 CURVE SMOOTH",
"974 73 OFFCURVE",
"952 77 OFFCURVE",
"938 84 CURVE",
"771 177 LINE SMOOTH",
"756 186 OFFCURVE",
"735 197 OFFCURVE",
"708 211 CURVE SMOOTH",
"655 239 OFFCURVE",
"621 259 OFFCURVE",
"578 291 CURVE SMOOTH",
"558 306 OFFCURVE",
"537 327 OFFCURVE",
"514 354 CURVE SMOOTH",
"491 381 OFFCURVE",
"475 398 OFFCURVE",
"468 405 CURVE SMOOTH",
"461 412 OFFCURVE",
"453 421 OFFCURVE",
"443 432 CURVE SMOOTH",
"422 455 OFFCURVE",
"410 464 OFFCURVE",
"390 475 CURVE SMOOTH",
"377 482 OFFCURVE",
"365 485 OFFCURVE",
"355 485 CURVE SMOOTH",
"346 485 OFFCURVE",
"338 484 OFFCURVE",
"329 481 CURVE",
"281 472 OFFCURVE",
"256 443 OFFCURVE",
"240 387 CURVE",
"243 388 OFFCURVE",
"245 389 OFFCURVE",
"247 390 CURVE SMOOTH",
"251 392 LINE",
"257 393 OFFCURVE",
"262 394 OFFCURVE",
"267 394 CURVE SMOOTH",
"272 394 LINE",
"277 393 OFFCURVE",
"282 392 OFFCURVE",
"288 389 CURVE SMOOTH",
"307 380 OFFCURVE",
"317 363 OFFCURVE",
"325 343 CURVE",
"328 333 OFFCURVE",
"331 326 OFFCURVE",
"334 322 CURVE",
"336 318 OFFCURVE",
"337 314 OFFCURVE",
"337 311 CURVE SMOOTH",
"337 310 OFFCURVE",
"336 307 OFFCURVE",
"335 303 CURVE",
"332 296 OFFCURVE",
"327 292 OFFCURVE",
"320 291 CURVE",
"308 290 OFFCURVE",
"306 279 OFFCURVE",
"306 270 CURVE SMOOTH",
"306 264 LINE SMOOTH",
"306 263 OFFCURVE",
"307 260 OFFCURVE",
"308 259 CURVE",
"319 235 OFFCURVE",
"318 236 OFFCURVE",
"326 223 CURVE",
"333 210 OFFCURVE",
"339 199 OFFCURVE",
"347 188 CURVE SMOOTH",
"363 165 OFFCURVE",
"376 150 OFFCURVE",
"399 125 CURVE",
"410 112 OFFCURVE",
"419 102 OFFCURVE",
"426 95 CURVE",
"429 90 OFFCURVE",
"431 86 OFFCURVE",
"431 82 CURVE SMOOTH",
"431 79 OFFCURVE",
"430 77 OFFCURVE",
"429 74 CURVE",
"426 66 OFFCURVE",
"420 62 OFFCURVE",
"411 62 CURVE SMOOTH"
);
},
{
closed = 1;
nodes = (
"367 102 LINE",
"346 125 OFFCURVE",
"329 145 OFFCURVE",
"315 164 CURVE SMOOTH",
"306 176 OFFCURVE",
"298 189 OFFCURVE",
"291 204 CURVE",
"287 211 OFFCURVE",
"284 217 OFFCURVE",
"282 220 CURVE",
"281 221 OFFCURVE",
"280 223 OFFCURVE",
"280 224 CURVE",
"277 229 OFFCURVE",
"268 246 OFFCURVE",
"267 258 CURVE",
"267 258 OFFCURVE",
"267 259 OFFCURVE",
"267 262 CURVE",
"266 265 OFFCURVE",
"266 267 OFFCURVE",
"266 270 CURVE SMOOTH",
"266 277 OFFCURVE",
"266 283 OFFCURVE",
"267 287 CURVE",
"267 288 OFFCURVE",
"267 289 OFFCURVE",
"268 290 CURVE",
"268 291 OFFCURVE",
"268 291 OFFCURVE",
"268 292 CURVE",
"273 305 OFFCURVE",
"281 315 OFFCURVE",
"290 321 CURVE",
"289 328 OFFCURVE",
"276 354 OFFCURVE",
"267 354 CURVE SMOOTH",
"264 354 OFFCURVE",
"254 350 OFFCURVE",
"239 343 CURVE",
"236 333 LINE SMOOTH",
"233 324 OFFCURVE",
"226 319 OFFCURVE",
"217 319 CURVE SMOOTH",
"215 319 LINE",
"204 320 OFFCURVE",
"198 327 OFFCURVE",
"197 338 CURVE",
"197 341 OFFCURVE",
"196 345 OFFCURVE",
"195 351 CURVE SMOOTH",
"194 356 OFFCURVE",
"193 361 OFFCURVE",
"193 365 CURVE SMOOTH",
"193 374 OFFCURVE",
"197 386 OFFCURVE",
"201 398 CURVE",
"204 409 OFFCURVE",
"207 419 OFFCURVE",
"212 429 CURVE",
"216 439 OFFCURVE",
"220 449 OFFCURVE",
"228 459 CURVE",
"231 464 OFFCURVE",
"235 469 OFFCURVE",
"240 474 CURVE",
"249 485 OFFCURVE",
"259 494 OFFCURVE",
"269 500 CURVE",
"267 504 LINE",
"264 511 OFFCURVE",
"262 518 OFFCURVE",
"261 523 CURVE SMOOTH",
"256 552 OFFCURVE",
"253 580 OFFCURVE",
"253 608 CURVE SMOOTH",
"253 624 LINE SMOOTH",
"253 647 OFFCURVE",
"257 696 OFFCURVE",
"265 769 CURVE",
"266 786 OFFCURVE",
"267 800 OFFCURVE",
"270 815 CURVE SMOOTH",
"273 830 OFFCURVE",
"276 844 OFFCURVE",
"283 860 CURVE",
"286 868 OFFCURVE",
"291 876 OFFCURVE",
"296 884 CURVE",
"297 886 OFFCURVE",
"298 888 OFFCURVE",
"300 890 CURVE",
"311 899 OFFCURVE",
"322 904 OFFCURVE",
"333 904 CURVE",
"337 903 OFFCURVE",
"339 903 OFFCURVE",
"340 903 CURVE",
"343 902 OFFCURVE",
"344 902 OFFCURVE",
"345 902 CURVE",
"350 901 OFFCURVE",
"352 900 OFFCURVE",
"356 898 CURVE",
"357 897 OFFCURVE",
"360 896 OFFCURVE",
"363 895 CURVE SMOOTH",
"369 893 OFFCURVE",
"373 889 OFFCURVE",
"376 884 CURVE",
"376 883 LINE",
"377 884 LINE",
"381 888 LINE",
"391 895 OFFCURVE",
"402 898 OFFCURVE",
"414 898 CURVE SMOOTH",
"425 898 OFFCURVE",
"437 895 OFFCURVE",
"450 888 CURVE",
"453 887 OFFCURVE",
"455 885 OFFCURVE",
"457 882 CURVE",
"472 862 OFFCURVE",
"478 848 OFFCURVE",
"482 833 CURVE",
"485 818 OFFCURVE",
"486 802 OFFCURVE",
"487 775 CURVE SMOOTH",
"490 621 LINE SMOOTH",
"489 556 OFFCURVE",
"480 504 OFFCURVE",
"464 467 CURVE",
"477 452 OFFCURVE",
"488 441 OFFCURVE",
"496 433 CURVE",
"509 421 OFFCURVE",
"525 403 OFFCURVE",
"545 379 CURVE SMOOTH",
"585 331 OFFCURVE",
"623 307 OFFCURVE",
"661 284 CURVE SMOOTH",
"680 273 OFFCURVE",
"702 260 OFFCURVE",
"727 247 CURVE SMOOTH",
"752 234 OFFCURVE",
"773 222 OFFCURVE",
"791 211 CURVE",
"956 120 LINE SMOOTH",
"969 113 OFFCURVE",
"989 110 OFFCURVE",
"1016 110 CURVE SMOOTH",
"1019 110 LINE SMOOTH",
"1048 110 OFFCURVE",
"1070 107 OFFCURVE",
"1087 101 CURVE SMOOTH",
"1095 98 OFFCURVE",
"1099 92 OFFCURVE",
"1099 83 CURVE SMOOTH",
"1099 21 LINE SMOOTH",
"1099 20 OFFCURVE",
"1099 18 OFFCURVE",
"1100 16 CURVE SMOOTH",
"1101 14 OFFCURVE",
"1101 13 OFFCURVE",
"1101 12 CURVE SMOOTH",
"1101 11 OFFCURVE",
"1100 9 OFFCURVE",
"1099 6 CURVE",
"1095 2 OFFCURVE",
"1090 0 OFFCURVE",
"1084 0 CURVE SMOOTH",
"116 0 LINE SMOOTH",
"115 0 OFFCURVE",
"113 0 OFFCURVE",
"112 0 CURVE SMOOTH",
"111 0 OFFCURVE",
"110 0 OFFCURVE",
"109 0 CURVE SMOOTH",
"102 0 OFFCURVE",
"100 4 OFFCURVE",
"100 9 CURVE SMOOTH",
"100 10 OFFCURVE",
"100 11 OFFCURVE",
"101 13 CURVE",
"101 15 OFFCURVE",
"101 16 OFFCURVE",
"101 17 CURVE SMOOTH",
"101 83 LINE",
"102 96 OFFCURVE",
"108 102 OFFCURVE",
"120 102 CURVE SMOOTH"
);
},
{
closed = 1;
nodes = (
"361 461 OFFCURVE",
"374 445 OFFCURVE",
"374 428 CURVE SMOOTH",
"374 412 OFFCURVE",
"360 399 OFFCURVE",
"344 399 CURVE SMOOTH",
"327 399 OFFCURVE",
"312 411 OFFCURVE",
"312 427 CURVE SMOOTH",
"312 446 OFFCURVE",
"326 461 OFFCURVE",
"345 461 CURVE SMOOTH"
);
},
{
closed = 1;
nodes = (
"447 774 LINE",
"446 790 OFFCURVE",
"446 802 OFFCURVE",
"446 811 CURVE",
"445 828 OFFCURVE",
"441 835 OFFCURVE",
"429 854 CURVE",
"424 857 OFFCURVE",
"419 858 OFFCURVE",
"414 858 CURVE SMOOTH",
"411 858 OFFCURVE",
"408 858 OFFCURVE",
"407 857 CURVE",
"404 852 OFFCURVE",
"402 846 OFFCURVE",
"401 837 CURVE",
"393 625 LINE",
"409 553 LINE SMOOTH",
"412 538 OFFCURVE",
"413 529 OFFCURVE",
"413 525 CURVE SMOOTH",
"413 520 OFFCURVE",
"412 515 OFFCURVE",
"410 510 CURVE",
"420 505 OFFCURVE",
"428 500 OFFCURVE",
"433 496 CURVE",
"443 533 OFFCURVE",
"449 575 OFFCURVE",
"450 621 CURVE"
);
},
{
closed = 1;
nodes = (
"371 525 OFFCURVE",
"370 542 OFFCURVE",
"370 546 CURVE",
"364 575 LINE",
"355 546 LINE",
"354 545 OFFCURVE",
"354 545 OFFCURVE",
"354 544 CURVE",
"353 541 OFFCURVE",
"349 526 OFFCURVE",
"349 525 CURVE",
"352 522 OFFCURVE",
"357 521 OFFCURVE",
"362 523 CURVE",
"365 523 LINE SMOOTH",
"366 523 OFFCURVE",
"371 522 OFFCURVE",
"372 521 CURVE"
);
},
{
closed = 1;
nodes = (
"300 515 LINE",
"303 516 OFFCURVE",
"308 518 OFFCURVE",
"311 518 CURVE",
"310 523 OFFCURVE",
"309 527 OFFCURVE",
"309 530 CURVE SMOOTH",
"309 539 OFFCURVE",
"312 548 OFFCURVE",
"317 559 CURVE",
"339 629 LINE",
"342 678 OFFCURVE",
"344 718 OFFCURVE",
"346 750 CURVE SMOOTH",
"347 781 OFFCURVE",
"348 802 OFFCURVE",
"349 812 CURVE",
"349 821 OFFCURVE",
"349 828 OFFCURVE",
"349 833 CURVE SMOOTH",
"349 837 OFFCURVE",
"349 840 OFFCURVE",
"350 843 CURVE",
"348 850 OFFCURVE",
"346 856 OFFCURVE",
"343 860 CURVE",
"340 861 OFFCURVE",
"338 862 OFFCURVE",
"336 863 CURVE SMOOTH",
"334 864 OFFCURVE",
"333 864 OFFCURVE",
"333 864 CURVE SMOOTH",
"332 864 OFFCURVE",
"332 864 OFFCURVE",
"332 863 CURVE",
"331 862 OFFCURVE",
"329 862 OFFCURVE",
"328 861 CURVE",
"319 845 OFFCURVE",
"314 831 OFFCURVE",
"311 817 CURVE SMOOTH",
"308 803 OFFCURVE",
"306 786 OFFCURVE",
"305 765 CURVE",
"297 693 OFFCURVE",
"293 646 OFFCURVE",
"293 623 CURVE SMOOTH",
"293 608 LINE SMOOTH",
"293 580 OFFCURVE",
"295 554 OFFCURVE",
"300 530 CURVE",
"301 529 OFFCURVE",
"301 527 OFFCURVE",
"302 526 CURVE",
"302 524 OFFCURVE",
"302 523 OFFCURVE",
"303 522 CURVE",
"302 523 LINE"
);
}
);
width = 1201;
}
);
unicode = 062A;
},
{
glyphname = "teh-ar.fina";
lastChange = "2013-06-18 03:06:16 +0330";
layers = (
{
layerId = "3D323242-F336-407C-B164-DE86AA499667";
name = "Regular";
paths = (
{
closed = 1;
nodes = (
"139 62 LINE",
"139 40 LINE",
"1061 40 LINE",
"1061 67 LINE",
"1052 69 OFFCURVE",
"1033 71 OFFCURVE",
"1004 72 CURVE SMOOTH",
"974 73 OFFCURVE",
"952 77 OFFCURVE",
"938 84 CURVE",
"771 177 LINE SMOOTH",
"756 186 OFFCURVE",
"735 197 OFFCURVE",
"708 211 CURVE SMOOTH",
"655 239 OFFCURVE",
"621 259 OFFCURVE",
"578 291 CURVE SMOOTH",
"558 306 OFFCURVE",
"537 327 OFFCURVE",
"514 354 CURVE SMOOTH",
"491 381 OFFCURVE",
"475 398 OFFCURVE",
"468 405 CURVE SMOOTH",
"461 412 OFFCURVE",
"453 421 OFFCURVE",
"443 432 CURVE SMOOTH",
"422 455 OFFCURVE",
"410 464 OFFCURVE",
"390 475 CURVE SMOOTH",
"377 482 OFFCURVE",
"365 485 OFFCURVE",
"355 485 CURVE SMOOTH",
"346 485 OFFCURVE",
"338 484 OFFCURVE",
"329 481 CURVE",
"281 472 OFFCURVE",
"256 443 OFFCURVE",
"240 387 CURVE",
"243 388 OFFCURVE",
"245 389 OFFCURVE",
"247 390 CURVE SMOOTH",
"251 392 LINE",
"257 393 OFFCURVE",
"262 394 OFFCURVE",
"267 394 CURVE SMOOTH",
"272 394 LINE",
"277 393 OFFCURVE",
"282 392 OFFCURVE",
"288 389 CURVE SMOOTH",
"307 380 OFFCURVE",
"317 363 OFFCURVE",
"325 343 CURVE",
"328 333 OFFCURVE",
"331 326 OFFCURVE",
"334 322 CURVE",
"336 318 OFFCURVE",
"337 314 OFFCURVE",
"337 311 CURVE SMOOTH",
"337 310 OFFCURVE",
"336 307 OFFCURVE",
"335 303 CURVE",
"332 296 OFFCURVE",
"327 292 OFFCURVE",
"320 291 CURVE",
"308 290 OFFCURVE",
"306 279 OFFCURVE",
"306 270 CURVE SMOOTH",
"306 264 LINE SMOOTH",
"306 263 OFFCURVE",
"307 260 OFFCURVE",
"308 259 CURVE",
"319 235 OFFCURVE",
"318 236 OFFCURVE",
"326 223 CURVE",
"333 210 OFFCURVE",
"339 199 OFFCURVE",
"347 188 CURVE SMOOTH",
"363 165 OFFCURVE",
"376 150 OFFCURVE",
"399 125 CURVE",
"410 112 OFFCURVE",
"419 102 OFFCURVE",
"426 95 CURVE",
"429 90 OFFCURVE",
"431 86 OFFCURVE",
"431 82 CURVE SMOOTH",
"431 79 OFFCURVE",
"430 77 OFFCURVE",
"429 74 CURVE",
"426 66 OFFCURVE",
"420 62 OFFCURVE",
"411 62 CURVE SMOOTH"
);
},
{
closed = 1;
nodes = (
"367 102 LINE",
"346 125 OFFCURVE",
"329 145 OFFCURVE",
"315 164 CURVE SMOOTH",
"306 176 OFFCURVE",
"298 189 OFFCURVE",
"291 204 CURVE",
"287 211 OFFCURVE",
"284 217 OFFCURVE",
"282 220 CURVE",
"281 221 OFFCURVE",
"280 223 OFFCURVE",
"280 224 CURVE",
"277 229 OFFCURVE",
"268 246 OFFCURVE",
"267 258 CURVE",
"267 258 OFFCURVE",
"267 259 OFFCURVE",
"267 262 CURVE",
"266 265 OFFCURVE",
"266 267 OFFCURVE",
"266 270 CURVE SMOOTH",
"266 277 OFFCURVE",
"266 283 OFFCURVE",
"267 287 CURVE",
"267 288 OFFCURVE",
"267 289 OFFCURVE",
"268 290 CURVE",
"268 291 OFFCURVE",
"268 291 OFFCURVE",
"268 292 CURVE",
"273 305 OFFCURVE",
"281 315 OFFCURVE",
"290 321 CURVE",
"289 328 OFFCURVE",
"276 354 OFFCURVE",
"267 354 CURVE SMOOTH",
"264 354 OFFCURVE",
"254 350 OFFCURVE",
"239 343 CURVE",
"236 333 LINE SMOOTH",
"233 324 OFFCURVE",
"226 319 OFFCURVE",
"217 319 CURVE SMOOTH",
"215 319 LINE",
"204 320 OFFCURVE",
"198 327 OFFCURVE",
"197 338 CURVE",
"197 341 OFFCURVE",
"196 345 OFFCURVE",
"195 351 CURVE SMOOTH",
"194 356 OFFCURVE",
"193 361 OFFCURVE",
"193 365 CURVE SMOOTH",
"193 374 OFFCURVE",
"197 386 OFFCURVE",
"201 398 CURVE",
"204 409 OFFCURVE",
"207 419 OFFCURVE",
"212 429 CURVE",
"216 439 OFFCURVE",
"220 449 OFFCURVE",
"228 459 CURVE",
"231 464 OFFCURVE",
"235 469 OFFCURVE",
"240 474 CURVE",
"249 485 OFFCURVE",
"259 494 OFFCURVE",
"269 500 CURVE",
"267 504 LINE",
"264 511 OFFCURVE",
"262 518 OFFCURVE",
"261 523 CURVE SMOOTH",
"256 552 OFFCURVE",
"253 580 OFFCURVE",
"253 608 CURVE SMOOTH",
"253 624 LINE SMOOTH",
"253 647 OFFCURVE",
"257 696 OFFCURVE",
"265 769 CURVE",
"266 786 OFFCURVE",
"267 800 OFFCURVE",
"270 815 CURVE SMOOTH",
"273 830 OFFCURVE",
"276 844 OFFCURVE",
"283 860 CURVE",
"286 868 OFFCURVE",
"291 876 OFFCURVE",
"296 884 CURVE",
"297 886 OFFCURVE",
"298 888 OFFCURVE",
"300 890 CURVE",
"311 899 OFFCURVE",
"322 904 OFFCURVE",
"333 904 CURVE",
"337 903 OFFCURVE",
"339 903 OFFCURVE",
"340 903 CURVE",
"343 902 OFFCURVE",
"344 902 OFFCURVE",
"345 902 CURVE",
"350 901 OFFCURVE",
"352 900 OFFCURVE",
"356 898 CURVE",
"357 897 OFFCURVE",
"360 896 OFFCURVE",
"363 895 CURVE SMOOTH",
"369 893 OFFCURVE",
"373 889 OFFCURVE",
"376 884 CURVE",
"376 883 LINE",
"377 884 LINE",
"381 888 LINE",
"391 895 OFFCURVE",
"402 898 OFFCURVE",
"414 898 CURVE SMOOTH",
"425 898 OFFCURVE",
"437 895 OFFCURVE",
"450 888 CURVE",
"453 887 OFFCURVE",
"455 885 OFFCURVE",
"457 882 CURVE",
"472 862 OFFCURVE",
"478 848 OFFCURVE",
"482 833 CURVE",
"485 818 OFFCURVE",
"486 802 OFFCURVE",
"487 775 CURVE SMOOTH",
"490 621 LINE SMOOTH",
"489 556 OFFCURVE",
"480 504 OFFCURVE",
"464 467 CURVE",
"477 452 OFFCURVE",
"488 441 OFFCURVE",
"496 433 CURVE",
"509 421 OFFCURVE",
"525 403 OFFCURVE",
"545 379 CURVE SMOOTH",
"585 331 OFFCURVE",
"623 307 OFFCURVE",
"661 284 CURVE SMOOTH",
"680 273 OFFCURVE",
"702 260 OFFCURVE",
"727 247 CURVE SMOOTH",
"752 234 OFFCURVE",
"773 222 OFFCURVE",
"791 211 CURVE",
"956 120 LINE SMOOTH",
"969 113 OFFCURVE",
"989 110 OFFCURVE",
"1016 110 CURVE SMOOTH",
"1019 110 LINE SMOOTH",
"1048 110 OFFCURVE",
"1070 107 OFFCURVE",
"1087 101 CURVE SMOOTH",
"1095 98 OFFCURVE",
"1099 92 OFFCURVE",
"1099 83 CURVE SMOOTH",
"1099 21 LINE SMOOTH",
"1099 20 OFFCURVE",
"1099 18 OFFCURVE",
"1100 16 CURVE SMOOTH",
"1101 14 OFFCURVE",
"1101 13 OFFCURVE",
"1101 12 CURVE SMOOTH",
"1101 11 OFFCURVE",
"1100 9 OFFCURVE",
"1099 6 CURVE",
"1095 2 OFFCURVE",
"1090 0 OFFCURVE",
"1084 0 CURVE SMOOTH",
"116 0 LINE SMOOTH",
"115 0 OFFCURVE",
"113 0 OFFCURVE",
"112 0 CURVE SMOOTH",
"111 0 OFFCURVE",
"110 0 OFFCURVE",
"109 0 CURVE SMOOTH",
"102 0 OFFCURVE",
"100 4 OFFCURVE",
"100 9 CURVE SMOOTH",
"100 10 OFFCURVE",
"100 11 OFFCURVE",
"101 13 CURVE",
"101 15 OFFCURVE",
"101 16 OFFCURVE",
"101 17 CURVE SMOOTH",
"101 83 LINE",
"102 96 OFFCURVE",
"108 102 OFFCURVE",
"120 102 CURVE SMOOTH"
);
},
{
closed = 1;
nodes = (
"361 461 OFFCURVE",
"374 445 OFFCURVE",
"374 428 CURVE SMOOTH",
"374 412 OFFCURVE",
"360 399 OFFCURVE",
"344 399 CURVE SMOOTH",
"327 399 OFFCURVE",
"312 411 OFFCURVE",
"312 427 CURVE SMOOTH",
"312 446 OFFCURVE",
"326 461 OFFCURVE",
"345 461 CURVE SMOOTH"
);
},
{
closed = 1;
nodes = (
"447 774 LINE",
"446 790 OFFCURVE",
"446 802 OFFCURVE",
"446 811 CURVE",
"445 828 OFFCURVE",
"441 835 OFFCURVE",
"429 854 CURVE",
"424 857 OFFCURVE",
"419 858 OFFCURVE",
"414 858 CURVE SMOOTH",
"411 858 OFFCURVE",
"408 858 OFFCURVE",
"407 857 CURVE",
"404 852 OFFCURVE",
"402 846 OFFCURVE",
"401 837 CURVE",
"393 625 LINE",
"409 553 LINE SMOOTH",
"412 538 OFFCURVE",
"413 529 OFFCURVE",
"413 525 CURVE SMOOTH",
"413 520 OFFCURVE",
"412 515 OFFCURVE",
"410 510 CURVE",
"420 505 OFFCURVE",
"428 500 OFFCURVE",
"433 496 CURVE",
"443 533 OFFCURVE",
"449 575 OFFCURVE",
"450 621 CURVE"
);
},
{
closed = 1;
nodes = (
"371 525 OFFCURVE",
"370 542 OFFCURVE",
"370 546 CURVE",
"364 575 LINE",
"355 546 LINE",
"354 545 OFFCURVE",
"354 545 OFFCURVE",
"354 544 CURVE",
"353 541 OFFCURVE",
"349 526 OFFCURVE",
"349 525 CURVE",
"352 522 OFFCURVE",
"357 521 OFFCURVE",
"362 523 CURVE",
"365 523 LINE SMOOTH",
"366 523 OFFCURVE",
"371 522 OFFCURVE",
"372 521 CURVE"
);
},
{
closed = 1;
nodes = (
"300 515 LINE",
"303 516 OFFCURVE",
"308 518 OFFCURVE",
"311 518 CURVE",
"310 523 OFFCURVE",
"309 527 OFFCURVE",
"309 530 CURVE SMOOTH",
"309 539 OFFCURVE",
"312 548 OFFCURVE",
"317 559 CURVE",
"339 629 LINE",
"342 678 OFFCURVE",
"344 718 OFFCURVE",
"346 750 CURVE SMOOTH",
"347 781 OFFCURVE",
"348 802 OFFCURVE",
"349 812 CURVE",
"349 821 OFFCURVE",
"349 828 OFFCURVE",
"349 833 CURVE SMOOTH",
"349 837 OFFCURVE",
"349 840 OFFCURVE",
"350 843 CURVE",
"348 850 OFFCURVE",
"346 856 OFFCURVE",
"343 860 CURVE",
"340 861 OFFCURVE",
"338 862 OFFCURVE",
"336 863 CURVE SMOOTH",
"334 864 OFFCURVE",
"333 864 OFFCURVE",
"333 864 CURVE SMOOTH",
"332 864 OFFCURVE",
"332 864 OFFCURVE",
"332 863 CURVE",
"331 862 OFFCURVE",
"329 862 OFFCURVE",
"328 861 CURVE",
"319 845 OFFCURVE",
"314 831 OFFCURVE",
"311 817 CURVE SMOOTH",
"308 803 OFFCURVE",
"306 786 OFFCURVE",
"305 765 CURVE",
"297 693 OFFCURVE",
"293 646 OFFCURVE",
"293 623 CURVE SMOOTH",
"293 608 LINE SMOOTH",
"293 580 OFFCURVE",
"295 554 OFFCURVE",
"300 530 CURVE",
"301 529 OFFCURVE",
"301 527 OFFCURVE",
"302 526 CURVE",
"302 524 OFFCURVE",
"302 523 OFFCURVE",
"303 522 CURVE",
"302 523 LINE"
);
}
);
width = 1201;
}
);
unicode = FE96;
},
{
glyphname = "teh-ar.init";
lastChange = "2013-06-18 03:06:05 +0330";
layers = (
{
layerId = "3D323242-F336-407C-B164-DE86AA499667";
name = "Regular";
paths = (
{
closed = 1;
nodes = (
"139 62 LINE",
"139 40 LINE",
"1061 40 LINE",
"1061 67 LINE",
"1052 69 OFFCURVE",
"1033 71 OFFCURVE",
"1004 72 CURVE SMOOTH",
"974 73 OFFCURVE",
"952 77 OFFCURVE",
"938 84 CURVE",
"771 177 LINE SMOOTH",
"756 186 OFFCURVE",
"735 197 OFFCURVE",
"708 211 CURVE SMOOTH",
"655 239 OFFCURVE",
"621 259 OFFCURVE",
"578 291 CURVE SMOOTH",
"558 306 OFFCURVE",
"537 327 OFFCURVE",
"514 354 CURVE SMOOTH",
"491 381 OFFCURVE",
"475 398 OFFCURVE",
"468 405 CURVE SMOOTH",
"461 412 OFFCURVE",
"453 421 OFFCURVE",
"443 432 CURVE SMOOTH",
"422 455 OFFCURVE",
"410 464 OFFCURVE",
"390 475 CURVE SMOOTH",
"377 482 OFFCURVE",
"365 485 OFFCURVE",
"355 485 CURVE SMOOTH",
"346 485 OFFCURVE",
"338 484 OFFCURVE",
"329 481 CURVE",
"281 472 OFFCURVE",
"256 443 OFFCURVE",
"240 387 CURVE",
"243 388 OFFCURVE",
"245 389 OFFCURVE",
"247 390 CURVE SMOOTH",
"251 392 LINE",
"257 393 OFFCURVE",
"262 394 OFFCURVE",
"267 394 CURVE SMOOTH",
"272 394 LINE",
"277 393 OFFCURVE",
"282 392 OFFCURVE",
"288 389 CURVE SMOOTH",
"307 380 OFFCURVE",
"317 363 OFFCURVE",
"325 343 CURVE",
"328 333 OFFCURVE",
"331 326 OFFCURVE",
"334 322 CURVE",
"336 318 OFFCURVE",
"337 314 OFFCURVE",
"337 311 CURVE SMOOTH",
"337 310 OFFCURVE",
"336 307 OFFCURVE",
"335 303 CURVE",
"332 296 OFFCURVE",
"327 292 OFFCURVE",
"320 291 CURVE",
"308 290 OFFCURVE",
"306 279 OFFCURVE",
"306 270 CURVE SMOOTH",
"306 264 LINE SMOOTH",
"306 263 OFFCURVE",
"307 260 OFFCURVE",
"308 259 CURVE",
"319 235 OFFCURVE",
"318 236 OFFCURVE",
"326 223 CURVE",
"333 210 OFFCURVE",
"339 199 OFFCURVE",
"347 188 CURVE SMOOTH",
"363 165 OFFCURVE",
"376 150 OFFCURVE",
"399 125 CURVE",
"410 112 OFFCURVE",
"419 102 OFFCURVE",
"426 95 CURVE",
"429 90 OFFCURVE",
"431 86 OFFCURVE",
"431 82 CURVE SMOOTH",
"431 79 OFFCURVE",
"430 77 OFFCURVE",
"429 74 CURVE",
"426 66 OFFCURVE",
"420 62 OFFCURVE",
"411 62 CURVE SMOOTH"
);
},
{
closed = 1;
nodes = (
"367 102 LINE",
"346 125 OFFCURVE",
"329 145 OFFCURVE",
"315 164 CURVE SMOOTH",
"306 176 OFFCURVE",
"298 189 OFFCURVE",
"291 204 CURVE",
"287 211 OFFCURVE",
"284 217 OFFCURVE",
"282 220 CURVE",
"281 221 OFFCURVE",
"280 223 OFFCURVE",
"280 224 CURVE",
"277 229 OFFCURVE",
"268 246 OFFCURVE",
"267 258 CURVE",
"267 258 OFFCURVE",
"267 259 OFFCURVE",
"267 262 CURVE",
"266 265 OFFCURVE",
"266 267 OFFCURVE",
"266 270 CURVE SMOOTH",
"266 277 OFFCURVE",
"266 283 OFFCURVE",
"267 287 CURVE",
"267 288 OFFCURVE",
"267 289 OFFCURVE",
"268 290 CURVE",
"268 291 OFFCURVE",
"268 291 OFFCURVE",
"268 292 CURVE",
"273 305 OFFCURVE",
"281 315 OFFCURVE",
"290 321 CURVE",
"289 328 OFFCURVE",
"276 354 OFFCURVE",
"267 354 CURVE SMOOTH",
"264 354 OFFCURVE",
"254 350 OFFCURVE",
"239 343 CURVE",
"236 333 LINE SMOOTH",
"233 324 OFFCURVE",
"226 319 OFFCURVE",
"217 319 CURVE SMOOTH",
"215 319 LINE",
"204 320 OFFCURVE",
"198 327 OFFCURVE",
"197 338 CURVE",
"197 341 OFFCURVE",
"196 345 OFFCURVE",
"195 351 CURVE SMOOTH",
"194 356 OFFCURVE",
"193 361 OFFCURVE",
"193 365 CURVE SMOOTH",
"193 374 OFFCURVE",
"197 386 OFFCURVE",
"201 398 CURVE",
"204 409 OFFCURVE",
"207 419 OFFCURVE",
"212 429 CURVE",
"216 439 OFFCURVE",
"220 449 OFFCURVE",
"228 459 CURVE",
"231 464 OFFCURVE",
"235 469 OFFCURVE",
"240 474 CURVE",
"249 485 OFFCURVE",
"259 494 OFFCURVE",
"269 500 CURVE",
"267 504 LINE",
"264 511 OFFCURVE",
"262 518 OFFCURVE",
"261 523 CURVE SMOOTH",
"256 552 OFFCURVE",
"253 580 OFFCURVE",
"253 608 CURVE SMOOTH",
"253 624 LINE SMOOTH",
"253 647 OFFCURVE",
"257 696 OFFCURVE",
"265 769 CURVE",
"266 786 OFFCURVE",
"267 800 OFFCURVE",
"270 815 CURVE SMOOTH",
"273 830 OFFCURVE",
"276 844 OFFCURVE",
"283 860 CURVE",
"286 868 OFFCURVE",
"291 876 OFFCURVE",
"296 884 CURVE",
"297 886 OFFCURVE",
"298 888 OFFCURVE",
"300 890 CURVE",
"311 899 OFFCURVE",
"322 904 OFFCURVE",
"333 904 CURVE",
"337 903 OFFCURVE",
"339 903 OFFCURVE",
"340 903 CURVE",
"343 902 OFFCURVE",
"344 902 OFFCURVE",
"345 902 CURVE",
"350 901 OFFCURVE",
"352 900 OFFCURVE",
"356 898 CURVE",
"357 897 OFFCURVE",
"360 896 OFFCURVE",
"363 895 CURVE SMOOTH",
"369 893 OFFCURVE",
"373 889 OFFCURVE",
"376 884 CURVE",
"376 883 LINE",
"377 884 LINE",
"381 888 LINE",
"391 895 OFFCURVE",
"402 898 OFFCURVE",
"414 898 CURVE SMOOTH",
"425 898 OFFCURVE",
"437 895 OFFCURVE",
"450 888 CURVE",
"453 887 OFFCURVE",
"455 885 OFFCURVE",
"457 882 CURVE",
"472 862 OFFCURVE",
"478 848 OFFCURVE",
"482 833 CURVE",
"485 818 OFFCURVE",
"486 802 OFFCURVE",
"487 775 CURVE SMOOTH",
"490 621 LINE SMOOTH",
"489 556 OFFCURVE",
"480 504 OFFCURVE",
"464 467 CURVE",
"477 452 OFFCURVE",
"488 441 OFFCURVE",
"496 433 CURVE",
"509 421 OFFCURVE",
"525 403 OFFCURVE",
"545 379 CURVE SMOOTH",
"585 331 OFFCURVE",
"623 307 OFFCURVE",
"661 284 CURVE SMOOTH",
"680 273 OFFCURVE",
"702 260 OFFCURVE",
"727 247 CURVE SMOOTH",
"752 234 OFFCURVE",
"773 222 OFFCURVE",
"791 211 CURVE",
"956 120 LINE SMOOTH",
"969 113 OFFCURVE",
"989 110 OFFCURVE",
"1016 110 CURVE SMOOTH",
"1019 110 LINE SMOOTH",
"1048 110 OFFCURVE",
"1070 107 OFFCURVE",
"1087 101 CURVE SMOOTH",
"1095 98 OFFCURVE",
"1099 92 OFFCURVE",
"1099 83 CURVE SMOOTH",
"1099 21 LINE SMOOTH",
"1099 20 OFFCURVE",
"1099 18 OFFCURVE",
"1100 16 CURVE SMOOTH",
"1101 14 OFFCURVE",
"1101 13 OFFCURVE",
"1101 12 CURVE SMOOTH",
"1101 11 OFFCURVE",
"1100 9 OFFCURVE",
"1099 6 CURVE",
"1095 2 OFFCURVE",
"1090 0 OFFCURVE",
"1084 0 CURVE SMOOTH",
"116 0 LINE SMOOTH",
"115 0 OFFCURVE",
"113 0 OFFCURVE",
"112 0 CURVE SMOOTH",
"111 0 OFFCURVE",
"110 0 OFFCURVE",
"109 0 CURVE SMOOTH",
"102 0 OFFCURVE",
"100 4 OFFCURVE",
"100 9 CURVE SMOOTH",
"100 10 OFFCURVE",
"100 11 OFFCURVE",
"101 13 CURVE",
"101 15 OFFCURVE",
"101 16 OFFCURVE",
"101 17 CURVE SMOOTH",
"101 83 LINE",
"102 96 OFFCURVE",
"108 102 OFFCURVE",
"120 102 CURVE SMOOTH"
);
},
{
closed = 1;
nodes = (
"361 461 OFFCURVE",
"374 445 OFFCURVE",
"374 428 CURVE SMOOTH",
"374 412 OFFCURVE",
"360 399 OFFCURVE",
"344 399 CURVE SMOOTH",
"327 399 OFFCURVE",
"312 411 OFFCURVE",
"312 427 CURVE SMOOTH",
"312 446 OFFCURVE",
"326 461 OFFCURVE",
"345 461 CURVE SMOOTH"
);
},
{
closed = 1;
nodes = (
"447 774 LINE",
"446 790 OFFCURVE",
"446 802 OFFCURVE",
"446 811 CURVE",
"445 828 OFFCURVE",
"441 835 OFFCURVE",
"429 854 CURVE",
"424 857 OFFCURVE",
"419 858 OFFCURVE",
"414 858 CURVE SMOOTH",
"411 858 OFFCURVE",
"408 858 OFFCURVE",
"407 857 CURVE",
"404 852 OFFCURVE",
"402 846 OFFCURVE",
"401 837 CURVE",
"393 625 LINE",
"409 553 LINE SMOOTH",
"412 538 OFFCURVE",
"413 529 OFFCURVE",
"413 525 CURVE SMOOTH",
"413 520 OFFCURVE",
"412 515 OFFCURVE",
"410 510 CURVE",
"420 505 OFFCURVE",
"428 500 OFFCURVE",
"433 496 CURVE",
"443 533 OFFCURVE",
"449 575 OFFCURVE",
"450 621 CURVE"
);
},
{
closed = 1;
nodes = (
"371 525 OFFCURVE",
"370 542 OFFCURVE",
"370 546 CURVE",
"364 575 LINE",
"355 546 LINE",
"354 545 OFFCURVE",
"354 545 OFFCURVE",
"354 544 CURVE",
"353 541 OFFCURVE",
"349 526 OFFCURVE",
"349 525 CURVE",
"352 522 OFFCURVE",
"357 521 OFFCURVE",
"362 523 CURVE",
"365 523 LINE SMOOTH",
"366 523 OFFCURVE",
"371 522 OFFCURVE",
"372 521 CURVE"
);
},
{
closed = 1;
nodes = (
"300 515 LINE",
"303 516 OFFCURVE",
"308 518 OFFCURVE",
"311 518 CURVE",
"310 523 OFFCURVE",
"309 527 OFFCURVE",
"309 530 CURVE SMOOTH",
"309 539 OFFCURVE",
"312 548 OFFCURVE",
"317 559 CURVE",
"339 629 LINE",
"342 678 OFFCURVE",
"344 718 OFFCURVE",
"346 750 CURVE SMOOTH",
"347 781 OFFCURVE",
"348 802 OFFCURVE",
"349 812 CURVE",
"349 821 OFFCURVE",
"349 828 OFFCURVE",
"349 833 CURVE SMOOTH",
"349 837 OFFCURVE",
"349 840 OFFCURVE",
"350 843 CURVE",
"348 850 OFFCURVE",
"346 856 OFFCURVE",
"343 860 CURVE",
"340 861 OFFCURVE",
"338 862 OFFCURVE",
"336 863 CURVE SMOOTH",
"334 864 OFFCURVE",
"333 864 OFFCURVE",
"333 864 CURVE SMOOTH",
"332 864 OFFCURVE",
"332 864 OFFCURVE",
"332 863 CURVE",
"331 862 OFFCURVE",
"329 862 OFFCURVE",
"328 861 CURVE",
"319 845 OFFCURVE",
"314 831 OFFCURVE",
"311 817 CURVE SMOOTH",
"308 803 OFFCURVE",
"306 786 OFFCURVE",
"305 765 CURVE",
"297 693 OFFCURVE",
"293 646 OFFCURVE",
"293 623 CURVE SMOOTH",
"293 608 LINE SMOOTH",
"293 580 OFFCURVE",
"295 554 OFFCURVE",
"300 530 CURVE",
"301 529 OFFCURVE",
"301 527 OFFCURVE",
"302 526 CURVE",
"302 524 OFFCURVE",
"302 523 OFFCURVE",
"303 522 CURVE",
"302 523 LINE"
);
}
);
width = 1201;
}
);
unicode = FE97;
},
{
glyphname = "teh-ar.medi";
lastChange = "2013-06-18 03:06:12 +0330";
layers = (
{
layerId = "3D323242-F336-407C-B164-DE86AA499667";
name = "Regular";
paths = (
{
closed = 1;
nodes = (
"139 62 LINE",
"139 40 LINE",
"1061 40 LINE",
"1061 67 LINE",
"1052 69 OFFCURVE",
"1033 71 OFFCURVE",
"1004 72 CURVE SMOOTH",
"974 73 OFFCURVE",
"952 77 OFFCURVE",
"938 84 CURVE",
"771 177 LINE SMOOTH",
"756 186 OFFCURVE",
"735 197 OFFCURVE",
"708 211 CURVE SMOOTH",
"655 239 OFFCURVE",
"621 259 OFFCURVE",
"578 291 CURVE SMOOTH",
"558 306 OFFCURVE",
"537 327 OFFCURVE",
"514 354 CURVE SMOOTH",
"491 381 OFFCURVE",
"475 398 OFFCURVE",
"468 405 CURVE SMOOTH",
"461 412 OFFCURVE",
"453 421 OFFCURVE",
"443 432 CURVE SMOOTH",
"422 455 OFFCURVE",
"410 464 OFFCURVE",
"390 475 CURVE SMOOTH",
"377 482 OFFCURVE",
"365 485 OFFCURVE",
"355 485 CURVE SMOOTH",
"346 485 OFFCURVE",
"338 484 OFFCURVE",
"329 481 CURVE",
"281 472 OFFCURVE",
"256 443 OFFCURVE",
"240 387 CURVE",
"243 388 OFFCURVE",
"245 389 OFFCURVE",
"247 390 CURVE SMOOTH",
"251 392 LINE",
"257 393 OFFCURVE",
"262 394 OFFCURVE",
"267 394 CURVE SMOOTH",
"272 394 LINE",
"277 393 OFFCURVE",
"282 392 OFFCURVE",
"288 389 CURVE SMOOTH",
"307 380 OFFCURVE",
"317 363 OFFCURVE",
"325 343 CURVE",
"328 333 OFFCURVE",
"331 326 OFFCURVE",
"334 322 CURVE",
"336 318 OFFCURVE",
"337 314 OFFCURVE",
"337 311 CURVE SMOOTH",
"337 310 OFFCURVE",
"336 307 OFFCURVE",
"335 303 CURVE",
"332 296 OFFCURVE",
"327 292 OFFCURVE",
"320 291 CURVE",
"308 290 OFFCURVE",
"306 279 OFFCURVE",
"306 270 CURVE SMOOTH",
"306 264 LINE SMOOTH",
"306 263 OFFCURVE",
"307 260 OFFCURVE",
"308 259 CURVE",
"319 235 OFFCURVE",
"318 236 OFFCURVE",
"326 223 CURVE",
"333 210 OFFCURVE",
"339 199 OFFCURVE",
"347 188 CURVE SMOOTH",
"363 165 OFFCURVE",
"376 150 OFFCURVE",
"399 125 CURVE",
"410 112 OFFCURVE",
"419 102 OFFCURVE",
"426 95 CURVE",
"429 90 OFFCURVE",
"431 86 OFFCURVE",
"431 82 CURVE SMOOTH",
"431 79 OFFCURVE",
"430 77 OFFCURVE",
"429 74 CURVE",
"426 66 OFFCURVE",
"420 62 OFFCURVE",
"411 62 CURVE SMOOTH"
);
},
{
closed = 1;
nodes = (
"367 102 LINE",
"346 125 OFFCURVE",
"329 145 OFFCURVE",
"315 164 CURVE SMOOTH",
"306 176 OFFCURVE",
"298 189 OFFCURVE",
"291 204 CURVE",
"287 211 OFFCURVE",
"284 217 OFFCURVE",
"282 220 CURVE",
"281 221 OFFCURVE",
"280 223 OFFCURVE",
"280 224 CURVE",
"277 229 OFFCURVE",
"268 246 OFFCURVE",
"267 258 CURVE",
"267 258 OFFCURVE",
"267 259 OFFCURVE",
"267 262 CURVE",
"266 265 OFFCURVE",
"266 267 OFFCURVE",
"266 270 CURVE SMOOTH",
"266 277 OFFCURVE",
"266 283 OFFCURVE",
"267 287 CURVE",
"267 288 OFFCURVE",
"267 289 OFFCURVE",
"268 290 CURVE",
"268 291 OFFCURVE",
"268 291 OFFCURVE",
"268 292 CURVE",
"273 305 OFFCURVE",
"281 315 OFFCURVE",
"290 321 CURVE",
"289 328 OFFCURVE",
"276 354 OFFCURVE",
"267 354 CURVE SMOOTH",
"264 354 OFFCURVE",
"254 350 OFFCURVE",
"239 343 CURVE",
"236 333 LINE SMOOTH",
"233 324 OFFCURVE",
"226 319 OFFCURVE",
"217 319 CURVE SMOOTH",
"215 319 LINE",
"204 320 OFFCURVE",
"198 327 OFFCURVE",
"197 338 CURVE",
"197 341 OFFCURVE",
"196 345 OFFCURVE",
"195 351 CURVE SMOOTH",
"194 356 OFFCURVE",
"193 361 OFFCURVE",
"193 365 CURVE SMOOTH",
"193 374 OFFCURVE",
"197 386 OFFCURVE",
"201 398 CURVE",
"204 409 OFFCURVE",
"207 419 OFFCURVE",
"212 429 CURVE",
"216 439 OFFCURVE",
"220 449 OFFCURVE",
"228 459 CURVE",
"231 464 OFFCURVE",
"235 469 OFFCURVE",
"240 474 CURVE",
"249 485 OFFCURVE",
"259 494 OFFCURVE",
"269 500 CURVE",
"267 504 LINE",
"264 511 OFFCURVE",
"262 518 OFFCURVE",
"261 523 CURVE SMOOTH",
"256 552 OFFCURVE",
"253 580 OFFCURVE",
"253 608 CURVE SMOOTH",
"253 624 LINE SMOOTH",
"253 647 OFFCURVE",
"257 696 OFFCURVE",
"265 769 CURVE",
"266 786 OFFCURVE",
"267 800 OFFCURVE",
"270 815 CURVE SMOOTH",
"273 830 OFFCURVE",
"276 844 OFFCURVE",
"283 860 CURVE",
"286 868 OFFCURVE",
"291 876 OFFCURVE",
"296 884 CURVE",
"297 886 OFFCURVE",
"298 888 OFFCURVE",
"300 890 CURVE",
"311 899 OFFCURVE",
"322 904 OFFCURVE",
"333 904 CURVE",
"337 903 OFFCURVE",
"339 903 OFFCURVE",
"340 903 CURVE",
"343 902 OFFCURVE",
"344 902 OFFCURVE",
"345 902 CURVE",
"350 901 OFFCURVE",
"352 900 OFFCURVE",
"356 898 CURVE",
"357 897 OFFCURVE",
"360 896 OFFCURVE",
"363 895 CURVE SMOOTH",
"369 893 OFFCURVE",
"373 889 OFFCURVE",
"376 884 CURVE",
"376 883 LINE",
"377 884 LINE",
"381 888 LINE",
"391 895 OFFCURVE",
"402 898 OFFCURVE",
"414 898 CURVE SMOOTH",
"425 898 OFFCURVE",
"437 895 OFFCURVE",
"450 888 CURVE",
"453 887 OFFCURVE",
"455 885 OFFCURVE",
"457 882 CURVE",
"472 862 OFFCURVE",
"478 848 OFFCURVE",
"482 833 CURVE",
"485 818 OFFCURVE",
"486 802 OFFCURVE",
"487 775 CURVE SMOOTH",
"490 621 LINE SMOOTH",
"489 556 OFFCURVE",
"480 504 OFFCURVE",
"464 467 CURVE",
"477 452 OFFCURVE",
"488 441 OFFCURVE",
"496 433 CURVE",
"509 421 OFFCURVE",
"525 403 OFFCURVE",
"545 379 CURVE SMOOTH",
"585 331 OFFCURVE",
"623 307 OFFCURVE",
"661 284 CURVE SMOOTH",
"680 273 OFFCURVE",
"702 260 OFFCURVE",
"727 247 CURVE SMOOTH",
"752 234 OFFCURVE",
"773 222 OFFCURVE",
"791 211 CURVE",
"956 120 LINE SMOOTH",
"969 113 OFFCURVE",
"989 110 OFFCURVE",
"1016 110 CURVE SMOOTH",
"1019 110 LINE SMOOTH",
"1048 110 OFFCURVE",
"1070 107 OFFCURVE",
"1087 101 CURVE SMOOTH",
"1095 98 OFFCURVE",
"1099 92 OFFCURVE",
"1099 83 CURVE SMOOTH",
"1099 21 LINE SMOOTH",
"1099 20 OFFCURVE",
"1099 18 OFFCURVE",
"1100 16 CURVE SMOOTH",
"1101 14 OFFCURVE",
"1101 13 OFFCURVE",
"1101 12 CURVE SMOOTH",
"1101 11 OFFCURVE",
"1100 9 OFFCURVE",
"1099 6 CURVE",
"1095 2 OFFCURVE",
"1090 0 OFFCURVE",
"1084 0 CURVE SMOOTH",
"116 0 LINE SMOOTH",
"115 0 OFFCURVE",
"113 0 OFFCURVE",
"112 0 CURVE SMOOTH",
"111 0 OFFCURVE",
"110 0 OFFCURVE",
"109 0 CURVE SMOOTH",
"102 0 OFFCURVE",
"100 4 OFFCURVE",
"100 9 CURVE SMOOTH",
"100 10 OFFCURVE",
"100 11 OFFCURVE",
"101 13 CURVE",
"101 15 OFFCURVE",
"101 16 OFFCURVE",
"101 17 CURVE SMOOTH",
"101 83 LINE",
"102 96 OFFCURVE",
"108 102 OFFCURVE",
"120 102 CURVE SMOOTH"
);
},
{
closed = 1;
nodes = (
"361 461 OFFCURVE",
"374 445 OFFCURVE",
"374 428 CURVE SMOOTH",
"374 412 OFFCURVE",
"360 399 OFFCURVE",
"344 399 CURVE SMOOTH",
"327 399 OFFCURVE",
"312 411 OFFCURVE",
"312 427 CURVE SMOOTH",
"312 446 OFFCURVE",
"326 461 OFFCURVE",
"345 461 CURVE SMOOTH"
);
},
{
closed = 1;
nodes = (
"447 774 LINE",
"446 790 OFFCURVE",
"446 802 OFFCURVE",
"446 811 CURVE",
"445 828 OFFCURVE",
"441 835 OFFCURVE",
"429 854 CURVE",
"424 857 OFFCURVE",
"419 858 OFFCURVE",
"414 858 CURVE SMOOTH",
"411 858 OFFCURVE",
"408 858 OFFCURVE",
"407 857 CURVE",
"404 852 OFFCURVE",
"402 846 OFFCURVE",
"401 837 CURVE",
"393 625 LINE",
"409 553 LINE SMOOTH",
"412 538 OFFCURVE",
"413 529 OFFCURVE",
"413 525 CURVE SMOOTH",
"413 520 OFFCURVE",
"412 515 OFFCURVE",
"410 510 CURVE",
"420 505 OFFCURVE",
"428 500 OFFCURVE",
"433 496 CURVE",
"443 533 OFFCURVE",
"449 575 OFFCURVE",
"450 621 CURVE"
);
},
{
closed = 1;
nodes = (
"371 525 OFFCURVE",
"370 542 OFFCURVE",
"370 546 CURVE",
"364 575 LINE",
"355 546 LINE",
"354 545 OFFCURVE",
"354 545 OFFCURVE",
"354 544 CURVE",
"353 541 OFFCURVE",
"349 526 OFFCURVE",
"349 525 CURVE",
"352 522 OFFCURVE",
"357 521 OFFCURVE",
"362 523 CURVE",
"365 523 LINE SMOOTH",
"366 523 OFFCURVE",
"371 522 OFFCURVE",
"372 521 CURVE"
);
},
{
closed = 1;
nodes = (
"300 515 LINE",
"303 516 OFFCURVE",
"308 518 OFFCURVE",
"311 518 CURVE",
"310 523 OFFCURVE",
"309 527 OFFCURVE",
"309 530 CURVE SMOOTH",
"309 539 OFFCURVE",
"312 548 OFFCURVE",
"317 559 CURVE",
"339 629 LINE",
"342 678 OFFCURVE",
"344 718 OFFCURVE",
"346 750 CURVE SMOOTH",
"347 781 OFFCURVE",
"348 802 OFFCURVE",
"349 812 CURVE",
"349 821 OFFCURVE",
"349 828 OFFCURVE",
"349 833 CURVE SMOOTH",
"349 837 OFFCURVE",
"349 840 OFFCURVE",
"350 843 CURVE",
"348 850 OFFCURVE",
"346 856 OFFCURVE",
"343 860 CURVE",
"340 861 OFFCURVE",
"338 862 OFFCURVE",
"336 863 CURVE SMOOTH",
"334 864 OFFCURVE",
"333 864 OFFCURVE",
"333 864 CURVE SMOOTH",
"332 864 OFFCURVE",
"332 864 OFFCURVE",
"332 863 CURVE",
"331 862 OFFCURVE",
"329 862 OFFCURVE",
"328 861 CURVE",
"319 845 OFFCURVE",
"314 831 OFFCURVE",
"311 817 CURVE SMOOTH",
"308 803 OFFCURVE",
"306 786 OFFCURVE",
"305 765 CURVE",
"297 693 OFFCURVE",
"293 646 OFFCURVE",
"293 623 CURVE SMOOTH",
"293 608 LINE SMOOTH",
"293 580 OFFCURVE",
"295 554 OFFCURVE",
"300 530 CURVE",
"301 529 OFFCURVE",
"301 527 OFFCURVE",
"302 526 CURVE",
"302 524 OFFCURVE",
"302 523 OFFCURVE",
"303 522 CURVE",
"302 523 LINE"
);
}
);
width = 1201;
}
);
unicode = FE98;
},
{
glyphname = "tehMarbuta-ar";
lastChange = "2013-06-18 03:06:54 +0330";
layers = (
{
layerId = "3D323242-F336-407C-B164-DE86AA499667";
name = "Regular";
paths = (
{
closed = 1;
nodes = (
"139 62 LINE",
"139 40 LINE",
"1061 40 LINE",
"1061 67 LINE",
"1052 69 OFFCURVE",
"1033 71 OFFCURVE",
"1004 72 CURVE SMOOTH",
"974 73 OFFCURVE",
"952 77 OFFCURVE",
"938 84 CURVE",
"771 177 LINE SMOOTH",
"756 186 OFFCURVE",
"735 197 OFFCURVE",
"708 211 CURVE SMOOTH",
"655 239 OFFCURVE",
"621 259 OFFCURVE",
"578 291 CURVE SMOOTH",
"558 306 OFFCURVE",
"537 327 OFFCURVE",
"514 354 CURVE SMOOTH",
"491 381 OFFCURVE",
"475 398 OFFCURVE",
"468 405 CURVE SMOOTH",
"461 412 OFFCURVE",
"453 421 OFFCURVE",
"443 432 CURVE SMOOTH",
"422 455 OFFCURVE",
"410 464 OFFCURVE",
"390 475 CURVE SMOOTH",
"377 482 OFFCURVE",
"365 485 OFFCURVE",
"355 485 CURVE SMOOTH",
"346 485 OFFCURVE",
"338 484 OFFCURVE",
"329 481 CURVE",
"281 472 OFFCURVE",
"256 443 OFFCURVE",
"240 387 CURVE",
"243 388 OFFCURVE",
"245 389 OFFCURVE",
"247 390 CURVE SMOOTH",
"251 392 LINE",
"257 393 OFFCURVE",
"262 394 OFFCURVE",
"267 394 CURVE SMOOTH",
"272 394 LINE",
"277 393 OFFCURVE",
"282 392 OFFCURVE",
"288 389 CURVE SMOOTH",
"307 380 OFFCURVE",
"317 363 OFFCURVE",
"325 343 CURVE",
"328 333 OFFCURVE",
"331 326 OFFCURVE",
"334 322 CURVE",
"336 318 OFFCURVE",
"337 314 OFFCURVE",
"337 311 CURVE SMOOTH",
"337 310 OFFCURVE",
"336 307 OFFCURVE",
"335 303 CURVE",
"332 296 OFFCURVE",
"327 292 OFFCURVE",
"320 291 CURVE",
"308 290 OFFCURVE",
"306 279 OFFCURVE",
"306 270 CURVE SMOOTH",
"306 264 LINE SMOOTH",
"306 263 OFFCURVE",
"307 260 OFFCURVE",
"308 259 CURVE",
"319 235 OFFCURVE",
"318 236 OFFCURVE",
"326 223 CURVE",
"333 210 OFFCURVE",
"339 199 OFFCURVE",
"347 188 CURVE SMOOTH",
"363 165 OFFCURVE",
"376 150 OFFCURVE",
"399 125 CURVE",
"410 112 OFFCURVE",
"419 102 OFFCURVE",
"426 95 CURVE",
"429 90 OFFCURVE",
"431 86 OFFCURVE",
"431 82 CURVE SMOOTH",
"431 79 OFFCURVE",
"430 77 OFFCURVE",
"429 74 CURVE",
"426 66 OFFCURVE",
"420 62 OFFCURVE",
"411 62 CURVE SMOOTH"
);
},
{
closed = 1;
nodes = (
"367 102 LINE",
"346 125 OFFCURVE",
"329 145 OFFCURVE",
"315 164 CURVE SMOOTH",
"306 176 OFFCURVE",
"298 189 OFFCURVE",
"291 204 CURVE",
"287 211 OFFCURVE",
"284 217 OFFCURVE",
"282 220 CURVE",
"281 221 OFFCURVE",
"280 223 OFFCURVE",
"280 224 CURVE",
"277 229 OFFCURVE",
"268 246 OFFCURVE",
"267 258 CURVE",
"267 258 OFFCURVE",
"267 259 OFFCURVE",
"267 262 CURVE",
"266 265 OFFCURVE",
"266 267 OFFCURVE",
"266 270 CURVE SMOOTH",
"266 277 OFFCURVE",
"266 283 OFFCURVE",
"267 287 CURVE",
"267 288 OFFCURVE",
"267 289 OFFCURVE",
"268 290 CURVE",
"268 291 OFFCURVE",
"268 291 OFFCURVE",
"268 292 CURVE",
"273 305 OFFCURVE",
"281 315 OFFCURVE",
"290 321 CURVE",
"289 328 OFFCURVE",
"276 354 OFFCURVE",
"267 354 CURVE SMOOTH",
"264 354 OFFCURVE",
"254 350 OFFCURVE",
"239 343 CURVE",
"236 333 LINE SMOOTH",
"233 324 OFFCURVE",
"226 319 OFFCURVE",
"217 319 CURVE SMOOTH",
"215 319 LINE",
"204 320 OFFCURVE",
"198 327 OFFCURVE",
"197 338 CURVE",
"197 341 OFFCURVE",
"196 345 OFFCURVE",
"195 351 CURVE SMOOTH",
"194 356 OFFCURVE",
"193 361 OFFCURVE",
"193 365 CURVE SMOOTH",
"193 374 OFFCURVE",
"197 386 OFFCURVE",
"201 398 CURVE",
"204 409 OFFCURVE",
"207 419 OFFCURVE",
"212 429 CURVE",
"216 439 OFFCURVE",
"220 449 OFFCURVE",
"228 459 CURVE",
"231 464 OFFCURVE",
"235 469 OFFCURVE",
"240 474 CURVE",
"249 485 OFFCURVE",
"259 494 OFFCURVE",
"269 500 CURVE",
"267 504 LINE",
"264 511 OFFCURVE",
"262 518 OFFCURVE",
"261 523 CURVE SMOOTH",
"256 552 OFFCURVE",
"253 580 OFFCURVE",
"253 608 CURVE SMOOTH",
"253 624 LINE SMOOTH",
"253 647 OFFCURVE",
"257 696 OFFCURVE",
"265 769 CURVE",
"266 786 OFFCURVE",
"267 800 OFFCURVE",
"270 815 CURVE SMOOTH",
"273 830 OFFCURVE",
"276 844 OFFCURVE",
"283 860 CURVE",
"286 868 OFFCURVE",
"291 876 OFFCURVE",
"296 884 CURVE",
"297 886 OFFCURVE",
"298 888 OFFCURVE",
"300 890 CURVE",
"311 899 OFFCURVE",
"322 904 OFFCURVE",
"333 904 CURVE",
"337 903 OFFCURVE",
"339 903 OFFCURVE",
"340 903 CURVE",
"343 902 OFFCURVE",
"344 902 OFFCURVE",
"345 902 CURVE",
"350 901 OFFCURVE",
"352 900 OFFCURVE",
"356 898 CURVE",
"357 897 OFFCURVE",
"360 896 OFFCURVE",
"363 895 CURVE SMOOTH",
"369 893 OFFCURVE",
"373 889 OFFCURVE",
"376 884 CURVE",
"376 883 LINE",
"377 884 LINE",
"381 888 LINE",
"391 895 OFFCURVE",
"402 898 OFFCURVE",
"414 898 CURVE SMOOTH",
"425 898 OFFCURVE",
"437 895 OFFCURVE",
"450 888 CURVE",
"453 887 OFFCURVE",
"455 885 OFFCURVE",
"457 882 CURVE",
"472 862 OFFCURVE",
"478 848 OFFCURVE",
"482 833 CURVE",
"485 818 OFFCURVE",
"486 802 OFFCURVE",
"487 775 CURVE SMOOTH",
"490 621 LINE SMOOTH",
"489 556 OFFCURVE",
"480 504 OFFCURVE",
"464 467 CURVE",
"477 452 OFFCURVE",
"488 441 OFFCURVE",
"496 433 CURVE",
"509 421 OFFCURVE",
"525 403 OFFCURVE",
"545 379 CURVE SMOOTH",
"585 331 OFFCURVE",
"623 307 OFFCURVE",
"661 284 CURVE SMOOTH",
"680 273 OFFCURVE",
"702 260 OFFCURVE",
"727 247 CURVE SMOOTH",
"752 234 OFFCURVE",
"773 222 OFFCURVE",
"791 211 CURVE",
"956 120 LINE SMOOTH",
"969 113 OFFCURVE",
"989 110 OFFCURVE",
"1016 110 CURVE SMOOTH",
"1019 110 LINE SMOOTH",
"1048 110 OFFCURVE",
"1070 107 OFFCURVE",
"1087 101 CURVE SMOOTH",
"1095 98 OFFCURVE",
"1099 92 OFFCURVE",
"1099 83 CURVE SMOOTH",
"1099 21 LINE SMOOTH",
"1099 20 OFFCURVE",
"1099 18 OFFCURVE",
"1100 16 CURVE SMOOTH",
"1101 14 OFFCURVE",
"1101 13 OFFCURVE",
"1101 12 CURVE SMOOTH",
"1101 11 OFFCURVE",
"1100 9 OFFCURVE",
"1099 6 CURVE",
"1095 2 OFFCURVE",
"1090 0 OFFCURVE",
"1084 0 CURVE SMOOTH",
"116 0 LINE SMOOTH",
"115 0 OFFCURVE",
"113 0 OFFCURVE",
"112 0 CURVE SMOOTH",
"111 0 OFFCURVE",
"110 0 OFFCURVE",
"109 0 CURVE SMOOTH",
"102 0 OFFCURVE",
"100 4 OFFCURVE",
"100 9 CURVE SMOOTH",
"100 10 OFFCURVE",
"100 11 OFFCURVE",
"101 13 CURVE",
"101 15 OFFCURVE",
"101 16 OFFCURVE",
"101 17 CURVE SMOOTH",
"101 83 LINE",
"102 96 OFFCURVE",
"108 102 OFFCURVE",
"120 102 CURVE SMOOTH"
);
},
{
closed = 1;
nodes = (
"361 461 OFFCURVE",
"374 445 OFFCURVE",
"374 428 CURVE SMOOTH",
"374 412 OFFCURVE",
"360 399 OFFCURVE",
"344 399 CURVE SMOOTH",
"327 399 OFFCURVE",
"312 411 OFFCURVE",
"312 427 CURVE SMOOTH",
"312 446 OFFCURVE",
"326 461 OFFCURVE",
"345 461 CURVE SMOOTH"
);
},
{
closed = 1;
nodes = (
"447 774 LINE",
"446 790 OFFCURVE",
"446 802 OFFCURVE",
"446 811 CURVE",
"445 828 OFFCURVE",
"441 835 OFFCURVE",
"429 854 CURVE",
"424 857 OFFCURVE",
"419 858 OFFCURVE",
"414 858 CURVE SMOOTH",
"411 858 OFFCURVE",
"408 858 OFFCURVE",
"407 857 CURVE",
"404 852 OFFCURVE",
"402 846 OFFCURVE",
"401 837 CURVE",
"393 625 LINE",
"409 553 LINE SMOOTH",
"412 538 OFFCURVE",
"413 529 OFFCURVE",
"413 525 CURVE SMOOTH",
"413 520 OFFCURVE",
"412 515 OFFCURVE",
"410 510 CURVE",
"420 505 OFFCURVE",
"428 500 OFFCURVE",
"433 496 CURVE",
"443 533 OFFCURVE",
"449 575 OFFCURVE",
"450 621 CURVE"
);
},
{
closed = 1;
nodes = (
"371 525 OFFCURVE",
"370 542 OFFCURVE",
"370 546 CURVE",
"364 575 LINE",
"355 546 LINE",
"354 545 OFFCURVE",
"354 545 OFFCURVE",
"354 544 CURVE",
"353 541 OFFCURVE",
"349 526 OFFCURVE",
"349 525 CURVE",
"352 522 OFFCURVE",
"357 521 OFFCURVE",
"362 523 CURVE",
"365 523 LINE SMOOTH",
"366 523 OFFCURVE",
"371 522 OFFCURVE",
"372 521 CURVE"
);
},
{
closed = 1;
nodes = (
"300 515 LINE",
"303 516 OFFCURVE",
"308 518 OFFCURVE",
"311 518 CURVE",
"310 523 OFFCURVE",
"309 527 OFFCURVE",
"309 530 CURVE SMOOTH",
"309 539 OFFCURVE",
"312 548 OFFCURVE",
"317 559 CURVE",
"339 629 LINE",
"342 678 OFFCURVE",
"344 718 OFFCURVE",
"346 750 CURVE SMOOTH",
"347 781 OFFCURVE",
"348 802 OFFCURVE",
"349 812 CURVE",
"349 821 OFFCURVE",
"349 828 OFFCURVE",
"349 833 CURVE SMOOTH",
"349 837 OFFCURVE",
"349 840 OFFCURVE",
"350 843 CURVE",
"348 850 OFFCURVE",
"346 856 OFFCURVE",
"343 860 CURVE",
"340 861 OFFCURVE",
"338 862 OFFCURVE",
"336 863 CURVE SMOOTH",
"334 864 OFFCURVE",
"333 864 OFFCURVE",
"333 864 CURVE SMOOTH",
"332 864 OFFCURVE",
"332 864 OFFCURVE",
"332 863 CURVE",
"331 862 OFFCURVE",
"329 862 OFFCURVE",
"328 861 CURVE",
"319 845 OFFCURVE",
"314 831 OFFCURVE",
"311 817 CURVE SMOOTH",
"308 803 OFFCURVE",
"306 786 OFFCURVE",
"305 765 CURVE",
"297 693 OFFCURVE",
"293 646 OFFCURVE",
"293 623 CURVE SMOOTH",
"293 608 LINE SMOOTH",
"293 580 OFFCURVE",
"295 554 OFFCURVE",
"300 530 CURVE",
"301 529 OFFCURVE",
"301 527 OFFCURVE",
"302 526 CURVE",
"302 524 OFFCURVE",
"302 523 OFFCURVE",
"303 522 CURVE",
"302 523 LINE"
);
}
);
width = 1201;
}
);
unicode = 0629;
},
{
glyphname = "tehMarbuta-ar.fina";
lastChange = "2013-06-18 03:07:02 +0330";
layers = (
{
layerId = "3D323242-F336-407C-B164-DE86AA499667";
name = "Regular";
paths = (
{
closed = 1;
nodes = (
"139 62 LINE",
"139 40 LINE",
"1061 40 LINE",
"1061 67 LINE",
"1052 69 OFFCURVE",
"1033 71 OFFCURVE",
"1004 72 CURVE SMOOTH",
"974 73 OFFCURVE",
"952 77 OFFCURVE",
"938 84 CURVE",
"771 177 LINE SMOOTH",
"756 186 OFFCURVE",
"735 197 OFFCURVE",
"708 211 CURVE SMOOTH",
"655 239 OFFCURVE",
"621 259 OFFCURVE",
"578 291 CURVE SMOOTH",
"558 306 OFFCURVE",
"537 327 OFFCURVE",
"514 354 CURVE SMOOTH",
"491 381 OFFCURVE",
"475 398 OFFCURVE",
"468 405 CURVE SMOOTH",
"461 412 OFFCURVE",
"453 421 OFFCURVE",
"443 432 CURVE SMOOTH",
"422 455 OFFCURVE",
"410 464 OFFCURVE",
"390 475 CURVE SMOOTH",
"377 482 OFFCURVE",
"365 485 OFFCURVE",
"355 485 CURVE SMOOTH",
"346 485 OFFCURVE",
"338 484 OFFCURVE",
"329 481 CURVE",
"281 472 OFFCURVE",
"256 443 OFFCURVE",
"240 387 CURVE",
"243 388 OFFCURVE",
"245 389 OFFCURVE",
"247 390 CURVE SMOOTH",
"251 392 LINE",
"257 393 OFFCURVE",
"262 394 OFFCURVE",
"267 394 CURVE SMOOTH",
"272 394 LINE",
"277 393 OFFCURVE",
"282 392 OFFCURVE",
"288 389 CURVE SMOOTH",
"307 380 OFFCURVE",
"317 363 OFFCURVE",
"325 343 CURVE",
"328 333 OFFCURVE",
"331 326 OFFCURVE",
"334 322 CURVE",
"336 318 OFFCURVE",
"337 314 OFFCURVE",
"337 311 CURVE SMOOTH",
"337 310 OFFCURVE",
"336 307 OFFCURVE",
"335 303 CURVE",
"332 296 OFFCURVE",
"327 292 OFFCURVE",
"320 291 CURVE",
"308 290 OFFCURVE",
"306 279 OFFCURVE",
"306 270 CURVE SMOOTH",
"306 264 LINE SMOOTH",
"306 263 OFFCURVE",
"307 260 OFFCURVE",
"308 259 CURVE",
"319 235 OFFCURVE",
"318 236 OFFCURVE",
"326 223 CURVE",
"333 210 OFFCURVE",
"339 199 OFFCURVE",
"347 188 CURVE SMOOTH",
"363 165 OFFCURVE",
"376 150 OFFCURVE",
"399 125 CURVE",
"410 112 OFFCURVE",
"419 102 OFFCURVE",
"426 95 CURVE",
"429 90 OFFCURVE",
"431 86 OFFCURVE",
"431 82 CURVE SMOOTH",
"431 79 OFFCURVE",
"430 77 OFFCURVE",
"429 74 CURVE",
"426 66 OFFCURVE",
"420 62 OFFCURVE",
"411 62 CURVE SMOOTH"
);
},
{
closed = 1;
nodes = (
"367 102 LINE",
"346 125 OFFCURVE",
"329 145 OFFCURVE",
"315 164 CURVE SMOOTH",
"306 176 OFFCURVE",
"298 189 OFFCURVE",
"291 204 CURVE",
"287 211 OFFCURVE",
"284 217 OFFCURVE",
"282 220 CURVE",
"281 221 OFFCURVE",
"280 223 OFFCURVE",
"280 224 CURVE",
"277 229 OFFCURVE",
"268 246 OFFCURVE",
"267 258 CURVE",
"267 258 OFFCURVE",
"267 259 OFFCURVE",
"267 262 CURVE",
"266 265 OFFCURVE",
"266 267 OFFCURVE",
"266 270 CURVE SMOOTH",
"266 277 OFFCURVE",
"266 283 OFFCURVE",
"267 287 CURVE",
"267 288 OFFCURVE",
"267 289 OFFCURVE",
"268 290 CURVE",
"268 291 OFFCURVE",
"268 291 OFFCURVE",
"268 292 CURVE",
"273 305 OFFCURVE",
"281 315 OFFCURVE",
"290 321 CURVE",
"289 328 OFFCURVE",
"276 354 OFFCURVE",
"267 354 CURVE SMOOTH",
"264 354 OFFCURVE",
"254 350 OFFCURVE",
"239 343 CURVE",
"236 333 LINE SMOOTH",
"233 324 OFFCURVE",
"226 319 OFFCURVE",
"217 319 CURVE SMOOTH",
"215 319 LINE",
"204 320 OFFCURVE",
"198 327 OFFCURVE",
"197 338 CURVE",
"197 341 OFFCURVE",
"196 345 OFFCURVE",
"195 351 CURVE SMOOTH",
"194 356 OFFCURVE",
"193 361 OFFCURVE",
"193 365 CURVE SMOOTH",
"193 374 OFFCURVE",
"197 386 OFFCURVE",
"201 398 CURVE",
"204 409 OFFCURVE",
"207 419 OFFCURVE",
"212 429 CURVE",
"216 439 OFFCURVE",
"220 449 OFFCURVE",
"228 459 CURVE",
"231 464 OFFCURVE",
"235 469 OFFCURVE",
"240 474 CURVE",
"249 485 OFFCURVE",
"259 494 OFFCURVE",
"269 500 CURVE",
"267 504 LINE",
"264 511 OFFCURVE",
"262 518 OFFCURVE",
"261 523 CURVE SMOOTH",
"256 552 OFFCURVE",
"253 580 OFFCURVE",
"253 608 CURVE SMOOTH",
"253 624 LINE SMOOTH",
"253 647 OFFCURVE",
"257 696 OFFCURVE",
"265 769 CURVE",
"266 786 OFFCURVE",
"267 800 OFFCURVE",
"270 815 CURVE SMOOTH",
"273 830 OFFCURVE",
"276 844 OFFCURVE",
"283 860 CURVE",
"286 868 OFFCURVE",
"291 876 OFFCURVE",
"296 884 CURVE",
"297 886 OFFCURVE",
"298 888 OFFCURVE",
"300 890 CURVE",
"311 899 OFFCURVE",
"322 904 OFFCURVE",
"333 904 CURVE",
"337 903 OFFCURVE",
"339 903 OFFCURVE",
"340 903 CURVE",
"343 902 OFFCURVE",
"344 902 OFFCURVE",
"345 902 CURVE",
"350 901 OFFCURVE",
"352 900 OFFCURVE",
"356 898 CURVE",
"357 897 OFFCURVE",
"360 896 OFFCURVE",
"363 895 CURVE SMOOTH",
"369 893 OFFCURVE",
"373 889 OFFCURVE",
"376 884 CURVE",
"376 883 LINE",
"377 884 LINE",
"381 888 LINE",
"391 895 OFFCURVE",
"402 898 OFFCURVE",
"414 898 CURVE SMOOTH",
"425 898 OFFCURVE",
"437 895 OFFCURVE",
"450 888 CURVE",
"453 887 OFFCURVE",
"455 885 OFFCURVE",
"457 882 CURVE",
"472 862 OFFCURVE",
"478 848 OFFCURVE",
"482 833 CURVE",
"485 818 OFFCURVE",
"486 802 OFFCURVE",
"487 775 CURVE SMOOTH",
"490 621 LINE SMOOTH",
"489 556 OFFCURVE",
"480 504 OFFCURVE",
"464 467 CURVE",
"477 452 OFFCURVE",
"488 441 OFFCURVE",
"496 433 CURVE",
"509 421 OFFCURVE",
"525 403 OFFCURVE",
"545 379 CURVE SMOOTH",
"585 331 OFFCURVE",
"623 307 OFFCURVE",
"661 284 CURVE SMOOTH",
"680 273 OFFCURVE",
"702 260 OFFCURVE",
"727 247 CURVE SMOOTH",
"752 234 OFFCURVE",
"773 222 OFFCURVE",
"791 211 CURVE",
"956 120 LINE SMOOTH",
"969 113 OFFCURVE",
"989 110 OFFCURVE",
"1016 110 CURVE SMOOTH",
"1019 110 LINE SMOOTH",
"1048 110 OFFCURVE",
"1070 107 OFFCURVE",
"1087 101 CURVE SMOOTH",
"1095 98 OFFCURVE",
"1099 92 OFFCURVE",
"1099 83 CURVE SMOOTH",
"1099 21 LINE SMOOTH",
"1099 20 OFFCURVE",
"1099 18 OFFCURVE",
"1100 16 CURVE SMOOTH",
"1101 14 OFFCURVE",
"1101 13 OFFCURVE",
"1101 12 CURVE SMOOTH",
"1101 11 OFFCURVE",
"1100 9 OFFCURVE",
"1099 6 CURVE",
"1095 2 OFFCURVE",
"1090 0 OFFCURVE",
"1084 0 CURVE SMOOTH",
"116 0 LINE SMOOTH",
"115 0 OFFCURVE",
"113 0 OFFCURVE",
"112 0 CURVE SMOOTH",
"111 0 OFFCURVE",
"110 0 OFFCURVE",
"109 0 CURVE SMOOTH",
"102 0 OFFCURVE",
"100 4 OFFCURVE",
"100 9 CURVE SMOOTH",
"100 10 OFFCURVE",
"100 11 OFFCURVE",
"101 13 CURVE",
"101 15 OFFCURVE",
"101 16 OFFCURVE",
"101 17 CURVE SMOOTH",
"101 83 LINE",
"102 96 OFFCURVE",
"108 102 OFFCURVE",
"120 102 CURVE SMOOTH"
);
},
{
closed = 1;
nodes = (
"361 461 OFFCURVE",
"374 445 OFFCURVE",
"374 428 CURVE SMOOTH",
"374 412 OFFCURVE",
"360 399 OFFCURVE",
"344 399 CURVE SMOOTH",
"327 399 OFFCURVE",
"312 411 OFFCURVE",
"312 427 CURVE SMOOTH",
"312 446 OFFCURVE",
"326 461 OFFCURVE",
"345 461 CURVE SMOOTH"
);
},
{
closed = 1;
nodes = (
"447 774 LINE",
"446 790 OFFCURVE",
"446 802 OFFCURVE",
"446 811 CURVE",
"445 828 OFFCURVE",
"441 835 OFFCURVE",
"429 854 CURVE",
"424 857 OFFCURVE",
"419 858 OFFCURVE",
"414 858 CURVE SMOOTH",
"411 858 OFFCURVE",
"408 858 OFFCURVE",
"407 857 CURVE",
"404 852 OFFCURVE",
"402 846 OFFCURVE",
"401 837 CURVE",
"393 625 LINE",
"409 553 LINE SMOOTH",
"412 538 OFFCURVE",
"413 529 OFFCURVE",
"413 525 CURVE SMOOTH",
"413 520 OFFCURVE",
"412 515 OFFCURVE",
"410 510 CURVE",
"420 505 OFFCURVE",
"428 500 OFFCURVE",
"433 496 CURVE",
"443 533 OFFCURVE",
"449 575 OFFCURVE",
"450 621 CURVE"
);
},
{
closed = 1;
nodes = (
"371 525 OFFCURVE",
"370 542 OFFCURVE",
"370 546 CURVE",
"364 575 LINE",
"355 546 LINE",
"354 545 OFFCURVE",
"354 545 OFFCURVE",
"354 544 CURVE",
"353 541 OFFCURVE",
"349 526 OFFCURVE",
"349 525 CURVE",
"352 522 OFFCURVE",
"357 521 OFFCURVE",
"362 523 CURVE",
"365 523 LINE SMOOTH",
"366 523 OFFCURVE",
"371 522 OFFCURVE",
"372 521 CURVE"
);
},
{
closed = 1;
nodes = (
"300 515 LINE",
"303 516 OFFCURVE",
"308 518 OFFCURVE",
"311 518 CURVE",
"310 523 OFFCURVE",
"309 527 OFFCURVE",
"309 530 CURVE SMOOTH",
"309 539 OFFCURVE",
"312 548 OFFCURVE",
"317 559 CURVE",
"339 629 LINE",
"342 678 OFFCURVE",
"344 718 OFFCURVE",
"346 750 CURVE SMOOTH",
"347 781 OFFCURVE",
"348 802 OFFCURVE",
"349 812 CURVE",
"349 821 OFFCURVE",
"349 828 OFFCURVE",
"349 833 CURVE SMOOTH",
"349 837 OFFCURVE",
"349 840 OFFCURVE",
"350 843 CURVE",
"348 850 OFFCURVE",
"346 856 OFFCURVE",
"343 860 CURVE",
"340 861 OFFCURVE",
"338 862 OFFCURVE",
"336 863 CURVE SMOOTH",
"334 864 OFFCURVE",
"333 864 OFFCURVE",
"333 864 CURVE SMOOTH",
"332 864 OFFCURVE",
"332 864 OFFCURVE",
"332 863 CURVE",
"331 862 OFFCURVE",
"329 862 OFFCURVE",
"328 861 CURVE",
"319 845 OFFCURVE",
"314 831 OFFCURVE",
"311 817 CURVE SMOOTH",
"308 803 OFFCURVE",
"306 786 OFFCURVE",
"305 765 CURVE",
"297 693 OFFCURVE",
"293 646 OFFCURVE",
"293 623 CURVE SMOOTH",
"293 608 LINE SMOOTH",
"293 580 OFFCURVE",
"295 554 OFFCURVE",
"300 530 CURVE",
"301 529 OFFCURVE",
"301 527 OFFCURVE",
"302 526 CURVE",
"302 524 OFFCURVE",
"302 523 OFFCURVE",
"303 522 CURVE",
"302 523 LINE"
);
}
);
width = 1201;
}
);
unicode = FE94;
},
{
glyphname = "tehMarbutagoal-ar";
lastChange = "2013-06-18 03:07:13 +0330";
layers = (
{
layerId = "3D323242-F336-407C-B164-DE86AA499667";
name = "Regular";
paths = (
{
closed = 1;
nodes = (
"139 62 LINE",
"139 40 LINE",
"1061 40 LINE",
"1061 67 LINE",
"1052 69 OFFCURVE",
"1033 71 OFFCURVE",
"1004 72 CURVE SMOOTH",
"974 73 OFFCURVE",
"952 77 OFFCURVE",
"938 84 CURVE",
"771 177 LINE SMOOTH",
"756 186 OFFCURVE",
"735 197 OFFCURVE",
"708 211 CURVE SMOOTH",
"655 239 OFFCURVE",
"621 259 OFFCURVE",
"578 291 CURVE SMOOTH",
"558 306 OFFCURVE",
"537 327 OFFCURVE",
"514 354 CURVE SMOOTH",
"491 381 OFFCURVE",
"475 398 OFFCURVE",
"468 405 CURVE SMOOTH",
"461 412 OFFCURVE",
"453 421 OFFCURVE",
"443 432 CURVE SMOOTH",
"422 455 OFFCURVE",
"410 464 OFFCURVE",
"390 475 CURVE SMOOTH",
"377 482 OFFCURVE",
"365 485 OFFCURVE",
"355 485 CURVE SMOOTH",
"346 485 OFFCURVE",
"338 484 OFFCURVE",
"329 481 CURVE",
"281 472 OFFCURVE",
"256 443 OFFCURVE",
"240 387 CURVE",
"243 388 OFFCURVE",
"245 389 OFFCURVE",
"247 390 CURVE SMOOTH",
"251 392 LINE",
"257 393 OFFCURVE",
"262 394 OFFCURVE",
"267 394 CURVE SMOOTH",
"272 394 LINE",
"277 393 OFFCURVE",
"282 392 OFFCURVE",
"288 389 CURVE SMOOTH",
"307 380 OFFCURVE",
"317 363 OFFCURVE",
"325 343 CURVE",
"328 333 OFFCURVE",
"331 326 OFFCURVE",
"334 322 CURVE",
"336 318 OFFCURVE",
"337 314 OFFCURVE",
"337 311 CURVE SMOOTH",
"337 310 OFFCURVE",
"336 307 OFFCURVE",
"335 303 CURVE",
"332 296 OFFCURVE",
"327 292 OFFCURVE",
"320 291 CURVE",
"308 290 OFFCURVE",
"306 279 OFFCURVE",
"306 270 CURVE SMOOTH",
"306 264 LINE SMOOTH",
"306 263 OFFCURVE",
"307 260 OFFCURVE",
"308 259 CURVE",
"319 235 OFFCURVE",
"318 236 OFFCURVE",
"326 223 CURVE",
"333 210 OFFCURVE",
"339 199 OFFCURVE",
"347 188 CURVE SMOOTH",
"363 165 OFFCURVE",
"376 150 OFFCURVE",
"399 125 CURVE",
"410 112 OFFCURVE",
"419 102 OFFCURVE",
"426 95 CURVE",
"429 90 OFFCURVE",
"431 86 OFFCURVE",
"431 82 CURVE SMOOTH",
"431 79 OFFCURVE",
"430 77 OFFCURVE",
"429 74 CURVE",
"426 66 OFFCURVE",
"420 62 OFFCURVE",
"411 62 CURVE SMOOTH"
);
},
{
closed = 1;
nodes = (
"367 102 LINE",
"346 125 OFFCURVE",
"329 145 OFFCURVE",
"315 164 CURVE SMOOTH",
"306 176 OFFCURVE",
"298 189 OFFCURVE",
"291 204 CURVE",
"287 211 OFFCURVE",
"284 217 OFFCURVE",
"282 220 CURVE",
"281 221 OFFCURVE",
"280 223 OFFCURVE",
"280 224 CURVE",
"277 229 OFFCURVE",
"268 246 OFFCURVE",
"267 258 CURVE",
"267 258 OFFCURVE",
"267 259 OFFCURVE",
"267 262 CURVE",
"266 265 OFFCURVE",
"266 267 OFFCURVE",
"266 270 CURVE SMOOTH",
"266 277 OFFCURVE",
"266 283 OFFCURVE",
"267 287 CURVE",
"267 288 OFFCURVE",
"267 289 OFFCURVE",
"268 290 CURVE",
"268 291 OFFCURVE",
"268 291 OFFCURVE",
"268 292 CURVE",
"273 305 OFFCURVE",
"281 315 OFFCURVE",
"290 321 CURVE",
"289 328 OFFCURVE",
"276 354 OFFCURVE",
"267 354 CURVE SMOOTH",
"264 354 OFFCURVE",
"254 350 OFFCURVE",
"239 343 CURVE",
"236 333 LINE SMOOTH",
"233 324 OFFCURVE",
"226 319 OFFCURVE",
"217 319 CURVE SMOOTH",
"215 319 LINE",
"204 320 OFFCURVE",
"198 327 OFFCURVE",
"197 338 CURVE",
"197 341 OFFCURVE",
"196 345 OFFCURVE",
"195 351 CURVE SMOOTH",
"194 356 OFFCURVE",
"193 361 OFFCURVE",
"193 365 CURVE SMOOTH",
"193 374 OFFCURVE",
"197 386 OFFCURVE",
"201 398 CURVE",
"204 409 OFFCURVE",
"207 419 OFFCURVE",
"212 429 CURVE",
"216 439 OFFCURVE",
"220 449 OFFCURVE",
"228 459 CURVE",
"231 464 OFFCURVE",
"235 469 OFFCURVE",
"240 474 CURVE",
"249 485 OFFCURVE",
"259 494 OFFCURVE",
"269 500 CURVE",
"267 504 LINE",
"264 511 OFFCURVE",
"262 518 OFFCURVE",
"261 523 CURVE SMOOTH",
"256 552 OFFCURVE",
"253 580 OFFCURVE",
"253 608 CURVE SMOOTH",
"253 624 LINE SMOOTH",
"253 647 OFFCURVE",
"257 696 OFFCURVE",
"265 769 CURVE",
"266 786 OFFCURVE",
"267 800 OFFCURVE",
"270 815 CURVE SMOOTH",
"273 830 OFFCURVE",
"276 844 OFFCURVE",
"283 860 CURVE",
"286 868 OFFCURVE",
"291 876 OFFCURVE",
"296 884 CURVE",
"297 886 OFFCURVE",
"298 888 OFFCURVE",
"300 890 CURVE",
"311 899 OFFCURVE",
"322 904 OFFCURVE",
"333 904 CURVE",
"337 903 OFFCURVE",
"339 903 OFFCURVE",
"340 903 CURVE",
"343 902 OFFCURVE",
"344 902 OFFCURVE",
"345 902 CURVE",
"350 901 OFFCURVE",
"352 900 OFFCURVE",
"356 898 CURVE",
"357 897 OFFCURVE",
"360 896 OFFCURVE",
"363 895 CURVE SMOOTH",
"369 893 OFFCURVE",
"373 889 OFFCURVE",
"376 884 CURVE",
"376 883 LINE",
"377 884 LINE",
"381 888 LINE",
"391 895 OFFCURVE",
"402 898 OFFCURVE",
"414 898 CURVE SMOOTH",
"425 898 OFFCURVE",
"437 895 OFFCURVE",
"450 888 CURVE",
"453 887 OFFCURVE",
"455 885 OFFCURVE",
"457 882 CURVE",
"472 862 OFFCURVE",
"478 848 OFFCURVE",
"482 833 CURVE",
"485 818 OFFCURVE",
"486 802 OFFCURVE",
"487 775 CURVE SMOOTH",
"490 621 LINE SMOOTH",
"489 556 OFFCURVE",
"480 504 OFFCURVE",
"464 467 CURVE",
"477 452 OFFCURVE",
"488 441 OFFCURVE",
"496 433 CURVE",
"509 421 OFFCURVE",
"525 403 OFFCURVE",
"545 379 CURVE SMOOTH",
"585 331 OFFCURVE",
"623 307 OFFCURVE",
"661 284 CURVE SMOOTH",
"680 273 OFFCURVE",
"702 260 OFFCURVE",
"727 247 CURVE SMOOTH",
"752 234 OFFCURVE",
"773 222 OFFCURVE",
"791 211 CURVE",
"956 120 LINE SMOOTH",
"969 113 OFFCURVE",
"989 110 OFFCURVE",
"1016 110 CURVE SMOOTH",
"1019 110 LINE SMOOTH",
"1048 110 OFFCURVE",
"1070 107 OFFCURVE",
"1087 101 CURVE SMOOTH",
"1095 98 OFFCURVE",
"1099 92 OFFCURVE",
"1099 83 CURVE SMOOTH",
"1099 21 LINE SMOOTH",
"1099 20 OFFCURVE",
"1099 18 OFFCURVE",
"1100 16 CURVE SMOOTH",
"1101 14 OFFCURVE",
"1101 13 OFFCURVE",
"1101 12 CURVE SMOOTH",
"1101 11 OFFCURVE",
"1100 9 OFFCURVE",
"1099 6 CURVE",
"1095 2 OFFCURVE",
"1090 0 OFFCURVE",
"1084 0 CURVE SMOOTH",
"116 0 LINE SMOOTH",
"115 0 OFFCURVE",
"113 0 OFFCURVE",
"112 0 CURVE SMOOTH",
"111 0 OFFCURVE",
"110 0 OFFCURVE",
"109 0 CURVE SMOOTH",
"102 0 OFFCURVE",
"100 4 OFFCURVE",
"100 9 CURVE SMOOTH",
"100 10 OFFCURVE",
"100 11 OFFCURVE",
"101 13 CURVE",
"101 15 OFFCURVE",
"101 16 OFFCURVE",
"101 17 CURVE SMOOTH",
"101 83 LINE",
"102 96 OFFCURVE",
"108 102 OFFCURVE",
"120 102 CURVE SMOOTH"
);
},
{
closed = 1;
nodes = (
"361 461 OFFCURVE",
"374 445 OFFCURVE",
"374 428 CURVE SMOOTH",
"374 412 OFFCURVE",
"360 399 OFFCURVE",
"344 399 CURVE SMOOTH",
"327 399 OFFCURVE",
"312 411 OFFCURVE",
"312 427 CURVE SMOOTH",
"312 446 OFFCURVE",
"326 461 OFFCURVE",
"345 461 CURVE SMOOTH"
);
},
{
closed = 1;
nodes = (
"447 774 LINE",
"446 790 OFFCURVE",
"446 802 OFFCURVE",
"446 811 CURVE",
"445 828 OFFCURVE",
"441 835 OFFCURVE",
"429 854 CURVE",
"424 857 OFFCURVE",
"419 858 OFFCURVE",
"414 858 CURVE SMOOTH",
"411 858 OFFCURVE",
"408 858 OFFCURVE",
"407 857 CURVE",
"404 852 OFFCURVE",
"402 846 OFFCURVE",
"401 837 CURVE",
"393 625 LINE",
"409 553 LINE SMOOTH",
"412 538 OFFCURVE",
"413 529 OFFCURVE",
"413 525 CURVE SMOOTH",
"413 520 OFFCURVE",
"412 515 OFFCURVE",
"410 510 CURVE",
"420 505 OFFCURVE",
"428 500 OFFCURVE",
"433 496 CURVE",
"443 533 OFFCURVE",
"449 575 OFFCURVE",
"450 621 CURVE"
);
},
{
closed = 1;
nodes = (
"371 525 OFFCURVE",
"370 542 OFFCURVE",
"370 546 CURVE",
"364 575 LINE",
"355 546 LINE",
"354 545 OFFCURVE",
"354 545 OFFCURVE",
"354 544 CURVE",
"353 541 OFFCURVE",
"349 526 OFFCURVE",
"349 525 CURVE",
"352 522 OFFCURVE",
"357 521 OFFCURVE",
"362 523 CURVE",
"365 523 LINE SMOOTH",
"366 523 OFFCURVE",
"371 522 OFFCURVE",
"372 521 CURVE"
);
},
{
closed = 1;
nodes = (
"300 515 LINE",
"303 516 OFFCURVE",
"308 518 OFFCURVE",
"311 518 CURVE",
"310 523 OFFCURVE",
"309 527 OFFCURVE",
"309 530 CURVE SMOOTH",
"309 539 OFFCURVE",
"312 548 OFFCURVE",
"317 559 CURVE",
"339 629 LINE",
"342 678 OFFCURVE",
"344 718 OFFCURVE",
"346 750 CURVE SMOOTH",
"347 781 OFFCURVE",
"348 802 OFFCURVE",
"349 812 CURVE",
"349 821 OFFCURVE",
"349 828 OFFCURVE",
"349 833 CURVE SMOOTH",
"349 837 OFFCURVE",
"349 840 OFFCURVE",
"350 843 CURVE",
"348 850 OFFCURVE",
"346 856 OFFCURVE",
"343 860 CURVE",
"340 861 OFFCURVE",
"338 862 OFFCURVE",
"336 863 CURVE SMOOTH",
"334 864 OFFCURVE",
"333 864 OFFCURVE",
"333 864 CURVE SMOOTH",
"332 864 OFFCURVE",
"332 864 OFFCURVE",
"332 863 CURVE",
"331 862 OFFCURVE",
"329 862 OFFCURVE",
"328 861 CURVE",
"319 845 OFFCURVE",
"314 831 OFFCURVE",
"311 817 CURVE SMOOTH",
"308 803 OFFCURVE",
"306 786 OFFCURVE",
"305 765 CURVE",
"297 693 OFFCURVE",
"293 646 OFFCURVE",
"293 623 CURVE SMOOTH",
"293 608 LINE SMOOTH",
"293 580 OFFCURVE",
"295 554 OFFCURVE",
"300 530 CURVE",
"301 529 OFFCURVE",
"301 527 OFFCURVE",
"302 526 CURVE",
"302 524 OFFCURVE",
"302 523 OFFCURVE",
"303 522 CURVE",
"302 523 LINE"
);
}
);
width = 1201;
}
);
unicode = 06C3;
},
{
glyphname = "zero";
lastChange = "2013-06-18 02:30:24 +0330";
layers = (
{
layerId = "3D323242-F336-407C-B164-DE86AA499667";
name = "Regular";
paths = (
{
closed = 1;
nodes = (
"348 57 OFFCURVE",
"294 0 OFFCURVE",
"226 0 CURVE SMOOTH",
"156 0 OFFCURVE",
"100 54 OFFCURVE",
"100 123 CURVE SMOOTH",
"100 190 OFFCURVE",
"154 244 OFFCURVE",
"219 244 CURVE SMOOTH",
"289 244 OFFCURVE",
"348 193 OFFCURVE",
"348 127 CURVE SMOOTH"
);
},
{
closed = 1;
nodes = (
"329 135 LINE",
"325 187 OFFCURVE",
"277 226 OFFCURVE",
"219 226 CURVE SMOOTH",
"170 226 OFFCURVE",
"127 187 OFFCURVE",
"119 136 CURVE"
);
},
{
closed = 1;
nodes = (
"119 117 LINE",
"122 62 OFFCURVE",
"169 18 OFFCURVE",
"226 18 CURVE SMOOTH",
"279 18 OFFCURVE",
"323 62 OFFCURVE",
"329 117 CURVE"
);
}
);
width = 448;
}
);
unicode = 0030;
},
{
glyphname = "one";
lastChange = "2013-06-18 02:30:38 +0330";
layers = (
{
layerId = "3D323242-F336-407C-B164-DE86AA499667";
name = "Regular";
paths = (
{
closed = 1;
nodes = (
"371 60 OFFCURVE",
"309 0 OFFCURVE",
"236 0 CURVE SMOOTH",
"163 0 OFFCURVE",
"100 59 OFFCURVE",
"100 132 CURVE SMOOTH",
"100 208 OFFCURVE",
"163 271 OFFCURVE",
"239 271 CURVE SMOOTH",
"312 271 OFFCURVE",
"371 208 OFFCURVE",
"371 133 CURVE SMOOTH"
);
},
{
closed = 1;
nodes = (
"184 231 OFFCURVE",
"140 185 OFFCURVE",
"140 132 CURVE SMOOTH",
"140 81 OFFCURVE",
"184 40 OFFCURVE",
"236 40 CURVE SMOOTH",
"288 40 OFFCURVE",
"331 82 OFFCURVE",
"331 133 CURVE SMOOTH",
"331 186 OFFCURVE",
"290 231 OFFCURVE",
"239 231 CURVE SMOOTH"
);
}
);
width = 471;
}
);
unicode = 0031;
},
{
glyphname = "two";
lastChange = "2013-06-18 02:30:48 +0330";
layers = (
{
layerId = "3D323242-F336-407C-B164-DE86AA499667";
name = "Regular";
paths = (
{
closed = 1;
nodes = (
"371 422 OFFCURVE",
"309 363 OFFCURVE",
"236 363 CURVE SMOOTH",
"163 363 OFFCURVE",
"100 421 OFFCURVE",
"100 494 CURVE SMOOTH",
"100 571 OFFCURVE",
"163 633 OFFCURVE",
"239 633 CURVE SMOOTH",
"314 633 OFFCURVE",
"371 570 OFFCURVE",
"371 495 CURVE SMOOTH"
);
},
{
closed = 1;
nodes = (
"184 593 OFFCURVE",
"140 549 OFFCURVE",
"140 494 CURVE SMOOTH",
"140 443 OFFCURVE",
"184 403 OFFCURVE",
"236 403 CURVE SMOOTH",
"288 403 OFFCURVE",
"331 444 OFFCURVE",
"331 495 CURVE SMOOTH",
"331 550 OFFCURVE",
"290 593 OFFCURVE",
"239 593 CURVE SMOOTH"
);
},
{
closed = 1;
nodes = (
"358 203 OFFCURVE",
"371 170 OFFCURVE",
"371 133 CURVE SMOOTH",
"371 58 OFFCURVE",
"309 0 OFFCURVE",
"236 0 CURVE SMOOTH",
"163 0 OFFCURVE",
"100 57 OFFCURVE",
"100 132 CURVE SMOOTH",
"100 208 OFFCURVE",
"163 270 OFFCURVE",
"239 270 CURVE SMOOTH",
"276 270 OFFCURVE",
"307 257 OFFCURVE",
"333 230 CURVE SMOOTH"
);
},
{
closed = 1;
nodes = (
"184 230 OFFCURVE",
"140 185 OFFCURVE",
"140 132 CURVE SMOOTH",
"140 81 OFFCURVE",
"184 40 OFFCURVE",
"236 40 CURVE SMOOTH",
"288 40 OFFCURVE",
"331 81 OFFCURVE",
"331 133 CURVE SMOOTH",
"331 186 OFFCURVE",
"290 230 OFFCURVE",
"239 230 CURVE SMOOTH"
);
}
);
width = 471;
}
);
unicode = 0032;
},
{
glyphname = "three";
lastChange = "2013-06-18 02:31:02 +0330";
layers = (
{
layerId = "3D323242-F336-407C-B164-DE86AA499667";
name = "Regular";
paths = (
{
closed = 1;
nodes = (
"370 63 OFFCURVE",
"312 0 OFFCURVE",
"239 0 CURVE SMOOTH",
"162 0 OFFCURVE",
"100 62 OFFCURVE",
"100 139 CURVE SMOOTH",
"100 212 OFFCURVE",
"163 270 OFFCURVE",
"236 270 CURVE SMOOTH",
"309 270 OFFCURVE",
"370 211 OFFCURVE",
"370 138 CURVE SMOOTH"
);
},
{
closed = 1;
nodes = (
"290 40 OFFCURVE",
"330 83 OFFCURVE",
"330 138 CURVE SMOOTH",
"330 189 OFFCURVE",
"288 230 OFFCURVE",
"236 230 CURVE SMOOTH",
"183 230 OFFCURVE",
"140 190 OFFCURVE",
"140 139 CURVE SMOOTH",
"140 84 OFFCURVE",
"184 40 OFFCURVE",
"239 40 CURVE SMOOTH"
);
},
{
closed = 1;
nodes = (
"731 63 OFFCURVE",
"674 0 OFFCURVE",
"599 0 CURVE SMOOTH",
"523 0 OFFCURVE",
"461 62 OFFCURVE",
"461 139 CURVE SMOOTH",
"461 212 OFFCURVE",
"523 270 OFFCURVE",
"596 270 CURVE SMOOTH",
"671 270 OFFCURVE",
"731 211 OFFCURVE",
"731 138 CURVE SMOOTH"
);
},
{
closed = 1;
nodes = (
"651 40 OFFCURVE",
"691 83 OFFCURVE",
"691 138 CURVE SMOOTH",
"691 189 OFFCURVE",
"648 230 OFFCURVE",
"596 230 CURVE SMOOTH",
"544 230 OFFCURVE",
"501 188 OFFCURVE",
"501 139 CURVE SMOOTH",
"501 84 OFFCURVE",
"544 40 OFFCURVE",
"599 40 CURVE SMOOTH"
);
},
{
closed = 1;
nodes = (
"490 358 OFFCURVE",
"459 345 OFFCURVE",
"422 345 CURVE SMOOTH",
"346 345 OFFCURVE",
"283 407 OFFCURVE",
"283 483 CURVE SMOOTH",
"283 558 OFFCURVE",
"346 615 OFFCURVE",
"419 615 CURVE SMOOTH",
"492 615 OFFCURVE",
"554 557 OFFCURVE",
"554 482 CURVE SMOOTH",
"554 445 OFFCURVE",
"541 412 OFFCURVE",
"516 385 CURVE SMOOTH"
);
},
{
closed = 1;
nodes = (
"473 385 OFFCURVE",
"514 429 OFFCURVE",
"514 482 CURVE SMOOTH",
"514 534 OFFCURVE",
"471 575 OFFCURVE",
"419 575 CURVE SMOOTH",
"367 575 OFFCURVE",
"323 534 OFFCURVE",
"323 483 CURVE SMOOTH",
"323 430 OFFCURVE",
"367 385 OFFCURVE",
"422 385 CURVE SMOOTH"
);
}
);
width = 831;
}
);
unicode = 0033;
},
{
glyphname = "four";
lastChange = "2013-06-18 02:31:05 +0330";
layers = (
{
layerId = "3D323242-F336-407C-B164-DE86AA499667";
name = "Regular";
paths = (
{
closed = 1;
nodes = (
"370 422 OFFCURVE",
"309 363 OFFCURVE",
"236 363 CURVE SMOOTH",
"163 363 OFFCURVE",
"100 421 OFFCURVE",
"100 494 CURVE SMOOTH",
"100 571 OFFCURVE",
"162 633 OFFCURVE",
"239 633 CURVE SMOOTH",
"312 633 OFFCURVE",
"370 570 OFFCURVE",
"370 495 CURVE SMOOTH"
);
},
{
closed = 1;
nodes = (
"184 593 OFFCURVE",
"140 549 OFFCURVE",
"140 494 CURVE SMOOTH",
"140 443 OFFCURVE",
"183 403 OFFCURVE",
"236 403 CURVE SMOOTH",
"288 403 OFFCURVE",
"330 444 OFFCURVE",
"330 495 CURVE SMOOTH",
"330 550 OFFCURVE",
"290 593 OFFCURVE",
"239 593 CURVE SMOOTH"
);
},
{
closed = 1;
nodes = (
"731 422 OFFCURVE",
"671 363 OFFCURVE",
"596 363 CURVE SMOOTH",
"523 363 OFFCURVE",
"461 421 OFFCURVE",
"461 494 CURVE SMOOTH",
"461 571 OFFCURVE",
"523 633 OFFCURVE",
"599 633 CURVE SMOOTH",
"674 633 OFFCURVE",
"731 570 OFFCURVE",
"731 495 CURVE SMOOTH"
);
},
{
closed = 1;
nodes = (
"544 593 OFFCURVE",
"501 549 OFFCURVE",
"501 494 CURVE SMOOTH",
"501 443 OFFCURVE",
"544 403 OFFCURVE",
"596 403 CURVE SMOOTH",
"648 403 OFFCURVE",
"691 444 OFFCURVE",
"691 495 CURVE SMOOTH",
"691 550 OFFCURVE",
"651 593 OFFCURVE",
"599 593 CURVE SMOOTH"
);
},
{
closed = 1;
nodes = (
"357 203 OFFCURVE",
"370 170 OFFCURVE",
"370 133 CURVE SMOOTH",
"370 58 OFFCURVE",
"309 0 OFFCURVE",
"236 0 CURVE SMOOTH",
"163 0 OFFCURVE",
"100 57 OFFCURVE",
"100 132 CURVE SMOOTH",
"100 208 OFFCURVE",
"162 270 OFFCURVE",
"239 270 CURVE SMOOTH",
"276 270 OFFCURVE",
"307 257 OFFCURVE",
"332 230 CURVE SMOOTH"
);
},
{
closed = 1;
nodes = (
"184 230 OFFCURVE",
"140 187 OFFCURVE",
"140 132 CURVE SMOOTH",
"140 81 OFFCURVE",
"183 40 OFFCURVE",
"236 40 CURVE SMOOTH",
"288 40 OFFCURVE",
"330 81 OFFCURVE",
"330 133 CURVE SMOOTH",
"330 186 OFFCURVE",
"290 230 OFFCURVE",
"239 230 CURVE SMOOTH"
);
},
{
closed = 1;
nodes = (
"718 203 OFFCURVE",
"731 170 OFFCURVE",
"731 133 CURVE SMOOTH",
"731 58 OFFCURVE",
"671 0 OFFCURVE",
"596 0 CURVE SMOOTH",
"523 0 OFFCURVE",
"461 57 OFFCURVE",
"461 132 CURVE SMOOTH",
"461 208 OFFCURVE",
"523 270 OFFCURVE",
"599 270 CURVE SMOOTH",
"636 270 OFFCURVE",
"668 257 OFFCURVE",
"693 230 CURVE SMOOTH"
);
},
{
closed = 1;
nodes = (
"544 230 OFFCURVE",
"501 185 OFFCURVE",
"501 132 CURVE SMOOTH",
"501 81 OFFCURVE",
"544 40 OFFCURVE",
"596 40 CURVE SMOOTH",
"648 40 OFFCURVE",
"691 81 OFFCURVE",
"691 133 CURVE SMOOTH",
"691 186 OFFCURVE",
"651 230 OFFCURVE",
"599 230 CURVE SMOOTH"
);
}
);
width = 831;
}
);
unicode = 0034;
},
{
glyphname = "five";
lastChange = "2013-06-18 02:31:09 +0330";
layers = (
{
layerId = "3D323242-F336-407C-B164-DE86AA499667";
name = "Regular";
paths = (
{
closed = 1;
nodes = (
"371 63 OFFCURVE",
"314 0 OFFCURVE",
"239 0 CURVE SMOOTH",
"163 0 OFFCURVE",
"100 62 OFFCURVE",
"100 139 CURVE SMOOTH",
"100 212 OFFCURVE",
"163 270 OFFCURVE",
"236 270 CURVE SMOOTH",
"309 270 OFFCURVE",
"371 211 OFFCURVE",
"371 138 CURVE SMOOTH"
);
},
{
closed = 1;
nodes = (
"290 40 OFFCURVE",
"331 83 OFFCURVE",
"331 138 CURVE SMOOTH",
"331 189 OFFCURVE",
"288 230 OFFCURVE",
"236 230 CURVE SMOOTH",
"184 230 OFFCURVE",
"140 190 OFFCURVE",
"140 139 CURVE SMOOTH",
"140 84 OFFCURVE",
"184 40 OFFCURVE",
"239 40 CURVE SMOOTH"
);
},
{
closed = 1;
nodes = (
"1095 66 OFFCURVE",
"1038 3 OFFCURVE",
"963 3 CURVE SMOOTH",
"886 3 OFFCURVE",
"824 65 OFFCURVE",
"824 142 CURVE SMOOTH",
"824 215 OFFCURVE",
"887 273 OFFCURVE",
"960 273 CURVE SMOOTH",
"1033 273 OFFCURVE",
"1095 214 OFFCURVE",
"1095 141 CURVE SMOOTH"
);
},
{
closed = 1;
nodes = (
"1014 43 OFFCURVE",
"1055 86 OFFCURVE",
"1055 141 CURVE SMOOTH",
"1055 192 OFFCURVE",
"1012 233 OFFCURVE",
"960 233 CURVE SMOOTH",
"908 233 OFFCURVE",
"864 191 OFFCURVE",
"864 142 CURVE SMOOTH",
"864 87 OFFCURVE",
"908 43 OFFCURVE",
"963 43 CURVE SMOOTH"
);
},
{
closed = 1;
nodes = (
"732 63 OFFCURVE",
"675 0 OFFCURVE",
"600 0 CURVE SMOOTH",
"524 0 OFFCURVE",
"461 62 OFFCURVE",
"461 139 CURVE SMOOTH",
"461 212 OFFCURVE",
"524 270 OFFCURVE",
"597 270 CURVE SMOOTH",
"670 270 OFFCURVE",
"732 211 OFFCURVE",
"732 138 CURVE SMOOTH"
);
},
{
closed = 1;
nodes = (
"651 40 OFFCURVE",
"692 83 OFFCURVE",
"692 138 CURVE SMOOTH",
"692 189 OFFCURVE",
"649 230 OFFCURVE",
"597 230 CURVE SMOOTH",
"545 230 OFFCURVE",
"501 190 OFFCURVE",
"501 139 CURVE SMOOTH",
"501 84 OFFCURVE",
"545 40 OFFCURVE",
"600 40 CURVE SMOOTH"
);
},
{
closed = 1;
nodes = (
"486 360 OFFCURVE",
"455 347 OFFCURVE",
"418 347 CURVE SMOOTH",
"341 347 OFFCURVE",
"279 409 OFFCURVE",
"279 485 CURVE SMOOTH",
"279 560 OFFCURVE",
"342 617 OFFCURVE",
"415 617 CURVE SMOOTH",
"488 617 OFFCURVE",
"549 559 OFFCURVE",
"549 484 CURVE SMOOTH",
"549 447 OFFCURVE",
"536 414 OFFCURVE",
"511 387 CURVE SMOOTH"
);
},
{
closed = 1;
nodes = (
"469 387 OFFCURVE",
"509 431 OFFCURVE",
"509 484 CURVE SMOOTH",
"509 536 OFFCURVE",
"467 577 OFFCURVE",
"415 577 CURVE SMOOTH",
"362 577 OFFCURVE",
"319 536 OFFCURVE",
"319 485 CURVE SMOOTH",
"319 430 OFFCURVE",
"363 387 OFFCURVE",
"418 387 CURVE SMOOTH"
);
},
{
closed = 1;
nodes = (
"847 360 OFFCURVE",
"815 347 OFFCURVE",
"778 347 CURVE SMOOTH",
"702 347 OFFCURVE",
"640 409 OFFCURVE",
"640 485 CURVE SMOOTH",
"640 560 OFFCURVE",
"702 617 OFFCURVE",
"775 617 CURVE SMOOTH",
"850 617 OFFCURVE",
"910 559 OFFCURVE",
"910 484 CURVE SMOOTH",
"910 447 OFFCURVE",
"897 414 OFFCURVE",
"872 387 CURVE SMOOTH"
);
},
{
closed = 1;
nodes = (
"830 387 OFFCURVE",
"870 431 OFFCURVE",
"870 484 CURVE SMOOTH",
"870 536 OFFCURVE",
"827 577 OFFCURVE",
"775 577 CURVE SMOOTH",
"723 577 OFFCURVE",
"680 536 OFFCURVE",
"680 485 CURVE SMOOTH",
"680 432 OFFCURVE",
"725 387 OFFCURVE",
"778 387 CURVE SMOOTH"
);
}
);
width = 1195;
}
);
unicode = 0035;
},
{
glyphname = "six";
lastChange = "2013-06-18 02:31:12 +0330";
layers = (
{
layerId = "3D323242-F336-407C-B164-DE86AA499667";
name = "Regular";
paths = (
{
closed = 1;
nodes = (
"371 425 OFFCURVE",
"309 366 OFFCURVE",
"236 366 CURVE SMOOTH",
"163 366 OFFCURVE",
"100 424 OFFCURVE",
"100 497 CURVE SMOOTH",
"100 574 OFFCURVE",
"163 636 OFFCURVE",
"239 636 CURVE SMOOTH",
"314 636 OFFCURVE",
"371 573 OFFCURVE",
"371 498 CURVE SMOOTH"
);
},
{
closed = 1;
nodes = (
"184 596 OFFCURVE",
"140 552 OFFCURVE",
"140 497 CURVE SMOOTH",
"140 446 OFFCURVE",
"184 406 OFFCURVE",
"236 406 CURVE SMOOTH",
"288 406 OFFCURVE",
"331 447 OFFCURVE",
"331 498 CURVE SMOOTH",
"331 553 OFFCURVE",
"290 596 OFFCURVE",
"239 596 CURVE SMOOTH"
);
},
{
closed = 1;
nodes = (
"1095 422 OFFCURVE",
"1033 363 OFFCURVE",
"960 363 CURVE SMOOTH",
"887 363 OFFCURVE",
"824 421 OFFCURVE",
"824 494 CURVE SMOOTH",
"824 571 OFFCURVE",
"886 633 OFFCURVE",
"963 633 CURVE SMOOTH",
"1038 633 OFFCURVE",
"1095 570 OFFCURVE",
"1095 495 CURVE SMOOTH"
);
},
{
closed = 1;
nodes = (
"908 593 OFFCURVE",
"864 549 OFFCURVE",
"864 494 CURVE SMOOTH",
"864 443 OFFCURVE",
"908 403 OFFCURVE",
"960 403 CURVE SMOOTH",
"1012 403 OFFCURVE",
"1055 444 OFFCURVE",
"1055 495 CURVE SMOOTH",
"1055 550 OFFCURVE",
"1014 593 OFFCURVE",
"963 593 CURVE SMOOTH"
);
},
{
closed = 1;
nodes = (
"732 425 OFFCURVE",
"670 366 OFFCURVE",
"597 366 CURVE SMOOTH",
"524 366 OFFCURVE",
"461 424 OFFCURVE",
"461 497 CURVE SMOOTH",
"461 574 OFFCURVE",
"524 636 OFFCURVE",
"600 636 CURVE SMOOTH",
"675 636 OFFCURVE",
"732 573 OFFCURVE",
"732 498 CURVE SMOOTH"
);
},
{
closed = 1;
nodes = (
"545 596 OFFCURVE",
"501 552 OFFCURVE",
"501 497 CURVE SMOOTH",
"501 446 OFFCURVE",
"545 406 OFFCURVE",
"597 406 CURVE SMOOTH",
"649 406 OFFCURVE",
"692 447 OFFCURVE",
"692 498 CURVE SMOOTH",
"692 553 OFFCURVE",
"651 596 OFFCURVE",
"600 596 CURVE SMOOTH"
);
},
{
closed = 1;
nodes = (
"358 206 OFFCURVE",
"371 173 OFFCURVE",
"371 136 CURVE SMOOTH",
"371 61 OFFCURVE",
"309 3 OFFCURVE",
"236 3 CURVE SMOOTH",
"163 3 OFFCURVE",
"100 60 OFFCURVE",
"100 135 CURVE SMOOTH",
"100 211 OFFCURVE",
"163 273 OFFCURVE",
"239 273 CURVE SMOOTH",
"276 273 OFFCURVE",
"307 260 OFFCURVE",
"333 233 CURVE SMOOTH"
);
},
{
closed = 1;
nodes = (
"184 233 OFFCURVE",
"140 188 OFFCURVE",
"140 135 CURVE SMOOTH",
"140 84 OFFCURVE",
"184 43 OFFCURVE",
"236 43 CURVE SMOOTH",
"288 43 OFFCURVE",
"331 84 OFFCURVE",
"331 136 CURVE SMOOTH",
"331 189 OFFCURVE",
"290 233 OFFCURVE",
"239 233 CURVE SMOOTH"
);
},
{
closed = 1;
nodes = (
"1095 60 OFFCURVE",
"1033 0 OFFCURVE",
"960 0 CURVE SMOOTH",
"887 0 OFFCURVE",
"824 57 OFFCURVE",
"824 132 CURVE SMOOTH",
"824 208 OFFCURVE",
"886 270 OFFCURVE",
"963 270 CURVE SMOOTH",
"1036 270 OFFCURVE",
"1095 208 OFFCURVE",
"1095 133 CURVE SMOOTH"
);
},
{
closed = 1;
nodes = (
"908 230 OFFCURVE",
"864 187 OFFCURVE",
"864 132 CURVE SMOOTH",
"864 81 OFFCURVE",
"908 40 OFFCURVE",
"960 40 CURVE SMOOTH",
"1012 40 OFFCURVE",
"1055 81 OFFCURVE",
"1055 133 CURVE SMOOTH",
"1055 186 OFFCURVE",
"1014 230 OFFCURVE",
"963 230 CURVE SMOOTH"
);
},
{
closed = 1;
nodes = (
"719 206 OFFCURVE",
"732 173 OFFCURVE",
"732 136 CURVE SMOOTH",
"732 61 OFFCURVE",
"670 3 OFFCURVE",
"597 3 CURVE SMOOTH",
"524 3 OFFCURVE",
"461 60 OFFCURVE",
"461 135 CURVE SMOOTH",
"461 211 OFFCURVE",
"524 273 OFFCURVE",
"600 273 CURVE SMOOTH",
"637 273 OFFCURVE",
"668 260 OFFCURVE",
"694 233 CURVE SMOOTH"
);
},
{
closed = 1;
nodes = (
"545 233 OFFCURVE",
"501 188 OFFCURVE",
"501 135 CURVE SMOOTH",
"501 84 OFFCURVE",
"545 43 OFFCURVE",
"597 43 CURVE SMOOTH",
"649 43 OFFCURVE",
"692 84 OFFCURVE",
"692 136 CURVE SMOOTH",
"692 189 OFFCURVE",
"651 233 OFFCURVE",
"600 233 CURVE SMOOTH"
);
}
);
width = 1195;
}
);
unicode = 0036;
},
{
glyphname = "seven";
lastChange = "2013-06-18 02:31:16 +0330";
layers = (
{
layerId = "3D323242-F336-407C-B164-DE86AA499667";
name = "Regular";
paths = (
{
closed = 1;
nodes = (
"1397 15 OFFCURVE",
"1365 2 OFFCURVE",
"1328 2 CURVE SMOOTH",
"1252 2 OFFCURVE",
"1190 64 OFFCURVE",
"1190 140 CURVE SMOOTH",
"1190 215 OFFCURVE",
"1252 272 OFFCURVE",
"1325 272 CURVE SMOOTH",
"1400 272 OFFCURVE",
"1460 214 OFFCURVE",
"1460 139 CURVE SMOOTH",
"1460 102 OFFCURVE",
"1447 69 OFFCURVE",
"1422 42 CURVE SMOOTH"
);
},
{
closed = 1;
nodes = (
"1380 42 OFFCURVE",
"1420 86 OFFCURVE",
"1420 139 CURVE SMOOTH",
"1420 191 OFFCURVE",
"1377 232 OFFCURVE",
"1325 232 CURVE SMOOTH",
"1273 232 OFFCURVE",
"1230 191 OFFCURVE",
"1230 140 CURVE SMOOTH",
"1230 87 OFFCURVE",
"1275 42 OFFCURVE",
"1328 42 CURVE SMOOTH"
);
},
{
closed = 1;
nodes = (
"307 13 OFFCURVE",
"276 0 OFFCURVE",
"239 0 CURVE SMOOTH",
"162 0 OFFCURVE",
"100 62 OFFCURVE",
"100 138 CURVE SMOOTH",
"100 213 OFFCURVE",
"163 270 OFFCURVE",
"236 270 CURVE SMOOTH",
"309 270 OFFCURVE",
"370 212 OFFCURVE",
"370 137 CURVE SMOOTH",
"370 100 OFFCURVE",
"357 67 OFFCURVE",
"332 40 CURVE SMOOTH"
);
},
{
closed = 1;
nodes = (
"290 40 OFFCURVE",
"330 84 OFFCURVE",
"330 137 CURVE SMOOTH",
"330 189 OFFCURVE",
"288 230 OFFCURVE",
"236 230 CURVE SMOOTH",
"183 230 OFFCURVE",
"140 189 OFFCURVE",
"140 138 CURVE SMOOTH",
"140 83 OFFCURVE",
"184 40 OFFCURVE",
"239 40 CURVE SMOOTH"
);
},
{
closed = 1;
nodes = (
"1031 16 OFFCURVE",
"999 3 OFFCURVE",
"962 3 CURVE SMOOTH",
"886 3 OFFCURVE",
"824 65 OFFCURVE",
"824 141 CURVE SMOOTH",
"824 216 OFFCURVE",
"886 273 OFFCURVE",
"959 273 CURVE SMOOTH",
"1034 273 OFFCURVE",
"1094 215 OFFCURVE",
"1094 140 CURVE SMOOTH",
"1094 103 OFFCURVE",
"1081 70 OFFCURVE",
"1056 43 CURVE SMOOTH"
);
},
{
closed = 1;
nodes = (
"1014 43 OFFCURVE",
"1054 87 OFFCURVE",
"1054 140 CURVE SMOOTH",
"1054 192 OFFCURVE",
"1011 233 OFFCURVE",
"959 233 CURVE SMOOTH",
"907 233 OFFCURVE",
"864 192 OFFCURVE",
"864 141 CURVE SMOOTH",
"864 86 OFFCURVE",
"909 43 OFFCURVE",
"962 43 CURVE SMOOTH"
);
},
{
closed = 1;
nodes = (
"668 13 OFFCURVE",
"637 0 OFFCURVE",
"600 0 CURVE SMOOTH",
"523 0 OFFCURVE",
"461 62 OFFCURVE",
"461 138 CURVE SMOOTH",
"461 213 OFFCURVE",
"524 270 OFFCURVE",
"597 270 CURVE SMOOTH",
"670 270 OFFCURVE",
"731 212 OFFCURVE",
"731 137 CURVE SMOOTH",
"731 100 OFFCURVE",
"718 67 OFFCURVE",
"693 40 CURVE SMOOTH"
);
},
{
closed = 1;
nodes = (
"651 40 OFFCURVE",
"691 84 OFFCURVE",
"691 137 CURVE SMOOTH",
"691 189 OFFCURVE",
"649 230 OFFCURVE",
"597 230 CURVE SMOOTH",
"544 230 OFFCURVE",
"501 189 OFFCURVE",
"501 138 CURVE SMOOTH",
"501 83 OFFCURVE",
"545 40 OFFCURVE",
"600 40 CURVE SMOOTH"
);
},
{
closed = 1;
nodes = (
"486 344 OFFCURVE",
"455 331 OFFCURVE",
"418 331 CURVE SMOOTH",
"342 331 OFFCURVE",
"280 393 OFFCURVE",
"280 469 CURVE SMOOTH",
"280 544 OFFCURVE",
"342 601 OFFCURVE",
"415 601 CURVE SMOOTH",
"488 601 OFFCURVE",
"550 543 OFFCURVE",
"550 468 CURVE SMOOTH",
"550 431 OFFCURVE",
"537 398 OFFCURVE",
"512 371 CURVE SMOOTH"
);
},
{
closed = 1;
nodes = (
"469 371 OFFCURVE",
"510 415 OFFCURVE",
"510 468 CURVE SMOOTH",
"510 520 OFFCURVE",
"467 561 OFFCURVE",
"415 561 CURVE SMOOTH",
"363 561 OFFCURVE",
"319 520 OFFCURVE",
"319 469 CURVE SMOOTH",
"319 416 OFFCURVE",
"363 371 OFFCURVE",
"418 371 CURVE SMOOTH"
);
},
{
closed = 1;
nodes = (
"1210 347 OFFCURVE",
"1179 334 OFFCURVE",
"1142 334 CURVE SMOOTH",
"1065 334 OFFCURVE",
"1003 396 OFFCURVE",
"1003 472 CURVE SMOOTH",
"1003 547 OFFCURVE",
"1066 604 OFFCURVE",
"1139 604 CURVE SMOOTH",
"1212 604 OFFCURVE",
"1274 546 OFFCURVE",
"1274 471 CURVE SMOOTH",
"1274 434 OFFCURVE",
"1261 401 OFFCURVE",
"1236 374 CURVE SMOOTH"
);
},
{
closed = 1;
nodes = (
"1193 374 OFFCURVE",
"1234 418 OFFCURVE",
"1234 471 CURVE SMOOTH",
"1234 523 OFFCURVE",
"1191 564 OFFCURVE",
"1139 564 CURVE SMOOTH",
"1087 564 OFFCURVE",
"1043 523 OFFCURVE",
"1043 472 CURVE SMOOTH",
"1043 417 OFFCURVE",
"1087 374 OFFCURVE",
"1142 374 CURVE SMOOTH"
);
},
{
closed = 1;
nodes = (
"847 344 OFFCURVE",
"816 331 OFFCURVE",
"779 331 CURVE SMOOTH",
"703 331 OFFCURVE",
"640 393 OFFCURVE",
"640 469 CURVE SMOOTH",
"640 544 OFFCURVE",
"703 601 OFFCURVE",
"776 601 CURVE SMOOTH",
"849 601 OFFCURVE",
"911 543 OFFCURVE",
"911 468 CURVE SMOOTH",
"911 431 OFFCURVE",
"898 398 OFFCURVE",
"873 371 CURVE SMOOTH"
);
},
{
closed = 1;
nodes = (
"830 371 OFFCURVE",
"871 415 OFFCURVE",
"871 468 CURVE SMOOTH",
"871 520 OFFCURVE",
"828 561 OFFCURVE",
"776 561 CURVE SMOOTH",
"724 561 OFFCURVE",
"680 520 OFFCURVE",
"680 469 CURVE SMOOTH",
"680 416 OFFCURVE",
"724 371 OFFCURVE",
"779 371 CURVE SMOOTH"
);
}
);
width = 1560;
}
);
unicode = 0037;
},
{
glyphname = "eight";
lastChange = "2013-06-18 02:31:20 +0330";
layers = (
{
layerId = "3D323242-F336-407C-B164-DE86AA499667";
name = "Regular";
paths = (
{
closed = 1;
nodes = (
"1460 423 OFFCURVE",
"1400 364 OFFCURVE",
"1325 364 CURVE SMOOTH",
"1252 364 OFFCURVE",
"1190 422 OFFCURVE",
"1190 495 CURVE SMOOTH",
"1190 572 OFFCURVE",
"1252 634 OFFCURVE",
"1328 634 CURVE SMOOTH",
"1403 634 OFFCURVE",
"1460 571 OFFCURVE",
"1460 496 CURVE SMOOTH"
);
},
{
closed = 1;
nodes = (
"1273 594 OFFCURVE",
"1230 550 OFFCURVE",
"1230 495 CURVE SMOOTH",
"1230 444 OFFCURVE",
"1273 404 OFFCURVE",
"1325 404 CURVE SMOOTH",
"1377 404 OFFCURVE",
"1420 445 OFFCURVE",
"1420 496 CURVE SMOOTH",
"1420 551 OFFCURVE",
"1380 594 OFFCURVE",
"1328 594 CURVE SMOOTH"
);
},
{
closed = 1;
nodes = (
"1447 204 OFFCURVE",
"1460 171 OFFCURVE",
"1460 134 CURVE SMOOTH",
"1460 59 OFFCURVE",
"1400 1 OFFCURVE",
"1325 1 CURVE SMOOTH",
"1252 1 OFFCURVE",
"1190 58 OFFCURVE",
"1190 133 CURVE SMOOTH",
"1190 209 OFFCURVE",
"1252 271 OFFCURVE",
"1328 271 CURVE SMOOTH",
"1365 271 OFFCURVE",
"1397 258 OFFCURVE",
"1422 231 CURVE SMOOTH"
);
},
{
closed = 1;
nodes = (
"1275 231 OFFCURVE",
"1230 188 OFFCURVE",
"1230 133 CURVE SMOOTH",
"1230 82 OFFCURVE",
"1273 41 OFFCURVE",
"1325 41 CURVE SMOOTH",
"1377 41 OFFCURVE",
"1420 82 OFFCURVE",
"1420 134 CURVE SMOOTH",
"1420 187 OFFCURVE",
"1380 231 OFFCURVE",
"1328 231 CURVE SMOOTH"
);
},
{
closed = 1;
nodes = (
"370 425 OFFCURVE",
"309 366 OFFCURVE",
"236 366 CURVE SMOOTH",
"163 366 OFFCURVE",
"100 424 OFFCURVE",
"100 497 CURVE SMOOTH",
"100 574 OFFCURVE",
"162 636 OFFCURVE",
"239 636 CURVE SMOOTH",
"312 636 OFFCURVE",
"370 573 OFFCURVE",
"370 498 CURVE SMOOTH"
);
},
{
closed = 1;
nodes = (
"184 596 OFFCURVE",
"140 552 OFFCURVE",
"140 497 CURVE SMOOTH",
"140 446 OFFCURVE",
"183 406 OFFCURVE",
"236 406 CURVE SMOOTH",
"288 406 OFFCURVE",
"330 447 OFFCURVE",
"330 498 CURVE SMOOTH",
"330 553 OFFCURVE",
"290 596 OFFCURVE",
"239 596 CURVE SMOOTH"
);
},
{
closed = 1;
nodes = (
"1094 422 OFFCURVE",
"1034 363 OFFCURVE",
"959 363 CURVE SMOOTH",
"886 363 OFFCURVE",
"824 421 OFFCURVE",
"824 494 CURVE SMOOTH",
"824 571 OFFCURVE",
"886 633 OFFCURVE",
"962 633 CURVE SMOOTH",
"1037 633 OFFCURVE",
"1094 570 OFFCURVE",
"1094 495 CURVE SMOOTH"
);
},
{
closed = 1;
nodes = (
"907 593 OFFCURVE",
"864 549 OFFCURVE",
"864 494 CURVE SMOOTH",
"864 443 OFFCURVE",
"907 403 OFFCURVE",
"959 403 CURVE SMOOTH",
"1011 403 OFFCURVE",
"1054 444 OFFCURVE",
"1054 495 CURVE SMOOTH",
"1054 550 OFFCURVE",
"1014 593 OFFCURVE",
"962 593 CURVE SMOOTH"
);
},
{
closed = 1;
nodes = (
"731 425 OFFCURVE",
"670 366 OFFCURVE",
"597 366 CURVE SMOOTH",
"524 366 OFFCURVE",
"461 424 OFFCURVE",
"461 497 CURVE SMOOTH",
"461 574 OFFCURVE",
"523 636 OFFCURVE",
"600 636 CURVE SMOOTH",
"673 636 OFFCURVE",
"731 573 OFFCURVE",
"731 498 CURVE SMOOTH"
);
},
{
closed = 1;
nodes = (
"545 596 OFFCURVE",
"501 552 OFFCURVE",
"501 497 CURVE SMOOTH",
"501 446 OFFCURVE",
"544 406 OFFCURVE",
"597 406 CURVE SMOOTH",
"649 406 OFFCURVE",
"691 447 OFFCURVE",
"691 498 CURVE SMOOTH",
"691 553 OFFCURVE",
"651 596 OFFCURVE",
"600 596 CURVE SMOOTH"
);
},
{
closed = 1;
nodes = (
"357 206 OFFCURVE",
"370 173 OFFCURVE",
"370 136 CURVE SMOOTH",
"370 61 OFFCURVE",
"309 3 OFFCURVE",
"236 3 CURVE SMOOTH",
"163 3 OFFCURVE",
"100 60 OFFCURVE",
"100 135 CURVE SMOOTH",
"100 211 OFFCURVE",
"162 273 OFFCURVE",
"239 273 CURVE SMOOTH",
"276 273 OFFCURVE",
"307 260 OFFCURVE",
"332 233 CURVE SMOOTH"
);
},
{
closed = 1;
nodes = (
"184 233 OFFCURVE",
"140 190 OFFCURVE",
"140 135 CURVE SMOOTH",
"140 84 OFFCURVE",
"183 43 OFFCURVE",
"236 43 CURVE SMOOTH",
"288 43 OFFCURVE",
"330 84 OFFCURVE",
"330 136 CURVE SMOOTH",
"330 189 OFFCURVE",
"290 233 OFFCURVE",
"239 233 CURVE SMOOTH"
);
},
{
closed = 1;
nodes = (
"1081 203 OFFCURVE",
"1094 170 OFFCURVE",
"1094 133 CURVE SMOOTH",
"1094 58 OFFCURVE",
"1034 0 OFFCURVE",
"959 0 CURVE SMOOTH",
"886 0 OFFCURVE",
"824 57 OFFCURVE",
"824 132 CURVE SMOOTH",
"824 208 OFFCURVE",
"886 270 OFFCURVE",
"962 270 CURVE SMOOTH",
"999 270 OFFCURVE",
"1031 257 OFFCURVE",
"1056 230 CURVE SMOOTH"
);
},
{
closed = 1;
nodes = (
"909 230 OFFCURVE",
"864 185 OFFCURVE",
"864 132 CURVE SMOOTH",
"864 81 OFFCURVE",
"907 40 OFFCURVE",
"959 40 CURVE SMOOTH",
"1011 40 OFFCURVE",
"1054 81 OFFCURVE",
"1054 133 CURVE SMOOTH",
"1054 186 OFFCURVE",
"1014 230 OFFCURVE",
"962 230 CURVE SMOOTH"
);
},
{
closed = 1;
nodes = (
"718 206 OFFCURVE",
"731 173 OFFCURVE",
"731 136 CURVE SMOOTH",
"731 61 OFFCURVE",
"670 3 OFFCURVE",
"597 3 CURVE SMOOTH",
"524 3 OFFCURVE",
"461 60 OFFCURVE",
"461 135 CURVE SMOOTH",
"461 211 OFFCURVE",
"523 273 OFFCURVE",
"600 273 CURVE SMOOTH",
"637 273 OFFCURVE",
"668 260 OFFCURVE",
"693 233 CURVE SMOOTH"
);
},
{
closed = 1;
nodes = (
"545 233 OFFCURVE",
"501 190 OFFCURVE",
"501 135 CURVE SMOOTH",
"501 84 OFFCURVE",
"544 43 OFFCURVE",
"597 43 CURVE SMOOTH",
"649 43 OFFCURVE",
"691 84 OFFCURVE",
"691 136 CURVE SMOOTH",
"691 189 OFFCURVE",
"651 233 OFFCURVE",
"600 233 CURVE SMOOTH"
);
}
);
width = 1560;
}
);
unicode = 0038;
},
{
glyphname = "nine";
lastChange = "2013-06-18 02:31:22 +0330";
layers = (
{
layerId = "3D323242-F336-407C-B164-DE86AA499667";
name = "Regular";
paths = (
{
closed = 1;
nodes = (
"372 791 OFFCURVE",
"312 731 OFFCURVE",
"237 731 CURVE SMOOTH",
"164 731 OFFCURVE",
"102 788 OFFCURVE",
"102 863 CURVE SMOOTH",
"102 939 OFFCURVE",
"164 1001 OFFCURVE",
"240 1001 CURVE SMOOTH",
"315 1001 OFFCURVE",
"372 939 OFFCURVE",
"372 864 CURVE SMOOTH"
);
},
{
closed = 1;
nodes = (
"187 961 OFFCURVE",
"142 918 OFFCURVE",
"142 863 CURVE SMOOTH",
"142 812 OFFCURVE",
"185 771 OFFCURVE",
"237 771 CURVE SMOOTH",
"289 771 OFFCURVE",
"332 812 OFFCURVE",
"332 864 CURVE SMOOTH",
"332 917 OFFCURVE",
"292 961 OFFCURVE",
"240 961 CURVE SMOOTH"
);
},
{
closed = 1;
nodes = (
"1095 788 OFFCURVE",
"1034 728 OFFCURVE",
"961 728 CURVE SMOOTH",
"888 728 OFFCURVE",
"825 785 OFFCURVE",
"825 860 CURVE SMOOTH",
"825 936 OFFCURVE",
"887 998 OFFCURVE",
"964 998 CURVE SMOOTH",
"1037 998 OFFCURVE",
"1095 936 OFFCURVE",
"1095 861 CURVE SMOOTH"
);
},
{
closed = 1;
nodes = (
"909 958 OFFCURVE",
"865 915 OFFCURVE",
"865 860 CURVE SMOOTH",
"865 809 OFFCURVE",
"908 768 OFFCURVE",
"961 768 CURVE SMOOTH",
"1013 768 OFFCURVE",
"1055 809 OFFCURVE",
"1055 861 CURVE SMOOTH",
"1055 914 OFFCURVE",
"1015 958 OFFCURVE",
"964 958 CURVE SMOOTH"
);
},
{
closed = 1;
nodes = (
"732 791 OFFCURVE",
"671 731 OFFCURVE",
"598 731 CURVE SMOOTH",
"525 731 OFFCURVE",
"463 788 OFFCURVE",
"463 863 CURVE SMOOTH",
"463 939 OFFCURVE",
"525 1001 OFFCURVE",
"601 1001 CURVE SMOOTH",
"674 1001 OFFCURVE",
"732 939 OFFCURVE",
"732 864 CURVE SMOOTH"
);
},
{
closed = 1;
nodes = (
"546 961 OFFCURVE",
"502 916 OFFCURVE",
"502 863 CURVE SMOOTH",
"502 812 OFFCURVE",
"546 771 OFFCURVE",
"598 771 CURVE SMOOTH",
"650 771 OFFCURVE",
"693 812 OFFCURVE",
"693 864 CURVE SMOOTH",
"693 917 OFFCURVE",
"652 961 OFFCURVE",
"601 961 CURVE SMOOTH"
);
},
{
closed = 1;
nodes = (
"370 62 OFFCURVE",
"310 3 OFFCURVE",
"235 3 CURVE SMOOTH",
"162 3 OFFCURVE",
"100 61 OFFCURVE",
"100 134 CURVE SMOOTH",
"100 211 OFFCURVE",
"162 273 OFFCURVE",
"238 273 CURVE SMOOTH",
"313 273 OFFCURVE",
"370 210 OFFCURVE",
"370 135 CURVE SMOOTH"
);
},
{
closed = 1;
nodes = (
"183 233 OFFCURVE",
"140 189 OFFCURVE",
"140 134 CURVE SMOOTH",
"140 85 OFFCURVE",
"183 43 OFFCURVE",
"235 43 CURVE SMOOTH",
"287 43 OFFCURVE",
"330 84 OFFCURVE",
"330 135 CURVE SMOOTH",
"330 190 OFFCURVE",
"290 233 OFFCURVE",
"238 233 CURVE SMOOTH"
);
},
{
closed = 1;
nodes = (
"1093 59 OFFCURVE",
"1032 0 OFFCURVE",
"959 0 CURVE SMOOTH",
"886 0 OFFCURVE",
"823 58 OFFCURVE",
"823 131 CURVE SMOOTH",
"823 208 OFFCURVE",
"885 270 OFFCURVE",
"962 270 CURVE SMOOTH",
"1035 270 OFFCURVE",
"1093 207 OFFCURVE",
"1093 132 CURVE SMOOTH"
);
},
{
closed = 1;
nodes = (
"907 230 OFFCURVE",
"863 186 OFFCURVE",
"863 131 CURVE SMOOTH",
"863 80 OFFCURVE",
"906 40 OFFCURVE",
"959 40 CURVE SMOOTH",
"1011 40 OFFCURVE",
"1053 81 OFFCURVE",
"1053 132 CURVE SMOOTH",
"1053 187 OFFCURVE",
"1013 230 OFFCURVE",
"962 230 CURVE SMOOTH"
);
},
{
closed = 1;
nodes = (
"730 62 OFFCURVE",
"669 3 OFFCURVE",
"596 3 CURVE SMOOTH",
"523 3 OFFCURVE",
"461 61 OFFCURVE",
"461 134 CURVE SMOOTH",
"461 211 OFFCURVE",
"523 273 OFFCURVE",
"599 273 CURVE SMOOTH",
"672 273 OFFCURVE",
"730 210 OFFCURVE",
"730 135 CURVE SMOOTH"
);
},
{
closed = 1;
nodes = (
"544 233 OFFCURVE",
"500 189 OFFCURVE",
"500 134 CURVE SMOOTH",
"500 85 OFFCURVE",
"544 43 OFFCURVE",
"596 43 CURVE SMOOTH",
"648 43 OFFCURVE",
"691 84 OFFCURVE",
"691 135 CURVE SMOOTH",
"691 190 OFFCURVE",
"650 233 OFFCURVE",
"599 233 CURVE SMOOTH"
);
},
{
closed = 1;
nodes = (
"372 428 OFFCURVE",
"312 369 OFFCURVE",
"237 369 CURVE SMOOTH",
"164 369 OFFCURVE",
"102 427 OFFCURVE",
"102 500 CURVE SMOOTH",
"102 576 OFFCURVE",
"164 638 OFFCURVE",
"240 638 CURVE SMOOTH",
"315 638 OFFCURVE",
"372 576 OFFCURVE",
"372 501 CURVE SMOOTH"
);
},
{
closed = 1;
nodes = (
"187 599 OFFCURVE",
"142 555 OFFCURVE",
"142 500 CURVE SMOOTH",
"142 449 OFFCURVE",
"185 408 OFFCURVE",
"237 408 CURVE SMOOTH",
"289 408 OFFCURVE",
"332 450 OFFCURVE",
"332 501 CURVE SMOOTH",
"332 554 OFFCURVE",
"292 599 OFFCURVE",
"240 599 CURVE SMOOTH"
);
},
{
closed = 1;
nodes = (
"1095 425 OFFCURVE",
"1034 366 OFFCURVE",
"961 366 CURVE SMOOTH",
"888 366 OFFCURVE",
"825 424 OFFCURVE",
"825 497 CURVE SMOOTH",
"825 573 OFFCURVE",
"887 635 OFFCURVE",
"964 635 CURVE SMOOTH",
"1037 635 OFFCURVE",
"1095 573 OFFCURVE",
"1095 498 CURVE SMOOTH"
);
},
{
closed = 1;
nodes = (
"909 596 OFFCURVE",
"865 552 OFFCURVE",
"865 497 CURVE SMOOTH",
"865 446 OFFCURVE",
"908 405 OFFCURVE",
"961 405 CURVE SMOOTH",
"1013 405 OFFCURVE",
"1055 447 OFFCURVE",
"1055 498 CURVE SMOOTH",
"1055 551 OFFCURVE",
"1015 596 OFFCURVE",
"964 596 CURVE SMOOTH"
);
},
{
closed = 1;
nodes = (
"732 428 OFFCURVE",
"671 369 OFFCURVE",
"598 369 CURVE SMOOTH",
"525 369 OFFCURVE",
"463 427 OFFCURVE",
"463 500 CURVE SMOOTH",
"463 576 OFFCURVE",
"525 638 OFFCURVE",
"601 638 CURVE SMOOTH",
"674 638 OFFCURVE",
"732 576 OFFCURVE",
"732 501 CURVE SMOOTH"
);
},
{
closed = 1;
nodes = (
"546 599 OFFCURVE",
"502 553 OFFCURVE",
"502 500 CURVE SMOOTH",
"502 449 OFFCURVE",
"546 408 OFFCURVE",
"598 408 CURVE SMOOTH",
"650 408 OFFCURVE",
"693 450 OFFCURVE",
"693 501 CURVE SMOOTH",
"693 554 OFFCURVE",
"652 599 OFFCURVE",
"601 599 CURVE SMOOTH"
);
}
);
width = 1195;
}
);
unicode = 0039;
},
{
glyphname = "zero-persian";
lastChange = "2013-06-18 02:31:25 +0330";
layers = (
{
layerId = "3D323242-F336-407C-B164-DE86AA499667";
name = "Regular";
paths = (
{
closed = 1;
nodes = (
"348 57 OFFCURVE",
"294 0 OFFCURVE",
"226 0 CURVE SMOOTH",
"156 0 OFFCURVE",
"100 54 OFFCURVE",
"100 123 CURVE SMOOTH",
"100 190 OFFCURVE",
"154 244 OFFCURVE",
"219 244 CURVE SMOOTH",
"289 244 OFFCURVE",
"348 193 OFFCURVE",
"348 127 CURVE SMOOTH"
);
},
{
closed = 1;
nodes = (
"329 135 LINE",
"325 187 OFFCURVE",
"277 226 OFFCURVE",
"219 226 CURVE SMOOTH",
"170 226 OFFCURVE",
"127 187 OFFCURVE",
"119 136 CURVE"
);
},
{
closed = 1;
nodes = (
"119 117 LINE",
"122 62 OFFCURVE",
"169 18 OFFCURVE",
"226 18 CURVE SMOOTH",
"279 18 OFFCURVE",
"323 62 OFFCURVE",
"329 117 CURVE"
);
}
);
width = 448;
}
);
unicode = 06F0;
},
{
glyphname = "one-persian";
lastChange = "2013-06-18 02:31:28 +0330";
layers = (
{
layerId = "3D323242-F336-407C-B164-DE86AA499667";
name = "Regular";
paths = (
{
closed = 1;
nodes = (
"371 60 OFFCURVE",
"309 0 OFFCURVE",
"236 0 CURVE SMOOTH",
"163 0 OFFCURVE",
"100 59 OFFCURVE",
"100 132 CURVE SMOOTH",
"100 208 OFFCURVE",
"163 271 OFFCURVE",
"239 271 CURVE SMOOTH",
"312 271 OFFCURVE",
"371 208 OFFCURVE",
"371 133 CURVE SMOOTH"
);
},
{
closed = 1;
nodes = (
"184 231 OFFCURVE",
"140 185 OFFCURVE",
"140 132 CURVE SMOOTH",
"140 81 OFFCURVE",
"184 40 OFFCURVE",
"236 40 CURVE SMOOTH",
"288 40 OFFCURVE",
"331 82 OFFCURVE",
"331 133 CURVE SMOOTH",
"331 186 OFFCURVE",
"290 231 OFFCURVE",
"239 231 CURVE SMOOTH"
);
}
);
width = 471;
}
);
unicode = 06F1;
},
{
glyphname = "two-persian";
lastChange = "2013-06-18 02:31:31 +0330";
layers = (
{
layerId = "3D323242-F336-407C-B164-DE86AA499667";
name = "Regular";
paths = (
{
closed = 1;
nodes = (
"371 422 OFFCURVE",
"309 363 OFFCURVE",
"236 363 CURVE SMOOTH",
"163 363 OFFCURVE",
"100 421 OFFCURVE",
"100 494 CURVE SMOOTH",
"100 571 OFFCURVE",
"163 633 OFFCURVE",
"239 633 CURVE SMOOTH",
"314 633 OFFCURVE",
"371 570 OFFCURVE",
"371 495 CURVE SMOOTH"
);
},
{
closed = 1;
nodes = (
"184 593 OFFCURVE",
"140 549 OFFCURVE",
"140 494 CURVE SMOOTH",
"140 443 OFFCURVE",
"184 403 OFFCURVE",
"236 403 CURVE SMOOTH",
"288 403 OFFCURVE",
"331 444 OFFCURVE",
"331 495 CURVE SMOOTH",
"331 550 OFFCURVE",
"290 593 OFFCURVE",
"239 593 CURVE SMOOTH"
);
},
{
closed = 1;
nodes = (
"358 203 OFFCURVE",
"371 170 OFFCURVE",
"371 133 CURVE SMOOTH",
"371 58 OFFCURVE",
"309 0 OFFCURVE",
"236 0 CURVE SMOOTH",
"163 0 OFFCURVE",
"100 57 OFFCURVE",
"100 132 CURVE SMOOTH",
"100 208 OFFCURVE",
"163 270 OFFCURVE",
"239 270 CURVE SMOOTH",
"276 270 OFFCURVE",
"307 257 OFFCURVE",
"333 230 CURVE SMOOTH"
);
},
{
closed = 1;
nodes = (
"184 230 OFFCURVE",
"140 185 OFFCURVE",
"140 132 CURVE SMOOTH",
"140 81 OFFCURVE",
"184 40 OFFCURVE",
"236 40 CURVE SMOOTH",
"288 40 OFFCURVE",
"331 81 OFFCURVE",
"331 133 CURVE SMOOTH",
"331 186 OFFCURVE",
"290 230 OFFCURVE",
"239 230 CURVE SMOOTH"
);
}
);
width = 471;
}
);
unicode = 06F2;
},
{
glyphname = "three-persian";
lastChange = "2013-06-18 02:31:34 +0330";
layers = (
{
layerId = "3D323242-F336-407C-B164-DE86AA499667";
name = "Regular";
paths = (
{
closed = 1;
nodes = (
"370 63 OFFCURVE",
"312 0 OFFCURVE",
"239 0 CURVE SMOOTH",
"162 0 OFFCURVE",
"100 62 OFFCURVE",
"100 139 CURVE SMOOTH",
"100 212 OFFCURVE",
"163 270 OFFCURVE",
"236 270 CURVE SMOOTH",
"309 270 OFFCURVE",
"370 211 OFFCURVE",
"370 138 CURVE SMOOTH"
);
},
{
closed = 1;
nodes = (
"290 40 OFFCURVE",
"330 83 OFFCURVE",
"330 138 CURVE SMOOTH",
"330 189 OFFCURVE",
"288 230 OFFCURVE",
"236 230 CURVE SMOOTH",
"183 230 OFFCURVE",
"140 190 OFFCURVE",
"140 139 CURVE SMOOTH",
"140 84 OFFCURVE",
"184 40 OFFCURVE",
"239 40 CURVE SMOOTH"
);
},
{
closed = 1;
nodes = (
"731 63 OFFCURVE",
"674 0 OFFCURVE",
"599 0 CURVE SMOOTH",
"523 0 OFFCURVE",
"461 62 OFFCURVE",
"461 139 CURVE SMOOTH",
"461 212 OFFCURVE",
"523 270 OFFCURVE",
"596 270 CURVE SMOOTH",
"671 270 OFFCURVE",
"731 211 OFFCURVE",
"731 138 CURVE SMOOTH"
);
},
{
closed = 1;
nodes = (
"651 40 OFFCURVE",
"691 83 OFFCURVE",
"691 138 CURVE SMOOTH",
"691 189 OFFCURVE",
"648 230 OFFCURVE",
"596 230 CURVE SMOOTH",
"544 230 OFFCURVE",
"501 188 OFFCURVE",
"501 139 CURVE SMOOTH",
"501 84 OFFCURVE",
"544 40 OFFCURVE",
"599 40 CURVE SMOOTH"
);
},
{
closed = 1;
nodes = (
"490 358 OFFCURVE",
"459 345 OFFCURVE",
"422 345 CURVE SMOOTH",
"346 345 OFFCURVE",
"283 407 OFFCURVE",
"283 483 CURVE SMOOTH",
"283 558 OFFCURVE",
"346 615 OFFCURVE",
"419 615 CURVE SMOOTH",
"492 615 OFFCURVE",
"554 557 OFFCURVE",
"554 482 CURVE SMOOTH",
"554 445 OFFCURVE",
"541 412 OFFCURVE",
"516 385 CURVE SMOOTH"
);
},
{
closed = 1;
nodes = (
"473 385 OFFCURVE",
"514 429 OFFCURVE",
"514 482 CURVE SMOOTH",
"514 534 OFFCURVE",
"471 575 OFFCURVE",
"419 575 CURVE SMOOTH",
"367 575 OFFCURVE",
"323 534 OFFCURVE",
"323 483 CURVE SMOOTH",
"323 430 OFFCURVE",
"367 385 OFFCURVE",
"422 385 CURVE SMOOTH"
);
}
);
width = 831;
}
);
unicode = 06F3;
},
{
glyphname = "four-persian";
lastChange = "2013-06-18 02:31:37 +0330";
layers = (
{
layerId = "3D323242-F336-407C-B164-DE86AA499667";
name = "Regular";
paths = (
{
closed = 1;
nodes = (
"370 422 OFFCURVE",
"309 363 OFFCURVE",
"236 363 CURVE SMOOTH",
"163 363 OFFCURVE",
"100 421 OFFCURVE",
"100 494 CURVE SMOOTH",
"100 571 OFFCURVE",
"162 633 OFFCURVE",
"239 633 CURVE SMOOTH",
"312 633 OFFCURVE",
"370 570 OFFCURVE",
"370 495 CURVE SMOOTH"
);
},
{
closed = 1;
nodes = (
"184 593 OFFCURVE",
"140 549 OFFCURVE",
"140 494 CURVE SMOOTH",
"140 443 OFFCURVE",
"183 403 OFFCURVE",
"236 403 CURVE SMOOTH",
"288 403 OFFCURVE",
"330 444 OFFCURVE",
"330 495 CURVE SMOOTH",
"330 550 OFFCURVE",
"290 593 OFFCURVE",
"239 593 CURVE SMOOTH"
);
},
{
closed = 1;
nodes = (
"731 422 OFFCURVE",
"671 363 OFFCURVE",
"596 363 CURVE SMOOTH",
"523 363 OFFCURVE",
"461 421 OFFCURVE",
"461 494 CURVE SMOOTH",
"461 571 OFFCURVE",
"523 633 OFFCURVE",
"599 633 CURVE SMOOTH",
"674 633 OFFCURVE",
"731 570 OFFCURVE",
"731 495 CURVE SMOOTH"
);
},
{
closed = 1;
nodes = (
"544 593 OFFCURVE",
"501 549 OFFCURVE",
"501 494 CURVE SMOOTH",
"501 443 OFFCURVE",
"544 403 OFFCURVE",
"596 403 CURVE SMOOTH",
"648 403 OFFCURVE",
"691 444 OFFCURVE",
"691 495 CURVE SMOOTH",
"691 550 OFFCURVE",
"651 593 OFFCURVE",
"599 593 CURVE SMOOTH"
);
},
{
closed = 1;
nodes = (
"357 203 OFFCURVE",
"370 170 OFFCURVE",
"370 133 CURVE SMOOTH",
"370 58 OFFCURVE",
"309 0 OFFCURVE",
"236 0 CURVE SMOOTH",
"163 0 OFFCURVE",
"100 57 OFFCURVE",
"100 132 CURVE SMOOTH",
"100 208 OFFCURVE",
"162 270 OFFCURVE",
"239 270 CURVE SMOOTH",
"276 270 OFFCURVE",
"307 257 OFFCURVE",
"332 230 CURVE SMOOTH"
);
},
{
closed = 1;
nodes = (
"184 230 OFFCURVE",
"140 187 OFFCURVE",
"140 132 CURVE SMOOTH",
"140 81 OFFCURVE",
"183 40 OFFCURVE",
"236 40 CURVE SMOOTH",
"288 40 OFFCURVE",
"330 81 OFFCURVE",
"330 133 CURVE SMOOTH",
"330 186 OFFCURVE",
"290 230 OFFCURVE",
"239 230 CURVE SMOOTH"
);
},
{
closed = 1;
nodes = (
"718 203 OFFCURVE",
"731 170 OFFCURVE",
"731 133 CURVE SMOOTH",
"731 58 OFFCURVE",
"671 0 OFFCURVE",
"596 0 CURVE SMOOTH",
"523 0 OFFCURVE",
"461 57 OFFCURVE",
"461 132 CURVE SMOOTH",
"461 208 OFFCURVE",
"523 270 OFFCURVE",
"599 270 CURVE SMOOTH",
"636 270 OFFCURVE",
"668 257 OFFCURVE",
"693 230 CURVE SMOOTH"
);
},
{
closed = 1;
nodes = (
"544 230 OFFCURVE",
"501 185 OFFCURVE",
"501 132 CURVE SMOOTH",
"501 81 OFFCURVE",
"544 40 OFFCURVE",
"596 40 CURVE SMOOTH",
"648 40 OFFCURVE",
"691 81 OFFCURVE",
"691 133 CURVE SMOOTH",
"691 186 OFFCURVE",
"651 230 OFFCURVE",
"599 230 CURVE SMOOTH"
);
}
);
width = 831;
}
);
unicode = 06F4;
},
{
glyphname = "five-persian";
lastChange = "2013-06-18 02:31:40 +0330";
layers = (
{
layerId = "3D323242-F336-407C-B164-DE86AA499667";
name = "Regular";
paths = (
{
closed = 1;
nodes = (
"371 63 OFFCURVE",
"314 0 OFFCURVE",
"239 0 CURVE SMOOTH",
"163 0 OFFCURVE",
"100 62 OFFCURVE",
"100 139 CURVE SMOOTH",
"100 212 OFFCURVE",
"163 270 OFFCURVE",
"236 270 CURVE SMOOTH",
"309 270 OFFCURVE",
"371 211 OFFCURVE",
"371 138 CURVE SMOOTH"
);
},
{
closed = 1;
nodes = (
"290 40 OFFCURVE",
"331 83 OFFCURVE",
"331 138 CURVE SMOOTH",
"331 189 OFFCURVE",
"288 230 OFFCURVE",
"236 230 CURVE SMOOTH",
"184 230 OFFCURVE",
"140 190 OFFCURVE",
"140 139 CURVE SMOOTH",
"140 84 OFFCURVE",
"184 40 OFFCURVE",
"239 40 CURVE SMOOTH"
);
},
{
closed = 1;
nodes = (
"1095 66 OFFCURVE",
"1038 3 OFFCURVE",
"963 3 CURVE SMOOTH",
"886 3 OFFCURVE",
"824 65 OFFCURVE",
"824 142 CURVE SMOOTH",
"824 215 OFFCURVE",
"887 273 OFFCURVE",
"960 273 CURVE SMOOTH",
"1033 273 OFFCURVE",
"1095 214 OFFCURVE",
"1095 141 CURVE SMOOTH"
);
},
{
closed = 1;
nodes = (
"1014 43 OFFCURVE",
"1055 86 OFFCURVE",
"1055 141 CURVE SMOOTH",
"1055 192 OFFCURVE",
"1012 233 OFFCURVE",
"960 233 CURVE SMOOTH",
"908 233 OFFCURVE",
"864 191 OFFCURVE",
"864 142 CURVE SMOOTH",
"864 87 OFFCURVE",
"908 43 OFFCURVE",
"963 43 CURVE SMOOTH"
);
},
{
closed = 1;
nodes = (
"732 63 OFFCURVE",
"675 0 OFFCURVE",
"600 0 CURVE SMOOTH",
"524 0 OFFCURVE",
"461 62 OFFCURVE",
"461 139 CURVE SMOOTH",
"461 212 OFFCURVE",
"524 270 OFFCURVE",
"597 270 CURVE SMOOTH",
"670 270 OFFCURVE",
"732 211 OFFCURVE",
"732 138 CURVE SMOOTH"
);
},
{
closed = 1;
nodes = (
"651 40 OFFCURVE",
"692 83 OFFCURVE",
"692 138 CURVE SMOOTH",
"692 189 OFFCURVE",
"649 230 OFFCURVE",
"597 230 CURVE SMOOTH",
"545 230 OFFCURVE",
"501 190 OFFCURVE",
"501 139 CURVE SMOOTH",
"501 84 OFFCURVE",
"545 40 OFFCURVE",
"600 40 CURVE SMOOTH"
);
},
{
closed = 1;
nodes = (
"486 360 OFFCURVE",
"455 347 OFFCURVE",
"418 347 CURVE SMOOTH",
"341 347 OFFCURVE",
"279 409 OFFCURVE",
"279 485 CURVE SMOOTH",
"279 560 OFFCURVE",
"342 617 OFFCURVE",
"415 617 CURVE SMOOTH",
"488 617 OFFCURVE",
"549 559 OFFCURVE",
"549 484 CURVE SMOOTH",
"549 447 OFFCURVE",
"536 414 OFFCURVE",
"511 387 CURVE SMOOTH"
);
},
{
closed = 1;
nodes = (
"469 387 OFFCURVE",
"509 431 OFFCURVE",
"509 484 CURVE SMOOTH",
"509 536 OFFCURVE",
"467 577 OFFCURVE",
"415 577 CURVE SMOOTH",
"362 577 OFFCURVE",
"319 536 OFFCURVE",
"319 485 CURVE SMOOTH",
"319 430 OFFCURVE",
"363 387 OFFCURVE",
"418 387 CURVE SMOOTH"
);
},
{
closed = 1;
nodes = (
"847 360 OFFCURVE",
"815 347 OFFCURVE",
"778 347 CURVE SMOOTH",
"702 347 OFFCURVE",
"640 409 OFFCURVE",
"640 485 CURVE SMOOTH",
"640 560 OFFCURVE",
"702 617 OFFCURVE",
"775 617 CURVE SMOOTH",
"850 617 OFFCURVE",
"910 559 OFFCURVE",
"910 484 CURVE SMOOTH",
"910 447 OFFCURVE",
"897 414 OFFCURVE",
"872 387 CURVE SMOOTH"
);
},
{
closed = 1;
nodes = (
"830 387 OFFCURVE",
"870 431 OFFCURVE",
"870 484 CURVE SMOOTH",
"870 536 OFFCURVE",
"827 577 OFFCURVE",
"775 577 CURVE SMOOTH",
"723 577 OFFCURVE",
"680 536 OFFCURVE",
"680 485 CURVE SMOOTH",
"680 432 OFFCURVE",
"725 387 OFFCURVE",
"778 387 CURVE SMOOTH"
);
}
);
width = 1195;
}
);
unicode = 06F5;
},
{
glyphname = "six-persian";
lastChange = "2013-06-18 02:31:43 +0330";
layers = (
{
layerId = "3D323242-F336-407C-B164-DE86AA499667";
name = "Regular";
paths = (
{
closed = 1;
nodes = (
"371 425 OFFCURVE",
"309 366 OFFCURVE",
"236 366 CURVE SMOOTH",
"163 366 OFFCURVE",
"100 424 OFFCURVE",
"100 497 CURVE SMOOTH",
"100 574 OFFCURVE",
"163 636 OFFCURVE",
"239 636 CURVE SMOOTH",
"314 636 OFFCURVE",
"371 573 OFFCURVE",
"371 498 CURVE SMOOTH"
);
},
{
closed = 1;
nodes = (
"184 596 OFFCURVE",
"140 552 OFFCURVE",
"140 497 CURVE SMOOTH",
"140 446 OFFCURVE",
"184 406 OFFCURVE",
"236 406 CURVE SMOOTH",
"288 406 OFFCURVE",
"331 447 OFFCURVE",
"331 498 CURVE SMOOTH",
"331 553 OFFCURVE",
"290 596 OFFCURVE",
"239 596 CURVE SMOOTH"
);
},
{
closed = 1;
nodes = (
"1095 422 OFFCURVE",
"1033 363 OFFCURVE",
"960 363 CURVE SMOOTH",
"887 363 OFFCURVE",
"824 421 OFFCURVE",
"824 494 CURVE SMOOTH",
"824 571 OFFCURVE",
"886 633 OFFCURVE",
"963 633 CURVE SMOOTH",
"1038 633 OFFCURVE",
"1095 570 OFFCURVE",
"1095 495 CURVE SMOOTH"
);
},
{
closed = 1;
nodes = (
"908 593 OFFCURVE",
"864 549 OFFCURVE",
"864 494 CURVE SMOOTH",
"864 443 OFFCURVE",
"908 403 OFFCURVE",
"960 403 CURVE SMOOTH",
"1012 403 OFFCURVE",
"1055 444 OFFCURVE",
"1055 495 CURVE SMOOTH",
"1055 550 OFFCURVE",
"1014 593 OFFCURVE",
"963 593 CURVE SMOOTH"
);
},
{
closed = 1;
nodes = (
"732 425 OFFCURVE",
"670 366 OFFCURVE",
"597 366 CURVE SMOOTH",
"524 366 OFFCURVE",
"461 424 OFFCURVE",
"461 497 CURVE SMOOTH",
"461 574 OFFCURVE",
"524 636 OFFCURVE",
"600 636 CURVE SMOOTH",
"675 636 OFFCURVE",
"732 573 OFFCURVE",
"732 498 CURVE SMOOTH"
);
},
{
closed = 1;
nodes = (
"545 596 OFFCURVE",
"501 552 OFFCURVE",
"501 497 CURVE SMOOTH",
"501 446 OFFCURVE",
"545 406 OFFCURVE",
"597 406 CURVE SMOOTH",
"649 406 OFFCURVE",
"692 447 OFFCURVE",
"692 498 CURVE SMOOTH",
"692 553 OFFCURVE",
"651 596 OFFCURVE",
"600 596 CURVE SMOOTH"
);
},
{
closed = 1;
nodes = (
"358 206 OFFCURVE",
"371 173 OFFCURVE",
"371 136 CURVE SMOOTH",
"371 61 OFFCURVE",
"309 3 OFFCURVE",
"236 3 CURVE SMOOTH",
"163 3 OFFCURVE",
"100 60 OFFCURVE",
"100 135 CURVE SMOOTH",
"100 211 OFFCURVE",
"163 273 OFFCURVE",
"239 273 CURVE SMOOTH",
"276 273 OFFCURVE",
"307 260 OFFCURVE",
"333 233 CURVE SMOOTH"
);
},
{
closed = 1;
nodes = (
"184 233 OFFCURVE",
"140 188 OFFCURVE",
"140 135 CURVE SMOOTH",
"140 84 OFFCURVE",
"184 43 OFFCURVE",
"236 43 CURVE SMOOTH",
"288 43 OFFCURVE",
"331 84 OFFCURVE",
"331 136 CURVE SMOOTH",
"331 189 OFFCURVE",
"290 233 OFFCURVE",
"239 233 CURVE SMOOTH"
);
},
{
closed = 1;
nodes = (
"1095 60 OFFCURVE",
"1033 0 OFFCURVE",
"960 0 CURVE SMOOTH",
"887 0 OFFCURVE",
"824 57 OFFCURVE",
"824 132 CURVE SMOOTH",
"824 208 OFFCURVE",
"886 270 OFFCURVE",
"963 270 CURVE SMOOTH",
"1036 270 OFFCURVE",
"1095 208 OFFCURVE",
"1095 133 CURVE SMOOTH"
);
},
{
closed = 1;
nodes = (
"908 230 OFFCURVE",
"864 187 OFFCURVE",
"864 132 CURVE SMOOTH",
"864 81 OFFCURVE",
"908 40 OFFCURVE",
"960 40 CURVE SMOOTH",
"1012 40 OFFCURVE",
"1055 81 OFFCURVE",
"1055 133 CURVE SMOOTH",
"1055 186 OFFCURVE",
"1014 230 OFFCURVE",
"963 230 CURVE SMOOTH"
);
},
{
closed = 1;
nodes = (
"719 206 OFFCURVE",
"732 173 OFFCURVE",
"732 136 CURVE SMOOTH",
"732 61 OFFCURVE",
"670 3 OFFCURVE",
"597 3 CURVE SMOOTH",
"524 3 OFFCURVE",
"461 60 OFFCURVE",
"461 135 CURVE SMOOTH",
"461 211 OFFCURVE",
"524 273 OFFCURVE",
"600 273 CURVE SMOOTH",
"637 273 OFFCURVE",
"668 260 OFFCURVE",
"694 233 CURVE SMOOTH"
);
},
{
closed = 1;
nodes = (
"545 233 OFFCURVE",
"501 188 OFFCURVE",
"501 135 CURVE SMOOTH",
"501 84 OFFCURVE",
"545 43 OFFCURVE",
"597 43 CURVE SMOOTH",
"649 43 OFFCURVE",
"692 84 OFFCURVE",
"692 136 CURVE SMOOTH",
"692 189 OFFCURVE",
"651 233 OFFCURVE",
"600 233 CURVE SMOOTH"
);
}
);
width = 1195;
}
);
unicode = 06F6;
},
{
glyphname = "seven-persian";
lastChange = "2013-06-18 02:31:50 +0330";
layers = (
{
layerId = "3D323242-F336-407C-B164-DE86AA499667";
name = "Regular";
paths = (
{
closed = 1;
nodes = (
"1397 15 OFFCURVE",
"1365 2 OFFCURVE",
"1328 2 CURVE SMOOTH",
"1252 2 OFFCURVE",
"1190 64 OFFCURVE",
"1190 140 CURVE SMOOTH",
"1190 215 OFFCURVE",
"1252 272 OFFCURVE",
"1325 272 CURVE SMOOTH",
"1400 272 OFFCURVE",
"1460 214 OFFCURVE",
"1460 139 CURVE SMOOTH",
"1460 102 OFFCURVE",
"1447 69 OFFCURVE",
"1422 42 CURVE SMOOTH"
);
},
{
closed = 1;
nodes = (
"1380 42 OFFCURVE",
"1420 86 OFFCURVE",
"1420 139 CURVE SMOOTH",
"1420 191 OFFCURVE",
"1377 232 OFFCURVE",
"1325 232 CURVE SMOOTH",
"1273 232 OFFCURVE",
"1230 191 OFFCURVE",
"1230 140 CURVE SMOOTH",
"1230 87 OFFCURVE",
"1275 42 OFFCURVE",
"1328 42 CURVE SMOOTH"
);
},
{
closed = 1;
nodes = (
"307 13 OFFCURVE",
"276 0 OFFCURVE",
"239 0 CURVE SMOOTH",
"162 0 OFFCURVE",
"100 62 OFFCURVE",
"100 138 CURVE SMOOTH",
"100 213 OFFCURVE",
"163 270 OFFCURVE",
"236 270 CURVE SMOOTH",
"309 270 OFFCURVE",
"370 212 OFFCURVE",
"370 137 CURVE SMOOTH",
"370 100 OFFCURVE",
"357 67 OFFCURVE",
"332 40 CURVE SMOOTH"
);
},
{
closed = 1;
nodes = (
"290 40 OFFCURVE",
"330 84 OFFCURVE",
"330 137 CURVE SMOOTH",
"330 189 OFFCURVE",
"288 230 OFFCURVE",
"236 230 CURVE SMOOTH",
"183 230 OFFCURVE",
"140 189 OFFCURVE",
"140 138 CURVE SMOOTH",
"140 83 OFFCURVE",
"184 40 OFFCURVE",
"239 40 CURVE SMOOTH"
);
},
{
closed = 1;
nodes = (
"1031 16 OFFCURVE",
"999 3 OFFCURVE",
"962 3 CURVE SMOOTH",
"886 3 OFFCURVE",
"824 65 OFFCURVE",
"824 141 CURVE SMOOTH",
"824 216 OFFCURVE",
"886 273 OFFCURVE",
"959 273 CURVE SMOOTH",
"1034 273 OFFCURVE",
"1094 215 OFFCURVE",
"1094 140 CURVE SMOOTH",
"1094 103 OFFCURVE",
"1081 70 OFFCURVE",
"1056 43 CURVE SMOOTH"
);
},
{
closed = 1;
nodes = (
"1014 43 OFFCURVE",
"1054 87 OFFCURVE",
"1054 140 CURVE SMOOTH",
"1054 192 OFFCURVE",
"1011 233 OFFCURVE",
"959 233 CURVE SMOOTH",
"907 233 OFFCURVE",
"864 192 OFFCURVE",
"864 141 CURVE SMOOTH",
"864 86 OFFCURVE",
"909 43 OFFCURVE",
"962 43 CURVE SMOOTH"
);
},
{
closed = 1;
nodes = (
"668 13 OFFCURVE",
"637 0 OFFCURVE",
"600 0 CURVE SMOOTH",
"523 0 OFFCURVE",
"461 62 OFFCURVE",
"461 138 CURVE SMOOTH",
"461 213 OFFCURVE",
"524 270 OFFCURVE",
"597 270 CURVE SMOOTH",
"670 270 OFFCURVE",
"731 212 OFFCURVE",
"731 137 CURVE SMOOTH",
"731 100 OFFCURVE",
"718 67 OFFCURVE",
"693 40 CURVE SMOOTH"
);
},
{
closed = 1;
nodes = (
"651 40 OFFCURVE",
"691 84 OFFCURVE",
"691 137 CURVE SMOOTH",
"691 189 OFFCURVE",
"649 230 OFFCURVE",
"597 230 CURVE SMOOTH",
"544 230 OFFCURVE",
"501 189 OFFCURVE",
"501 138 CURVE SMOOTH",
"501 83 OFFCURVE",
"545 40 OFFCURVE",
"600 40 CURVE SMOOTH"
);
},
{
closed = 1;
nodes = (
"486 344 OFFCURVE",
"455 331 OFFCURVE",
"418 331 CURVE SMOOTH",
"342 331 OFFCURVE",
"280 393 OFFCURVE",
"280 469 CURVE SMOOTH",
"280 544 OFFCURVE",
"342 601 OFFCURVE",
"415 601 CURVE SMOOTH",
"488 601 OFFCURVE",
"550 543 OFFCURVE",
"550 468 CURVE SMOOTH",
"550 431 OFFCURVE",
"537 398 OFFCURVE",
"512 371 CURVE SMOOTH"
);
},
{
closed = 1;
nodes = (
"469 371 OFFCURVE",
"510 415 OFFCURVE",
"510 468 CURVE SMOOTH",
"510 520 OFFCURVE",
"467 561 OFFCURVE",
"415 561 CURVE SMOOTH",
"363 561 OFFCURVE",
"319 520 OFFCURVE",
"319 469 CURVE SMOOTH",
"319 416 OFFCURVE",
"363 371 OFFCURVE",
"418 371 CURVE SMOOTH"
);
},
{
closed = 1;
nodes = (
"1210 347 OFFCURVE",
"1179 334 OFFCURVE",
"1142 334 CURVE SMOOTH",
"1065 334 OFFCURVE",
"1003 396 OFFCURVE",
"1003 472 CURVE SMOOTH",
"1003 547 OFFCURVE",
"1066 604 OFFCURVE",
"1139 604 CURVE SMOOTH",
"1212 604 OFFCURVE",
"1274 546 OFFCURVE",
"1274 471 CURVE SMOOTH",
"1274 434 OFFCURVE",
"1261 401 OFFCURVE",
"1236 374 CURVE SMOOTH"
);
},
{
closed = 1;
nodes = (
"1193 374 OFFCURVE",
"1234 418 OFFCURVE",
"1234 471 CURVE SMOOTH",
"1234 523 OFFCURVE",
"1191 564 OFFCURVE",
"1139 564 CURVE SMOOTH",
"1087 564 OFFCURVE",
"1043 523 OFFCURVE",
"1043 472 CURVE SMOOTH",
"1043 417 OFFCURVE",
"1087 374 OFFCURVE",
"1142 374 CURVE SMOOTH"
);
},
{
closed = 1;
nodes = (
"847 344 OFFCURVE",
"816 331 OFFCURVE",
"779 331 CURVE SMOOTH",
"703 331 OFFCURVE",
"640 393 OFFCURVE",
"640 469 CURVE SMOOTH",
"640 544 OFFCURVE",
"703 601 OFFCURVE",
"776 601 CURVE SMOOTH",
"849 601 OFFCURVE",
"911 543 OFFCURVE",
"911 468 CURVE SMOOTH",
"911 431 OFFCURVE",
"898 398 OFFCURVE",
"873 371 CURVE SMOOTH"
);
},
{
closed = 1;
nodes = (
"830 371 OFFCURVE",
"871 415 OFFCURVE",
"871 468 CURVE SMOOTH",
"871 520 OFFCURVE",
"828 561 OFFCURVE",
"776 561 CURVE SMOOTH",
"724 561 OFFCURVE",
"680 520 OFFCURVE",
"680 469 CURVE SMOOTH",
"680 416 OFFCURVE",
"724 371 OFFCURVE",
"779 371 CURVE SMOOTH"
);
}
);
width = 1560;
}
);
unicode = 06F7;
},
{
glyphname = "eight-persian";
lastChange = "2013-06-18 02:31:52 +0330";
layers = (
{
layerId = "3D323242-F336-407C-B164-DE86AA499667";
name = "Regular";
paths = (
{
closed = 1;
nodes = (
"1460 423 OFFCURVE",
"1400 364 OFFCURVE",
"1325 364 CURVE SMOOTH",
"1252 364 OFFCURVE",
"1190 422 OFFCURVE",
"1190 495 CURVE SMOOTH",
"1190 572 OFFCURVE",
"1252 634 OFFCURVE",
"1328 634 CURVE SMOOTH",
"1403 634 OFFCURVE",
"1460 571 OFFCURVE",
"1460 496 CURVE SMOOTH"
);
},
{
closed = 1;
nodes = (
"1273 594 OFFCURVE",
"1230 550 OFFCURVE",
"1230 495 CURVE SMOOTH",
"1230 444 OFFCURVE",
"1273 404 OFFCURVE",
"1325 404 CURVE SMOOTH",
"1377 404 OFFCURVE",
"1420 445 OFFCURVE",
"1420 496 CURVE SMOOTH",
"1420 551 OFFCURVE",
"1380 594 OFFCURVE",
"1328 594 CURVE SMOOTH"
);
},
{
closed = 1;
nodes = (
"1447 204 OFFCURVE",
"1460 171 OFFCURVE",
"1460 134 CURVE SMOOTH",
"1460 59 OFFCURVE",
"1400 1 OFFCURVE",
"1325 1 CURVE SMOOTH",
"1252 1 OFFCURVE",
"1190 58 OFFCURVE",
"1190 133 CURVE SMOOTH",
"1190 209 OFFCURVE",
"1252 271 OFFCURVE",
"1328 271 CURVE SMOOTH",
"1365 271 OFFCURVE",
"1397 258 OFFCURVE",
"1422 231 CURVE SMOOTH"
);
},
{
closed = 1;
nodes = (
"1275 231 OFFCURVE",
"1230 188 OFFCURVE",
"1230 133 CURVE SMOOTH",
"1230 82 OFFCURVE",
"1273 41 OFFCURVE",
"1325 41 CURVE SMOOTH",
"1377 41 OFFCURVE",
"1420 82 OFFCURVE",
"1420 134 CURVE SMOOTH",
"1420 187 OFFCURVE",
"1380 231 OFFCURVE",
"1328 231 CURVE SMOOTH"
);
},
{
closed = 1;
nodes = (
"370 425 OFFCURVE",
"309 366 OFFCURVE",
"236 366 CURVE SMOOTH",
"163 366 OFFCURVE",
"100 424 OFFCURVE",
"100 497 CURVE SMOOTH",
"100 574 OFFCURVE",
"162 636 OFFCURVE",
"239 636 CURVE SMOOTH",
"312 636 OFFCURVE",
"370 573 OFFCURVE",
"370 498 CURVE SMOOTH"
);
},
{
closed = 1;
nodes = (
"184 596 OFFCURVE",
"140 552 OFFCURVE",
"140 497 CURVE SMOOTH",
"140 446 OFFCURVE",
"183 406 OFFCURVE",
"236 406 CURVE SMOOTH",
"288 406 OFFCURVE",
"330 447 OFFCURVE",
"330 498 CURVE SMOOTH",
"330 553 OFFCURVE",
"290 596 OFFCURVE",
"239 596 CURVE SMOOTH"
);
},
{
closed = 1;
nodes = (
"1094 422 OFFCURVE",
"1034 363 OFFCURVE",
"959 363 CURVE SMOOTH",
"886 363 OFFCURVE",
"824 421 OFFCURVE",
"824 494 CURVE SMOOTH",
"824 571 OFFCURVE",
"886 633 OFFCURVE",
"962 633 CURVE SMOOTH",
"1037 633 OFFCURVE",
"1094 570 OFFCURVE",
"1094 495 CURVE SMOOTH"
);
},
{
closed = 1;
nodes = (
"907 593 OFFCURVE",
"864 549 OFFCURVE",
"864 494 CURVE SMOOTH",
"864 443 OFFCURVE",
"907 403 OFFCURVE",
"959 403 CURVE SMOOTH",
"1011 403 OFFCURVE",
"1054 444 OFFCURVE",
"1054 495 CURVE SMOOTH",
"1054 550 OFFCURVE",
"1014 593 OFFCURVE",
"962 593 CURVE SMOOTH"
);
},
{
closed = 1;
nodes = (
"731 425 OFFCURVE",
"670 366 OFFCURVE",
"597 366 CURVE SMOOTH",
"524 366 OFFCURVE",
"461 424 OFFCURVE",
"461 497 CURVE SMOOTH",
"461 574 OFFCURVE",
"523 636 OFFCURVE",
"600 636 CURVE SMOOTH",
"673 636 OFFCURVE",
"731 573 OFFCURVE",
"731 498 CURVE SMOOTH"
);
},
{
closed = 1;
nodes = (
"545 596 OFFCURVE",
"501 552 OFFCURVE",
"501 497 CURVE SMOOTH",
"501 446 OFFCURVE",
"544 406 OFFCURVE",
"597 406 CURVE SMOOTH",
"649 406 OFFCURVE",
"691 447 OFFCURVE",
"691 498 CURVE SMOOTH",
"691 553 OFFCURVE",
"651 596 OFFCURVE",
"600 596 CURVE SMOOTH"
);
},
{
closed = 1;
nodes = (
"357 206 OFFCURVE",
"370 173 OFFCURVE",
"370 136 CURVE SMOOTH",
"370 61 OFFCURVE",
"309 3 OFFCURVE",
"236 3 CURVE SMOOTH",
"163 3 OFFCURVE",
"100 60 OFFCURVE",
"100 135 CURVE SMOOTH",
"100 211 OFFCURVE",
"162 273 OFFCURVE",
"239 273 CURVE SMOOTH",
"276 273 OFFCURVE",
"307 260 OFFCURVE",
"332 233 CURVE SMOOTH"
);
},
{
closed = 1;
nodes = (
"184 233 OFFCURVE",
"140 190 OFFCURVE",
"140 135 CURVE SMOOTH",
"140 84 OFFCURVE",
"183 43 OFFCURVE",
"236 43 CURVE SMOOTH",
"288 43 OFFCURVE",
"330 84 OFFCURVE",
"330 136 CURVE SMOOTH",
"330 189 OFFCURVE",
"290 233 OFFCURVE",
"239 233 CURVE SMOOTH"
);
},
{
closed = 1;
nodes = (
"1081 203 OFFCURVE",
"1094 170 OFFCURVE",
"1094 133 CURVE SMOOTH",
"1094 58 OFFCURVE",
"1034 0 OFFCURVE",
"959 0 CURVE SMOOTH",
"886 0 OFFCURVE",
"824 57 OFFCURVE",
"824 132 CURVE SMOOTH",
"824 208 OFFCURVE",
"886 270 OFFCURVE",
"962 270 CURVE SMOOTH",
"999 270 OFFCURVE",
"1031 257 OFFCURVE",
"1056 230 CURVE SMOOTH"
);
},
{
closed = 1;
nodes = (
"909 230 OFFCURVE",
"864 185 OFFCURVE",
"864 132 CURVE SMOOTH",
"864 81 OFFCURVE",
"907 40 OFFCURVE",
"959 40 CURVE SMOOTH",
"1011 40 OFFCURVE",
"1054 81 OFFCURVE",
"1054 133 CURVE SMOOTH",
"1054 186 OFFCURVE",
"1014 230 OFFCURVE",
"962 230 CURVE SMOOTH"
);
},
{
closed = 1;
nodes = (
"718 206 OFFCURVE",
"731 173 OFFCURVE",
"731 136 CURVE SMOOTH",
"731 61 OFFCURVE",
"670 3 OFFCURVE",
"597 3 CURVE SMOOTH",
"524 3 OFFCURVE",
"461 60 OFFCURVE",
"461 135 CURVE SMOOTH",
"461 211 OFFCURVE",
"523 273 OFFCURVE",
"600 273 CURVE SMOOTH",
"637 273 OFFCURVE",
"668 260 OFFCURVE",
"693 233 CURVE SMOOTH"
);
},
{
closed = 1;
nodes = (
"545 233 OFFCURVE",
"501 190 OFFCURVE",
"501 135 CURVE SMOOTH",
"501 84 OFFCURVE",
"544 43 OFFCURVE",
"597 43 CURVE SMOOTH",
"649 43 OFFCURVE",
"691 84 OFFCURVE",
"691 136 CURVE SMOOTH",
"691 189 OFFCURVE",
"651 233 OFFCURVE",
"600 233 CURVE SMOOTH"
);
}
);
width = 1560;
}
);
unicode = 06F8;
},
{
glyphname = "nine-persian";
lastChange = "2013-06-18 02:31:55 +0330";
layers = (
{
layerId = "3D323242-F336-407C-B164-DE86AA499667";
name = "Regular";
paths = (
{
closed = 1;
nodes = (
"372 791 OFFCURVE",
"312 731 OFFCURVE",
"237 731 CURVE SMOOTH",
"164 731 OFFCURVE",
"102 788 OFFCURVE",
"102 863 CURVE SMOOTH",
"102 939 OFFCURVE",
"164 1001 OFFCURVE",
"240 1001 CURVE SMOOTH",
"315 1001 OFFCURVE",
"372 939 OFFCURVE",
"372 864 CURVE SMOOTH"
);
},
{
closed = 1;
nodes = (
"187 961 OFFCURVE",
"142 918 OFFCURVE",
"142 863 CURVE SMOOTH",
"142 812 OFFCURVE",
"185 771 OFFCURVE",
"237 771 CURVE SMOOTH",
"289 771 OFFCURVE",
"332 812 OFFCURVE",
"332 864 CURVE SMOOTH",
"332 917 OFFCURVE",
"292 961 OFFCURVE",
"240 961 CURVE SMOOTH"
);
},
{
closed = 1;
nodes = (
"1095 788 OFFCURVE",
"1034 728 OFFCURVE",
"961 728 CURVE SMOOTH",
"888 728 OFFCURVE",
"825 785 OFFCURVE",
"825 860 CURVE SMOOTH",
"825 936 OFFCURVE",
"887 998 OFFCURVE",
"964 998 CURVE SMOOTH",
"1037 998 OFFCURVE",
"1095 936 OFFCURVE",
"1095 861 CURVE SMOOTH"
);
},
{
closed = 1;
nodes = (
"909 958 OFFCURVE",
"865 915 OFFCURVE",
"865 860 CURVE SMOOTH",
"865 809 OFFCURVE",
"908 768 OFFCURVE",
"961 768 CURVE SMOOTH",
"1013 768 OFFCURVE",
"1055 809 OFFCURVE",
"1055 861 CURVE SMOOTH",
"1055 914 OFFCURVE",
"1015 958 OFFCURVE",
"964 958 CURVE SMOOTH"
);
},
{
closed = 1;
nodes = (
"732 791 OFFCURVE",
"671 731 OFFCURVE",
"598 731 CURVE SMOOTH",
"525 731 OFFCURVE",
"463 788 OFFCURVE",
"463 863 CURVE SMOOTH",
"463 939 OFFCURVE",
"525 1001 OFFCURVE",
"601 1001 CURVE SMOOTH",
"674 1001 OFFCURVE",
"732 939 OFFCURVE",
"732 864 CURVE SMOOTH"
);
},
{
closed = 1;
nodes = (
"546 961 OFFCURVE",
"502 916 OFFCURVE",
"502 863 CURVE SMOOTH",
"502 812 OFFCURVE",
"546 771 OFFCURVE",
"598 771 CURVE SMOOTH",
"650 771 OFFCURVE",
"693 812 OFFCURVE",
"693 864 CURVE SMOOTH",
"693 917 OFFCURVE",
"652 961 OFFCURVE",
"601 961 CURVE SMOOTH"
);
},
{
closed = 1;
nodes = (
"370 62 OFFCURVE",
"310 3 OFFCURVE",
"235 3 CURVE SMOOTH",
"162 3 OFFCURVE",
"100 61 OFFCURVE",
"100 134 CURVE SMOOTH",
"100 211 OFFCURVE",
"162 273 OFFCURVE",
"238 273 CURVE SMOOTH",
"313 273 OFFCURVE",
"370 210 OFFCURVE",
"370 135 CURVE SMOOTH"
);
},
{
closed = 1;
nodes = (
"183 233 OFFCURVE",
"140 189 OFFCURVE",
"140 134 CURVE SMOOTH",
"140 85 OFFCURVE",
"183 43 OFFCURVE",
"235 43 CURVE SMOOTH",
"287 43 OFFCURVE",
"330 84 OFFCURVE",
"330 135 CURVE SMOOTH",
"330 190 OFFCURVE",
"290 233 OFFCURVE",
"238 233 CURVE SMOOTH"
);
},
{
closed = 1;
nodes = (
"1093 59 OFFCURVE",
"1032 0 OFFCURVE",
"959 0 CURVE SMOOTH",
"886 0 OFFCURVE",
"823 58 OFFCURVE",
"823 131 CURVE SMOOTH",
"823 208 OFFCURVE",
"885 270 OFFCURVE",
"962 270 CURVE SMOOTH",
"1035 270 OFFCURVE",
"1093 207 OFFCURVE",
"1093 132 CURVE SMOOTH"
);
},
{
closed = 1;
nodes = (
"907 230 OFFCURVE",
"863 186 OFFCURVE",
"863 131 CURVE SMOOTH",
"863 80 OFFCURVE",
"906 40 OFFCURVE",
"959 40 CURVE SMOOTH",
"1011 40 OFFCURVE",
"1053 81 OFFCURVE",
"1053 132 CURVE SMOOTH",
"1053 187 OFFCURVE",
"1013 230 OFFCURVE",
"962 230 CURVE SMOOTH"
);
},
{
closed = 1;
nodes = (
"730 62 OFFCURVE",
"669 3 OFFCURVE",
"596 3 CURVE SMOOTH",
"523 3 OFFCURVE",
"461 61 OFFCURVE",
"461 134 CURVE SMOOTH",
"461 211 OFFCURVE",
"523 273 OFFCURVE",
"599 273 CURVE SMOOTH",
"672 273 OFFCURVE",
"730 210 OFFCURVE",
"730 135 CURVE SMOOTH"
);
},
{
closed = 1;
nodes = (
"544 233 OFFCURVE",
"500 189 OFFCURVE",
"500 134 CURVE SMOOTH",
"500 85 OFFCURVE",
"544 43 OFFCURVE",
"596 43 CURVE SMOOTH",
"648 43 OFFCURVE",
"691 84 OFFCURVE",
"691 135 CURVE SMOOTH",
"691 190 OFFCURVE",
"650 233 OFFCURVE",
"599 233 CURVE SMOOTH"
);
},
{
closed = 1;
nodes = (
"372 428 OFFCURVE",
"312 369 OFFCURVE",
"237 369 CURVE SMOOTH",
"164 369 OFFCURVE",
"102 427 OFFCURVE",
"102 500 CURVE SMOOTH",
"102 576 OFFCURVE",
"164 638 OFFCURVE",
"240 638 CURVE SMOOTH",
"315 638 OFFCURVE",
"372 576 OFFCURVE",
"372 501 CURVE SMOOTH"
);
},
{
closed = 1;
nodes = (
"187 599 OFFCURVE",
"142 555 OFFCURVE",
"142 500 CURVE SMOOTH",
"142 449 OFFCURVE",
"185 408 OFFCURVE",
"237 408 CURVE SMOOTH",
"289 408 OFFCURVE",
"332 450 OFFCURVE",
"332 501 CURVE SMOOTH",
"332 554 OFFCURVE",
"292 599 OFFCURVE",
"240 599 CURVE SMOOTH"
);
},
{
closed = 1;
nodes = (
"1095 425 OFFCURVE",
"1034 366 OFFCURVE",
"961 366 CURVE SMOOTH",
"888 366 OFFCURVE",
"825 424 OFFCURVE",
"825 497 CURVE SMOOTH",
"825 573 OFFCURVE",
"887 635 OFFCURVE",
"964 635 CURVE SMOOTH",
"1037 635 OFFCURVE",
"1095 573 OFFCURVE",
"1095 498 CURVE SMOOTH"
);
},
{
closed = 1;
nodes = (
"909 596 OFFCURVE",
"865 552 OFFCURVE",
"865 497 CURVE SMOOTH",
"865 446 OFFCURVE",
"908 405 OFFCURVE",
"961 405 CURVE SMOOTH",
"1013 405 OFFCURVE",
"1055 447 OFFCURVE",
"1055 498 CURVE SMOOTH",
"1055 551 OFFCURVE",
"1015 596 OFFCURVE",
"964 596 CURVE SMOOTH"
);
},
{
closed = 1;
nodes = (
"732 428 OFFCURVE",
"671 369 OFFCURVE",
"598 369 CURVE SMOOTH",
"525 369 OFFCURVE",
"463 427 OFFCURVE",
"463 500 CURVE SMOOTH",
"463 576 OFFCURVE",
"525 638 OFFCURVE",
"601 638 CURVE SMOOTH",
"674 638 OFFCURVE",
"732 576 OFFCURVE",
"732 501 CURVE SMOOTH"
);
},
{
closed = 1;
nodes = (
"546 599 OFFCURVE",
"502 553 OFFCURVE",
"502 500 CURVE SMOOTH",
"502 449 OFFCURVE",
"546 408 OFFCURVE",
"598 408 CURVE SMOOTH",
"650 408 OFFCURVE",
"693 450 OFFCURVE",
"693 501 CURVE SMOOTH",
"693 554 OFFCURVE",
"652 599 OFFCURVE",
"601 599 CURVE SMOOTH"
);
}
);
width = 1195;
}
);
unicode = 06F9;
},
{
glyphname = "uniE14E";
lastChange = "2013-06-18 02:47:29 +0330";
layers = (
{
layerId = "3D323242-F336-407C-B164-DE86AA499667";
name = "Regular";
paths = (
{
closed = 1;
nodes = (
"39 62 LINE",
"39 40 LINE",
"961 40 LINE",
"961 67 LINE",
"954 68 OFFCURVE",
"936 70 OFFCURVE",
"906 71 CURVE SMOOTH",
"875 72 OFFCURVE",
"853 77 OFFCURVE",
"838 84 CURVE",
"672 176 LINE SMOOTH",
"609 212 OFFCURVE",
"549 258 OFFCURVE",
"488 306 CURVE SMOOTH",
"435 346 OFFCURVE",
"395 379 OFFCURVE",
"369 404 CURVE SMOOTH",
"363 410 OFFCURVE",
"355 419 OFFCURVE",
"344 431 CURVE SMOOTH",
"322 455 OFFCURVE",
"310 464 OFFCURVE",
"289 475 CURVE SMOOTH",
"278 481 OFFCURVE",
"267 484 OFFCURVE",
"254 484 CURVE SMOOTH",
"247 484 OFFCURVE",
"239 483 OFFCURVE",
"229 481 CURVE",
"204 475 OFFCURVE",
"185 464 OFFCURVE",
"170 448 CURVE",
"158 433 OFFCURVE",
"148 412 OFFCURVE",
"140 387 CURVE",
"143 388 OFFCURVE",
"145 389 OFFCURVE",
"147 390 CURVE SMOOTH",
"149 391 OFFCURVE",
"150 391 OFFCURVE",
"151 391 CURVE",
"157 393 OFFCURVE",
"162 394 OFFCURVE",
"167 394 CURVE SMOOTH",
"172 394 LINE",
"177 393 OFFCURVE",
"182 392 OFFCURVE",
"188 389 CURVE",
"208 380 OFFCURVE",
"217 363 OFFCURVE",
"225 343 CURVE",
"228 333 OFFCURVE",
"231 326 OFFCURVE",
"234 322 CURVE",
"236 318 OFFCURVE",
"237 314 OFFCURVE",
"237 311 CURVE SMOOTH",
"237 310 OFFCURVE",
"236 307 OFFCURVE",
"235 303 CURVE",
"232 297 OFFCURVE",
"227 293 OFFCURVE",
"220 291 CURVE",
"208 290 OFFCURVE",
"206 278 OFFCURVE",
"206 269 CURVE SMOOTH",
"206 263 LINE",
"207 262 OFFCURVE",
"208 259 OFFCURVE",
"208 258 CURVE",
"214 246 OFFCURVE",
"217 239 OFFCURVE",
"217 238 CURVE",
"220 235 OFFCURVE",
"223 229 OFFCURVE",
"227 222 CURVE",
"234 207 OFFCURVE",
"240 197 OFFCURVE",
"247 188 CURVE SMOOTH",
"264 165 OFFCURVE",
"278 150 OFFCURVE",
"300 125 CURVE SMOOTH",
"311 112 OFFCURVE",
"319 102 OFFCURVE",
"326 95 CURVE",
"329 90 OFFCURVE",
"331 86 OFFCURVE",
"331 82 CURVE SMOOTH",
"331 80 OFFCURVE",
"330 77 OFFCURVE",
"329 73 CURVE",
"325 66 OFFCURVE",
"319 62 OFFCURVE",
"310 62 CURVE SMOOTH"
);
},
{
closed = 1;
nodes = (
"266 102 LINE",
"247 123 OFFCURVE",
"230 144 OFFCURVE",
"215 163 CURVE SMOOTH",
"206 175 OFFCURVE",
"199 188 OFFCURVE",
"192 203 CURVE",
"188 210 OFFCURVE",
"185 216 OFFCURVE",
"182 219 CURVE",
"181 222 OFFCURVE",
"180 223 OFFCURVE",
"180 224 CURVE",
"172 240 LINE",
"169 247 OFFCURVE",
"168 252 OFFCURVE",
"167 257 CURVE",
"167 258 OFFCURVE",
"167 259 OFFCURVE",
"167 262 CURVE",
"166 265 OFFCURVE",
"166 267 OFFCURVE",
"166 269 CURVE SMOOTH",
"166 276 OFFCURVE",
"166 282 OFFCURVE",
"167 287 CURVE",
"167 288 OFFCURVE",
"167 289 OFFCURVE",
"168 290 CURVE",
"168 291 OFFCURVE",
"168 292 OFFCURVE",
"168 293 CURVE",
"175 306 OFFCURVE",
"182 316 OFFCURVE",
"190 321 CURVE",
"185 336 OFFCURVE",
"181 348 OFFCURVE",
"170 353 CURVE",
"170 353 OFFCURVE",
"170 353 OFFCURVE",
"169 354 CURVE",
"168 354 OFFCURVE",
"168 354 OFFCURVE",
"167 354 CURVE SMOOTH",
"165 354 OFFCURVE",
"164 354 OFFCURVE",
"163 353 CURVE",
"161 353 LINE",
"160 352 OFFCURVE",
"156 351 OFFCURVE",
"151 349 CURVE",
"146 346 OFFCURVE",
"142 344 OFFCURVE",
"139 343 CURVE",
"136 333 LINE",
"134 324 OFFCURVE",
"128 319 OFFCURVE",
"118 319 CURVE SMOOTH",
"115 319 LINE",
"104 320 OFFCURVE",
"98 327 OFFCURVE",
"97 338 CURVE",
"97 341 OFFCURVE",
"97 345 OFFCURVE",
"96 351 CURVE SMOOTH",
"95 356 OFFCURVE",
"94 361 OFFCURVE",
"94 365 CURVE SMOOTH",
"94 372 OFFCURVE",
"95 377 OFFCURVE",
"96 381 CURVE",
"100 393 OFFCURVE",
"104 404 OFFCURVE",
"107 414 CURVE SMOOTH",
"113 433 OFFCURVE",
"124 455 OFFCURVE",
"140 474 CURVE",
"161 497 OFFCURVE",
"188 512 OFFCURVE",
"221 520 CURVE",
"231 523 OFFCURVE",
"242 524 OFFCURVE",
"254 524 CURVE SMOOTH",
"291 524 OFFCURVE",
"323 504 OFFCURVE",
"342 489 CURVE",
"351 481 OFFCURVE",
"362 471 OFFCURVE",
"373 459 CURVE",
"384 446 OFFCURVE",
"391 438 OFFCURVE",
"396 433 CURVE SMOOTH",
"418 412 OFFCURVE",
"441 392 OFFCURVE",
"466 373 CURVE",
"646 618 LINE",
"653 625 LINE",
"656 629 OFFCURVE",
"662 632 OFFCURVE",
"666 632 CURVE SMOOTH",
"670 632 OFFCURVE",
"674 629 OFFCURVE",
"679 623 CURVE SMOOTH",
"986 250 LINE",
"991 247 OFFCURVE",
"993 242 OFFCURVE",
"993 238 CURVE SMOOTH",
"993 235 OFFCURVE",
"992 232 OFFCURVE",
"990 229 CURVE",
"990 228 LINE",
"987 225 OFFCURVE",
"985 224 OFFCURVE",
"982 224 CURVE SMOOTH",
"982 224 OFFCURVE",
"981 225 OFFCURVE",
"979 226 CURVE",
"976 227 OFFCURVE",
"971 228 OFFCURVE",
"963 230 CURVE SMOOTH",
"954 232 OFFCURVE",
"943 234 OFFCURVE",
"929 235 CURVE",
"946 197 LINE",
"950 186 OFFCURVE",
"939 175 OFFCURVE",
"932 183 CURVE SMOOTH",
"904 217 LINE",
"903 193 OFFCURVE",
"902 180 OFFCURVE",
"900 172 CURVE SMOOTH",
"899 168 OFFCURVE",
"896 165 OFFCURVE",
"893 162 CURVE",
"893 162 OFFCURVE",
"893 162 OFFCURVE",
"893 162 CURVE",
"892 161 OFFCURVE",
"892 161 OFFCURVE",
"891 161 CURVE",
"890 160 OFFCURVE",
"887 159 OFFCURVE",
"883 159 CURVE SMOOTH",
"879 159 OFFCURVE",
"875 161 OFFCURVE",
"872 164 CURVE",
"659 561 LINE",
"498 348 LINE",
"512 338 LINE",
"568 294 OFFCURVE",
"628 248 OFFCURVE",
"691 211 CURVE SMOOTH",
"856 119 LINE",
"869 113 OFFCURVE",
"887 110 OFFCURVE",
"910 110 CURVE SMOOTH",
"911 110 OFFCURVE",
"914 110 OFFCURVE",
"917 110 CURVE SMOOTH",
"920 110 OFFCURVE",
"923 110 OFFCURVE",
"925 110 CURVE SMOOTH",
"949 110 OFFCURVE",
"969 107 OFFCURVE",
"986 101 CURVE SMOOTH",
"995 98 OFFCURVE",
"999 92 OFFCURVE",
"1000 83 CURVE",
"1000 21 LINE SMOOTH",
"1000 20 OFFCURVE",
"1000 18 OFFCURVE",
"1001 17 CURVE",
"1001 15 OFFCURVE",
"1001 14 OFFCURVE",
"1001 13 CURVE SMOOTH",
"1001 10 OFFCURVE",
"1000 7 OFFCURVE",
"998 6 CURVE",
"994 2 OFFCURVE",
"989 0 OFFCURVE",
"984 0 CURVE SMOOTH",
"17 0 LINE SMOOTH",
"16 0 OFFCURVE",
"15 0 OFFCURVE",
"14 0 CURVE SMOOTH",
"12 0 OFFCURVE",
"11 0 OFFCURVE",
"10 0 CURVE SMOOTH",
"3 0 OFFCURVE",
"0 4 OFFCURVE",
"0 9 CURVE SMOOTH",
"0 10 OFFCURVE",
"0 12 OFFCURVE",
"1 17 CURVE",
"1 83 LINE SMOOTH",
"1 94 OFFCURVE",
"10 102 OFFCURVE",
"21 102 CURVE SMOOTH"
);
},
{
closed = 1;
nodes = (
"262 461 OFFCURVE",
"274 445 OFFCURVE",
"274 428 CURVE SMOOTH",
"274 412 OFFCURVE",
"260 399 OFFCURVE",
"244 399 CURVE SMOOTH",
"227 399 OFFCURVE",
"212 411 OFFCURVE",
"212 427 CURVE SMOOTH",
"212 446 OFFCURVE",
"226 461 OFFCURVE",
"245 461 CURVE SMOOTH"
);
},
{
closed = 1;
nodes = (
"870 256 LINE",
"873 257 OFFCURVE",
"875 258 OFFCURVE",
"878 258 CURVE SMOOTH",
"883 258 OFFCURVE",
"890 256 OFFCURVE",
"897 253 CURVE",
"899 271 OFFCURVE",
"900 280 OFFCURVE",
"901 280 CURVE SMOOTH",
"902 280 OFFCURVE",
"905 279 OFFCURVE",
"911 276 CURVE SMOOTH",
"917 273 OFFCURVE",
"924 270 OFFCURVE",
"932 269 CURVE",
"741 492 LINE",
"873 225 LINE"
);
}
